{"glyphs":{"0":{"ha":840,"x_min":0,"x_max":0,"o":"m 768 343 b 358 -18 724 93 565 -18 b 69 350 169 -18 28 118 l 124 656 b 533 1011 167 901 326 1011 b 822 650 722 1011 863 876 l 768 343 m 282 335 b 388 190 263 226 315 190 b 553 338 464 190 535 231 l 610 660 b 501 804 628 767 575 804 b 338 657 426 804 357 764 l 282 335 "},"1":{"ha":546,"x_min":0,"x_max":0,"o":"m 199 1 b 178 28 183 1 175 11 l 303 733 l 169 646 b 138 656 157 636 143 642 l 83 776 b 92 808 76 792 79 800 l 360 983 b 390 993 371 990 379 993 l 535 993 b 557 967 550 993 558 982 l 390 22 b 364 1 388 8 379 1 "},"2":{"ha":771,"x_min":0,"x_max":0,"o":"m 8 0 b -12 26 -7 0 -15 10 l 8 154 b 25 182 11 167 15 174 l 293 419 b 551 719 469 572 538 642 b 460 810 560 771 539 810 b 254 714 381 810 313 765 b 221 719 242 701 229 703 l 151 842 b 156 875 144 854 146 867 b 486 1011 236 949 353 1011 b 761 714 679 1011 794 894 b 549 385 743 603 679 517 b 328 197 490 329 410 258 l 663 197 b 685 171 679 197 688 186 l 658 22 b 632 0 656 8 647 0 "},"3":{"ha":771,"x_min":0,"x_max":0,"o":"m 713 315 b 311 -17 674 100 522 -17 b -4 114 149 -17 60 40 b 0 149 -14 126 -11 138 l 97 260 b 131 257 110 271 119 268 b 328 186 176 213 228 186 b 500 333 411 186 482 235 b 374 460 515 417 461 460 b 282 447 349 460 314 456 b 253 464 267 443 256 450 l 231 543 b 240 574 228 556 231 565 l 490 794 l 179 794 b 157 821 164 794 156 806 l 185 971 b 210 993 186 985 194 993 l 769 993 b 792 967 785 993 793 982 l 769 849 b 756 821 768 836 765 829 l 497 597 l 497 596 b 713 315 640 600 739 468 "},"4":{"ha":807,"x_min":0,"x_max":0,"o":"m 429 0 b 407 26 413 0 404 11 l 433 174 l 25 174 b 4 200 10 174 1 185 l 25 322 b 36 351 28 333 31 342 l 458 978 b 489 993 465 988 476 993 l 669 993 b 685 964 688 993 696 981 l 286 368 l 467 368 l 517 547 b 544 567 521 560 531 567 l 686 567 b 708 540 703 567 710 556 l 678 368 l 753 368 b 774 342 768 368 776 357 l 749 196 b 722 174 746 182 738 174 l 643 174 l 617 22 b 592 0 614 8 606 0 "},"5":{"ha":789,"x_min":0,"x_max":0,"o":"m 736 326 b 324 -17 699 114 557 -17 b 29 115 190 -17 94 36 b 32 149 19 128 22 139 l 124 257 b 158 258 135 268 149 267 b 354 186 211 210 279 186 b 528 340 451 186 511 249 b 408 468 542 428 500 468 b 239 418 342 468 286 450 b 206 415 228 411 218 411 l 110 450 b 93 479 97 454 90 464 l 197 971 b 224 993 200 985 210 993 l 765 993 b 788 967 782 993 790 982 l 761 813 b 735 792 758 799 750 792 l 363 792 l 325 618 b 478 649 358 636 418 649 b 736 326 668 649 769 518 "},"6":{"ha":813,"x_min":0,"x_max":0,"o":"m 758 321 b 353 -18 722 118 564 -18 b 63 319 146 -18 29 126 l 124 658 b 532 1011 163 879 333 1011 b 818 917 649 1011 749 974 b 821 883 831 907 831 896 l 721 757 b 688 754 711 744 699 744 b 510 810 643 789 579 810 b 336 660 418 810 351 756 l 324 589 b 492 633 369 617 424 633 b 758 321 686 633 792 511 m 278 326 b 382 185 261 235 301 185 b 546 332 468 185 529 240 b 436 457 560 413 525 457 b 278 326 358 457 293 414 "},"7":{"ha":719,"x_min":0,"x_max":0,"o":"m 74 0 b 57 29 56 0 47 13 l 514 794 l 131 794 b 108 821 114 794 106 806 l 135 971 b 160 993 136 986 144 993 l 775 993 b 796 967 790 993 799 982 l 776 849 b 767 821 775 839 772 831 l 288 17 b 258 0 281 6 272 0 "},"8":{"ha":840,"x_min":0,"x_max":0,"o":"m 771 296 b 356 -18 733 88 586 -18 b 47 306 153 -18 13 107 b 215 531 64 401 125 488 b 150 738 160 581 135 653 b 531 1011 176 894 328 1011 b 819 722 729 1011 849 889 b 686 525 806 647 761 569 b 771 296 756 479 789 393 m 261 299 b 385 178 247 224 294 178 b 558 306 478 178 544 228 b 431 419 569 376 522 419 b 261 299 339 419 274 374 m 349 713 b 458 603 338 643 378 603 b 614 715 546 603 603 647 b 500 821 625 782 586 821 b 349 713 419 821 361 781 "},"9":{"ha":813,"x_min":0,"x_max":0,"o":"m 732 315 b 324 -18 696 103 543 -18 b 40 106 211 -18 108 31 b 40 139 29 117 31 128 l 136 254 b 171 254 147 267 158 265 b 351 185 217 213 279 185 b 521 332 442 185 504 239 l 533 403 b 367 360 489 376 436 360 b 106 689 189 360 71 506 b 504 1011 140 889 297 1011 b 794 669 719 1011 831 868 l 732 315 m 315 676 b 421 543 301 594 335 543 b 582 671 501 543 567 586 l 583 679 b 475 815 599 768 557 815 b 315 676 390 815 331 763 "},"Á":{"ha":875,"x_min":0,"x_max":0,"o":"m 617 0 b 592 22 603 0 593 7 l 572 185 l 260 185 l 185 18 b 157 0 181 6 169 0 l -33 0 b -50 29 -51 0 -58 11 l 413 975 b 440 993 418 988 428 993 l 643 993 b 669 971 657 993 667 986 l 813 25 b 790 0 815 10 807 0 m 507 751 b 347 382 468 660 408 515 l 550 382 b 513 751 536 519 521 663 m 474 1074 b 460 1104 453 1074 447 1088 l 619 1286 b 649 1300 628 1296 638 1300 l 804 1300 b 817 1269 825 1300 832 1285 l 619 1085 b 592 1074 611 1078 603 1074 "},"Ă":{"ha":875,"x_min":0,"x_max":0,"o":"m 617 0 b 592 22 603 0 593 7 l 572 185 l 260 185 l 185 18 b 157 0 181 6 169 0 l -33 0 b -50 29 -51 0 -58 11 l 413 975 b 440 993 418 988 428 993 l 643 993 b 669 971 657 993 667 986 l 813 25 b 790 0 815 10 807 0 m 507 751 b 347 382 468 660 408 515 l 550 382 b 513 751 536 519 521 663 m 818 1247 b 544 1061 783 1128 703 1061 b 336 1246 422 1061 340 1143 b 357 1272 335 1260 343 1268 l 474 1299 b 500 1278 489 1303 496 1293 b 571 1222 504 1242 526 1222 b 667 1282 618 1222 649 1243 b 696 1299 674 1296 682 1303 l 800 1272 b 818 1247 815 1269 824 1260 "},"Â":{"ha":875,"x_min":0,"x_max":0,"o":"m 617 0 b 592 22 603 0 593 7 l 572 185 l 260 185 l 185 18 b 157 0 181 6 169 0 l -33 0 b -50 29 -51 0 -58 11 l 413 975 b 440 993 418 988 428 993 l 643 993 b 669 971 657 993 667 986 l 813 25 b 790 0 815 10 807 0 m 507 751 b 347 382 468 660 408 515 l 550 382 b 513 751 536 519 521 663 m 326 1065 b 314 1096 306 1065 300 1081 l 500 1279 b 529 1292 508 1288 517 1292 l 658 1292 b 688 1276 671 1292 681 1288 l 806 1094 b 790 1065 815 1078 808 1065 l 651 1065 b 622 1082 638 1065 629 1069 l 574 1171 l 492 1079 b 463 1065 483 1071 474 1065 "},"Ä":{"ha":875,"x_min":0,"x_max":0,"o":"m 618 0 b 593 22 604 0 594 7 l 574 185 l 261 185 l 186 18 b 158 0 182 6 171 0 l -32 0 b -49 29 -50 0 -57 11 l 414 975 b 442 993 419 988 429 993 l 644 993 b 671 971 658 993 668 986 l 814 25 b 792 0 817 10 808 0 m 508 751 b 349 382 469 660 410 515 l 551 382 b 514 751 538 519 522 663 m 524 1164 b 407 1063 513 1103 467 1063 b 322 1167 343 1063 314 1113 b 439 1268 332 1226 379 1268 b 524 1164 501 1268 533 1219 m 818 1164 b 701 1063 808 1103 763 1063 b 617 1167 635 1063 607 1113 b 733 1268 626 1228 672 1268 b 818 1164 796 1268 826 1221 "},"À":{"ha":875,"x_min":0,"x_max":0,"o":"m 617 0 b 592 22 603 0 593 7 l 572 185 l 260 185 l 185 18 b 157 0 181 6 169 0 l -33 0 b -50 29 -51 0 -58 11 l 413 975 b 440 993 418 988 428 993 l 643 993 b 669 971 657 993 667 986 l 813 25 b 790 0 815 10 807 0 m 507 751 b 347 382 468 660 408 515 l 550 382 b 513 751 536 519 521 663 m 507 1074 b 478 1088 494 1074 485 1078 l 349 1271 b 363 1300 336 1288 343 1300 l 510 1300 b 539 1283 524 1300 533 1294 l 638 1103 b 621 1074 646 1086 639 1074 "},"Ā":{"ha":875,"x_min":0,"x_max":0,"o":"m 617 0 b 592 22 603 0 593 7 l 572 185 l 260 185 l 185 18 b 157 0 181 6 169 0 l -33 0 b -50 29 -51 0 -58 11 l 413 975 b 440 993 418 988 428 993 l 643 993 b 669 971 657 993 667 986 l 813 25 b 790 0 815 10 807 0 m 507 751 b 347 382 468 660 408 515 l 550 382 b 513 751 536 519 521 663 m 354 1092 b 333 1118 339 1092 329 1103 l 353 1221 b 378 1243 356 1236 364 1243 l 772 1243 b 793 1217 788 1243 796 1232 l 774 1114 b 749 1092 772 1100 764 1092 "},"Ą":{"ha":876,"x_min":0,"x_max":0,"o":"m 785 -246 b 642 -283 740 -269 690 -283 b 508 -146 547 -283 494 -233 b 642 0 517 -96 564 -35 l 617 0 b 592 22 603 0 593 7 l 572 185 l 260 185 l 185 18 b 157 0 181 6 169 0 l -32 0 b -50 29 -50 0 -57 11 l 414 975 b 442 993 419 988 428 993 l 643 993 b 669 971 658 993 667 986 l 814 25 b 774 0 817 3 803 0 b 668 -94 717 -22 674 -62 b 711 -131 664 -121 681 -131 b 764 -122 729 -131 747 -126 b 793 -139 781 -117 792 -122 l 800 -217 b 785 -246 801 -232 796 -240 m 507 751 b 347 382 468 660 408 515 l 550 382 b 513 751 536 519 521 663 l 507 751 "},"Å":{"ha":875,"x_min":0,"x_max":0,"o":"m 617 0 b 592 22 603 0 593 7 l 572 185 l 260 185 l 185 18 b 157 0 181 6 169 0 l -33 0 b -50 29 -51 0 -58 11 l 413 975 b 440 993 418 988 428 993 l 643 993 b 669 971 657 993 667 986 l 813 25 b 790 0 815 10 807 0 m 507 751 b 347 382 468 660 408 515 l 550 382 b 513 751 536 519 521 663 m 768 1204 b 551 1049 749 1106 671 1049 b 397 1219 450 1049 378 1124 b 615 1374 417 1315 493 1374 b 768 1204 714 1374 786 1297 m 517 1211 b 572 1153 510 1174 529 1153 b 647 1211 611 1153 640 1175 b 593 1268 654 1247 633 1268 b 517 1211 554 1268 524 1247 "},"Ã":{"ha":875,"x_min":0,"x_max":0,"o":"m 617 0 b 592 22 603 0 593 7 l 572 185 l 260 185 l 185 18 b 157 0 181 6 169 0 l -33 0 b -50 29 -51 0 -58 11 l 413 975 b 440 993 418 988 428 993 l 643 993 b 669 971 657 993 667 986 l 813 25 b 790 0 815 10 807 0 m 507 751 b 347 382 468 660 408 515 l 550 382 b 513 751 536 519 521 663 m 808 1185 b 646 1061 778 1129 717 1061 b 542 1093 610 1061 574 1079 b 469 1115 515 1104 489 1115 b 417 1085 451 1115 433 1106 b 383 1078 407 1074 396 1071 l 314 1122 b 304 1154 301 1129 296 1142 b 467 1275 333 1208 393 1275 b 569 1244 504 1275 539 1258 b 642 1221 599 1232 624 1221 b 694 1251 661 1221 678 1232 b 728 1258 704 1263 715 1265 l 799 1214 b 808 1185 811 1207 815 1196 "},"Æ":{"ha":1226,"x_min":0,"x_max":0,"o":"m 1229 818 b 1204 796 1226 804 1218 796 l 846 796 l 811 599 l 1124 599 b 1144 572 1139 599 1147 588 l 1121 428 b 1096 406 1118 413 1110 406 l 779 406 l 743 197 l 1117 197 b 1139 171 1133 197 1142 188 l 1111 22 b 1086 0 1110 7 1100 0 l 514 0 b 492 26 497 0 489 10 l 522 192 l 288 192 l 183 17 b 154 0 176 6 167 0 l -44 0 b -60 29 -62 0 -69 13 l 535 978 b 564 993 542 989 551 993 l 1233 993 b 1256 967 1250 993 1258 982 m 557 389 l 625 768 l 619 768 l 400 389 "},"B":{"ha":865,"x_min":0,"x_max":0,"o":"m 61 0 b 39 26 44 0 36 11 l 206 971 b 231 993 208 985 217 993 l 572 993 b 836 706 767 993 864 868 b 710 525 822 625 778 560 b 806 299 788 485 824 406 b 411 0 774 107 646 0 m 288 196 l 435 196 b 585 319 513 196 571 236 b 479 426 594 385 565 426 l 328 426 m 361 606 l 489 606 b 615 708 560 606 604 643 b 524 803 626 767 601 803 l 396 803 "},"C":{"ha":792,"x_min":0,"x_max":0,"o":"m 725 71 b 394 -18 639 19 532 -18 b 72 379 165 -18 29 129 l 121 661 b 557 1011 161 893 332 1011 b 831 917 665 1011 763 974 b 833 883 843 908 843 896 l 732 764 b 699 760 724 753 713 751 b 538 810 654 790 597 810 b 343 639 426 810 360 742 l 294 358 b 435 185 276 246 326 185 b 631 246 499 185 572 207 b 664 236 644 254 656 251 l 729 100 b 725 71 736 85 735 76 "},"Ć":{"ha":792,"x_min":0,"x_max":0,"o":"m 725 71 b 394 -18 639 19 532 -18 b 72 379 165 -18 29 129 l 121 661 b 557 1011 161 893 332 1011 b 831 917 665 1011 763 974 b 833 883 843 908 843 896 l 732 764 b 699 760 724 753 713 751 b 538 810 654 790 597 810 b 343 639 426 810 360 742 l 294 358 b 435 185 276 246 326 185 b 631 246 499 185 572 207 b 664 236 644 254 656 251 l 729 100 b 725 71 736 85 735 76 m 476 1088 b 463 1118 456 1088 450 1101 l 622 1300 b 651 1314 631 1310 640 1314 l 807 1314 b 819 1283 828 1314 835 1299 l 622 1099 b 594 1088 614 1092 606 1088 "},"Č":{"ha":792,"x_min":0,"x_max":0,"o":"m 725 71 b 394 -18 639 19 532 -18 b 72 379 165 -18 29 129 l 121 661 b 557 1011 161 893 332 1011 b 831 917 665 1011 763 974 b 833 883 843 908 843 896 l 732 764 b 699 760 724 753 713 751 b 538 810 654 790 597 810 b 343 639 426 810 360 742 l 294 358 b 435 185 276 246 326 185 b 631 246 499 185 572 207 b 664 236 644 254 656 251 l 729 100 b 725 71 736 85 735 76 m 826 1311 b 839 1281 847 1311 853 1296 l 653 1097 b 624 1085 644 1089 636 1085 l 494 1085 b 465 1100 482 1085 472 1089 l 347 1282 b 363 1311 338 1299 344 1311 l 501 1311 b 531 1294 515 1311 524 1307 l 579 1206 l 661 1297 b 690 1311 669 1306 679 1311 "},"Ç":{"ha":792,"x_min":0,"x_max":0,"o":"m 724 71 b 431 -17 646 24 550 -11 l 400 -72 b 500 -182 471 -79 507 -124 b 301 -304 490 -268 415 -304 b 222 -293 271 -304 246 -301 b 206 -265 210 -290 204 -279 l 213 -217 b 242 -201 215 -200 225 -197 b 281 -206 254 -204 268 -206 b 356 -165 322 -206 349 -193 b 308 -128 360 -146 349 -132 b 279 -110 294 -126 285 -121 b 288 -90 278 -107 281 -101 l 328 -14 b 71 379 139 11 32 153 l 119 661 b 556 1011 160 893 331 1011 b 829 917 664 1011 761 974 b 832 883 842 908 842 896 l 731 764 b 697 760 722 753 711 751 b 536 810 653 790 596 810 b 342 639 425 810 358 742 l 293 358 b 433 185 275 246 325 185 b 629 246 497 185 571 207 b 663 236 643 254 654 251 l 728 100 b 724 71 735 85 733 76 "},"Ċ":{"ha":792,"x_min":0,"x_max":0,"o":"m 725 71 b 394 -18 639 19 532 -18 b 72 379 165 -18 29 129 l 121 661 b 557 1011 161 893 332 1011 b 831 917 665 1011 763 974 b 833 883 843 908 843 896 l 732 764 b 699 760 724 753 713 751 b 538 810 654 790 597 810 b 343 639 426 810 360 742 l 294 358 b 435 185 276 246 326 185 b 631 246 499 185 572 207 b 664 236 644 254 656 251 l 729 100 b 725 71 736 85 735 76 m 696 1188 b 563 1083 685 1129 639 1083 b 463 1203 490 1083 451 1139 b 592 1311 472 1265 525 1311 b 696 1188 668 1311 708 1256 "},"D":{"ha":899,"x_min":0,"x_max":0,"o":"m 60 0 b 39 26 44 0 36 11 l 206 971 b 231 993 207 985 217 993 l 557 993 b 871 596 760 993 918 871 l 831 367 b 392 0 783 93 625 0 m 289 201 l 426 201 b 607 376 524 201 585 253 l 650 624 b 532 792 671 743 631 792 l 393 792 "},"Ð":{"ha":919,"x_min":0,"x_max":0,"o":"m 578 993 b 890 596 779 993 939 871 l 851 367 b 411 0 804 93 646 0 l 79 0 b 58 26 64 0 56 11 l 131 440 l 47 440 b 26 465 32 440 24 450 l 42 551 b 68 572 44 565 53 572 l 153 572 l 225 971 b 250 993 226 985 235 993 m 669 624 b 553 792 690 743 650 792 l 413 792 l 374 572 l 500 572 b 521 546 515 572 524 563 l 506 461 b 481 440 504 446 494 440 l 351 440 l 308 201 l 447 201 b 626 376 544 201 604 253 "},"Ď":{"ha":899,"x_min":0,"x_max":0,"o":"m 60 0 b 39 26 44 0 36 11 l 206 971 b 231 993 207 985 217 993 l 557 993 b 871 596 760 993 918 871 l 831 367 b 392 0 783 93 625 0 m 289 201 l 426 201 b 607 376 524 201 585 253 l 650 624 b 532 792 671 743 631 792 l 393 792 m 800 1288 b 813 1257 821 1288 826 1272 l 626 1074 b 597 1061 618 1065 610 1061 l 468 1061 b 439 1076 456 1061 446 1065 l 321 1258 b 336 1288 311 1275 318 1288 l 475 1288 b 504 1271 489 1288 497 1283 l 553 1182 l 635 1274 b 664 1288 643 1282 653 1288 "},"Đ":{"ha":919,"x_min":0,"x_max":0,"o":"m 578 993 b 890 596 779 993 939 871 l 851 367 b 411 0 804 93 646 0 l 79 0 b 58 26 64 0 56 11 l 131 440 l 47 440 b 26 465 32 440 24 450 l 42 551 b 68 572 44 565 53 572 l 153 572 l 225 971 b 250 993 226 985 235 993 m 669 624 b 553 792 690 743 650 792 l 413 792 l 374 572 l 500 572 b 521 546 515 572 524 563 l 506 461 b 481 440 504 446 494 440 l 351 440 l 308 201 l 447 201 b 626 376 544 201 604 253 "},"E":{"ha":794,"x_min":0,"x_max":0,"o":"m 799 817 b 774 794 796 803 788 794 l 396 794 l 361 601 l 692 601 b 713 575 707 601 715 592 l 686 429 b 661 407 683 415 675 407 l 326 407 l 290 200 l 683 200 b 706 174 699 200 707 189 l 681 22 b 654 0 678 7 669 0 l 61 0 b 39 26 44 0 38 11 l 207 971 b 232 993 210 985 218 993 l 803 993 b 825 967 819 993 828 982 "},"É":{"ha":794,"x_min":0,"x_max":0,"o":"m 799 817 b 774 794 796 803 788 794 l 396 794 l 361 601 l 692 601 b 713 575 707 601 715 592 l 686 429 b 661 407 683 415 675 407 l 326 407 l 290 200 l 683 200 b 706 174 699 200 707 189 l 681 22 b 654 0 678 7 669 0 l 61 0 b 39 26 44 0 38 11 l 207 971 b 232 993 210 985 218 993 l 803 993 b 825 967 819 993 828 982 m 449 1060 b 435 1090 428 1060 422 1074 l 594 1272 b 624 1286 603 1282 613 1286 l 779 1286 b 792 1256 800 1286 807 1271 l 594 1071 b 567 1060 586 1064 578 1060 "},"Ě":{"ha":794,"x_min":0,"x_max":0,"o":"m 799 817 b 774 794 796 803 788 794 l 396 794 l 361 601 l 692 601 b 713 575 707 601 715 592 l 686 429 b 661 407 683 415 675 407 l 326 407 l 290 200 l 683 200 b 706 174 699 200 707 189 l 681 22 b 654 0 678 7 669 0 l 61 0 b 39 26 44 0 38 11 l 207 971 b 232 993 210 985 218 993 l 803 993 b 825 967 819 993 828 982 m 801 1289 b 814 1258 822 1289 828 1274 l 628 1075 b 599 1063 619 1067 611 1063 l 469 1063 b 440 1078 457 1063 447 1067 l 322 1260 b 338 1289 313 1276 319 1289 l 476 1289 b 506 1272 490 1289 499 1285 l 554 1183 l 636 1275 b 665 1289 644 1283 654 1289 "},"Ê":{"ha":794,"x_min":0,"x_max":0,"o":"m 799 817 b 774 794 796 803 788 794 l 396 794 l 361 601 l 692 601 b 713 575 707 601 715 592 l 686 429 b 661 407 683 415 675 407 l 326 407 l 290 200 l 683 200 b 706 174 699 200 707 189 l 681 22 b 654 0 678 7 669 0 l 61 0 b 39 26 44 0 38 11 l 207 971 b 232 993 210 985 218 993 l 803 993 b 825 967 819 993 828 982 m 299 1068 b 286 1099 278 1068 272 1083 l 472 1282 b 501 1294 481 1290 489 1294 l 631 1294 b 660 1279 643 1294 653 1290 l 778 1097 b 763 1068 788 1081 781 1068 l 624 1068 b 594 1085 610 1068 601 1072 l 546 1174 l 464 1082 b 435 1068 456 1074 446 1068 "},"Ë":{"ha":794,"x_min":0,"x_max":0,"o":"m 799 817 b 774 794 796 803 788 794 l 396 794 l 361 601 l 692 601 b 713 575 707 601 715 592 l 686 429 b 661 407 683 415 675 407 l 326 407 l 290 200 l 683 200 b 706 174 699 200 707 189 l 681 22 b 654 0 678 7 669 0 l 61 0 b 39 26 44 0 38 11 l 207 971 b 232 993 210 985 218 993 l 803 993 b 825 967 819 993 828 982 m 506 1164 b 389 1063 494 1103 449 1063 b 304 1167 325 1063 296 1113 b 421 1268 314 1226 361 1268 b 506 1164 483 1268 515 1219 m 800 1164 b 683 1063 790 1103 744 1063 b 599 1167 617 1063 589 1113 b 715 1268 608 1228 654 1268 b 800 1164 778 1268 808 1221 "},"Ė":{"ha":794,"x_min":0,"x_max":0,"o":"m 799 817 b 774 794 796 803 788 794 l 396 794 l 361 601 l 692 601 b 713 575 707 601 715 592 l 686 429 b 661 407 683 415 675 407 l 326 407 l 290 200 l 683 200 b 706 174 699 200 707 189 l 681 22 b 654 0 678 7 669 0 l 61 0 b 39 26 44 0 38 11 l 207 971 b 232 993 210 985 218 993 l 803 993 b 825 967 819 993 828 982 m 661 1174 b 528 1069 650 1115 604 1069 b 428 1189 456 1069 417 1125 b 557 1297 438 1251 490 1297 b 661 1174 633 1297 674 1242 "},"È":{"ha":794,"x_min":0,"x_max":0,"o":"m 799 817 b 774 794 796 803 788 794 l 396 794 l 361 601 l 692 601 b 713 575 707 601 715 592 l 686 429 b 661 407 683 415 675 407 l 326 407 l 290 200 l 683 200 b 706 174 699 200 707 189 l 681 22 b 654 0 678 7 669 0 l 61 0 b 39 26 44 0 38 11 l 207 971 b 232 993 210 985 218 993 l 803 993 b 825 967 819 993 828 982 m 492 1074 b 463 1088 479 1074 469 1078 l 333 1271 b 347 1300 321 1288 328 1300 l 494 1300 b 524 1283 508 1300 518 1294 l 622 1103 b 606 1074 631 1086 624 1074 "},"Ē":{"ha":794,"x_min":0,"x_max":0,"o":"m 799 817 b 774 794 796 803 788 794 l 396 794 l 361 601 l 692 601 b 713 575 707 601 715 592 l 686 429 b 661 407 683 415 675 407 l 326 407 l 290 200 l 683 200 b 706 174 699 200 707 189 l 681 22 b 654 0 678 7 669 0 l 61 0 b 39 26 44 0 38 11 l 207 971 b 232 993 210 985 218 993 l 803 993 b 825 967 819 993 828 982 m 336 1092 b 315 1118 321 1092 311 1103 l 335 1221 b 360 1243 338 1236 346 1243 l 754 1243 b 775 1217 769 1243 778 1232 l 756 1114 b 731 1092 754 1100 746 1092 "},"Ę":{"ha":794,"x_min":0,"x_max":0,"o":"m 799 817 b 774 794 796 803 788 794 l 396 794 l 361 601 l 692 601 b 713 575 707 601 715 592 l 686 429 b 661 407 683 415 675 407 l 326 407 l 290 200 l 683 200 b 706 174 700 200 707 189 l 681 19 b 658 -7 678 6 671 -1 b 560 -96 604 -31 565 -67 b 603 -132 558 -122 575 -132 b 653 -124 619 -132 638 -129 b 681 -140 669 -118 679 -124 l 689 -219 b 674 -249 690 -232 686 -242 b 529 -282 633 -271 579 -282 b 397 -149 436 -282 383 -232 b 543 0 407 -89 457 -35 l 61 0 b 39 26 44 0 38 11 l 206 971 b 232 993 208 985 217 993 l 804 993 b 825 967 819 993 828 982 "},"F":{"ha":764,"x_min":0,"x_max":0,"o":"m 803 815 b 778 793 801 800 793 793 l 397 793 l 357 568 l 681 568 b 703 542 697 568 704 558 l 675 390 b 650 368 672 376 664 368 l 321 368 l 258 22 b 233 0 257 8 249 0 l 61 0 b 39 26 44 0 36 11 l 207 971 b 232 993 208 985 218 993 l 807 993 b 829 967 824 993 832 982 "},"G":{"ha":874,"x_min":0,"x_max":0,"o":"m 756 115 b 383 -17 664 35 524 -17 b 71 365 164 -17 33 147 l 121 663 b 554 1011 160 889 333 1011 b 865 911 678 1011 788 972 b 868 876 878 900 876 888 l 761 756 b 728 750 751 743 740 743 b 532 810 678 786 613 810 b 343 642 431 810 360 747 l 293 350 b 417 186 278 257 321 186 b 572 224 475 188 532 201 l 604 397 l 457 397 b 436 424 442 397 433 408 l 460 556 b 485 578 461 569 471 578 l 821 578 b 842 551 836 578 844 567 l 769 142 b 756 115 767 131 764 122 "},"Ğ":{"ha":874,"x_min":0,"x_max":0,"o":"m 756 115 b 383 -17 664 35 524 -17 b 71 365 164 -17 33 147 l 121 663 b 554 1011 160 889 333 1011 b 865 911 678 1011 788 972 b 868 876 878 900 876 888 l 761 756 b 728 750 751 743 740 743 b 532 810 678 786 613 810 b 343 642 431 810 360 747 l 293 350 b 417 186 278 257 321 186 b 572 224 475 188 532 201 l 604 397 l 457 397 b 436 424 442 397 433 408 l 460 556 b 485 578 461 569 471 578 l 821 578 b 842 551 836 578 844 567 l 769 142 b 756 115 767 131 764 122 m 822 1263 b 549 1076 788 1143 707 1076 b 340 1261 426 1076 344 1158 b 361 1288 339 1275 347 1283 l 478 1314 b 504 1293 493 1318 500 1308 b 575 1238 508 1257 531 1238 b 671 1297 622 1238 653 1258 b 700 1314 678 1311 686 1318 l 804 1288 b 822 1263 819 1285 828 1275 "},"Ģ":{"ha":874,"x_min":0,"x_max":0,"o":"m 756 115 b 383 -17 664 35 524 -17 b 71 365 164 -17 33 147 l 121 663 b 554 1011 160 889 333 1011 b 865 911 678 1011 788 972 b 868 876 878 900 876 888 l 761 756 b 728 750 751 743 740 743 b 532 810 678 786 613 810 b 343 642 431 810 360 747 l 293 350 b 417 186 278 257 321 186 b 572 224 475 188 532 201 l 604 397 l 457 397 b 436 424 442 397 433 408 l 460 556 b 485 578 461 569 471 578 l 821 578 b 842 551 836 578 844 567 l 769 142 b 756 115 767 131 764 122 m 215 -340 b 193 -317 196 -340 186 -331 l 299 -100 b 329 -82 303 -87 314 -82 l 481 -82 b 499 -107 500 -82 510 -92 l 361 -325 b 328 -340 353 -336 343 -340 "},"Ġ":{"ha":874,"x_min":0,"x_max":0,"o":"m 756 115 b 383 -17 664 35 524 -17 b 71 365 164 -17 33 147 l 121 663 b 554 1011 160 889 333 1011 b 865 911 678 1011 788 972 b 868 876 878 900 876 888 l 761 756 b 728 750 751 743 740 743 b 532 810 678 786 613 810 b 343 642 431 810 360 747 l 293 350 b 417 186 278 257 321 186 b 572 224 475 188 532 201 l 604 397 l 457 397 b 436 424 442 397 433 408 l 460 556 b 485 578 461 569 471 578 l 821 578 b 842 551 836 578 844 567 l 769 142 b 756 115 767 131 764 122 m 690 1190 b 557 1086 679 1132 633 1086 b 457 1206 485 1086 446 1142 b 586 1314 467 1268 519 1314 b 690 1190 663 1314 703 1258 "},"H":{"ha":924,"x_min":0,"x_max":0,"o":"m 713 971 b 738 993 714 985 724 993 l 910 993 b 932 967 925 993 933 982 l 764 22 b 739 0 763 8 754 0 l 567 0 b 546 26 551 0 543 11 l 613 401 l 325 401 l 258 22 b 232 0 256 8 247 0 l 61 0 b 39 26 44 0 36 11 l 206 971 b 231 993 208 985 217 993 l 403 993 b 425 967 419 993 426 982 l 361 603 l 647 603 "},"Ħ":{"ha":961,"x_min":0,"x_max":0,"o":"m 1007 875 b 1029 849 1024 875 1032 865 l 1013 764 b 988 742 1011 750 1003 742 l 911 742 l 783 22 b 758 0 782 8 774 0 l 586 0 b 565 26 571 0 563 11 l 632 401 l 344 401 l 278 22 b 251 0 275 8 267 0 l 81 0 b 58 26 64 0 56 11 l 185 742 l 92 742 b 71 768 75 742 68 751 l 86 853 b 111 875 89 868 97 875 l 208 875 l 225 971 b 251 993 228 985 236 993 l 422 993 b 444 967 439 993 447 982 l 428 875 l 715 875 l 732 971 b 757 993 735 985 743 993 l 929 993 b 951 967 944 993 953 982 l 935 875 m 667 603 l 690 742 l 404 742 l 381 603 "},"I":{"ha":417,"x_min":0,"x_max":0,"o":"m 258 22 b 233 0 256 8 247 0 l 61 0 b 39 26 46 0 38 11 l 206 971 b 232 993 208 985 217 993 l 403 993 b 425 967 419 993 428 982 "},"Ĳ":{"ha":1143,"x_min":0,"x_max":0,"o":"m 258 22 b 233 0 256 8 247 0 l 61 0 b 39 26 46 0 38 11 l 206 971 b 232 993 208 985 217 993 l 403 993 b 425 967 419 993 428 982 m 1043 314 b 656 -17 1006 100 861 -17 b 390 79 544 -17 463 17 b 388 114 379 90 378 101 l 482 236 b 517 240 492 249 503 249 b 675 186 560 206 610 186 b 821 322 753 186 804 232 l 935 971 b 961 993 938 985 946 993 l 1133 993 b 1156 967 1149 993 1157 982 l 1043 314 "},"Í":{"ha":417,"x_min":0,"x_max":0,"o":"m 258 22 b 233 0 256 8 247 0 l 61 0 b 39 26 46 0 38 11 l 206 971 b 232 993 208 985 217 993 l 403 993 b 425 967 419 993 428 982 m 254 1063 b 240 1093 233 1063 228 1076 l 400 1275 b 429 1289 408 1285 418 1289 l 585 1289 b 597 1258 606 1289 613 1274 l 400 1074 b 372 1063 392 1067 383 1063 "},"Î":{"ha":417,"x_min":0,"x_max":0,"o":"m 122 1054 b 110 1085 101 1054 96 1069 l 292 1275 b 321 1288 300 1283 310 1288 l 418 1288 b 446 1271 431 1288 439 1283 l 558 1083 b 543 1054 568 1068 561 1054 l 414 1054 b 385 1072 400 1054 390 1060 l 351 1142 l 285 1068 b 256 1054 276 1058 267 1054 m 258 22 b 233 0 256 8 247 0 l 61 0 b 39 26 44 0 38 11 l 206 971 b 232 993 208 985 217 993 l 403 993 b 425 967 419 993 428 982 "},"Ï":{"ha":417,"x_min":0,"x_max":0,"o":"m 258 22 b 233 0 256 8 247 0 l 61 0 b 39 26 46 0 38 11 l 206 971 b 232 993 208 985 217 993 l 403 993 b 425 967 419 993 428 982 m 315 1164 b 199 1063 304 1103 258 1063 b 114 1167 135 1063 106 1113 b 231 1268 124 1226 171 1268 b 315 1164 293 1268 325 1219 m 593 1164 b 476 1063 585 1103 538 1063 b 392 1167 411 1063 383 1113 b 508 1268 403 1228 449 1268 b 593 1164 572 1268 603 1221 "},"İ":{"ha":417,"x_min":0,"x_max":0,"o":"m 258 22 b 233 0 256 8 247 0 l 61 0 b 39 26 46 0 38 11 l 206 971 b 232 993 208 985 217 993 l 403 993 b 425 967 419 993 428 982 m 475 1201 b 342 1097 464 1143 418 1097 b 242 1217 269 1097 231 1153 b 371 1325 251 1279 304 1325 b 475 1201 447 1325 488 1269 "},"Ì":{"ha":417,"x_min":0,"x_max":0,"o":"m 258 22 b 233 0 256 8 247 0 l 61 0 b 39 26 46 0 38 11 l 206 971 b 232 993 208 985 217 993 l 403 993 b 425 967 419 993 428 982 m 300 1061 b 271 1075 288 1061 278 1065 l 142 1258 b 156 1288 129 1275 136 1288 l 303 1288 b 332 1271 317 1288 326 1282 l 431 1090 b 414 1061 439 1074 432 1061 "},"Ī":{"ha":419,"x_min":0,"x_max":0,"o":"m 171 1090 b 150 1117 156 1090 147 1101 l 168 1219 b 193 1242 171 1235 179 1242 l 524 1242 b 546 1215 540 1242 547 1231 l 526 1113 b 501 1090 525 1097 515 1090 m 60 0 b 39 26 44 0 36 11 l 206 971 b 231 993 208 985 217 993 l 406 993 b 428 967 421 993 429 982 l 260 22 b 235 0 258 8 250 0 "},"Į":{"ha":422,"x_min":0,"x_max":0,"o":"m 231 -246 b 88 -281 185 -268 136 -281 b -47 -146 -8 -281 -61 -231 b 85 0 -39 -90 10 -33 l 61 0 b 39 26 44 0 36 11 l 206 971 b 231 993 207 985 215 993 l 408 993 b 431 967 425 993 432 982 l 264 22 b 217 -1 261 -1 244 -1 b 115 -94 163 -25 121 -62 b 157 -131 111 -121 128 -131 b 210 -122 175 -131 193 -126 b 239 -139 226 -117 238 -122 l 246 -217 b 231 -246 247 -232 243 -240 "},"J":{"ha":721,"x_min":0,"x_max":0,"o":"m 621 314 b 233 -17 583 100 439 -17 b -32 79 122 -17 40 17 b -35 114 -43 90 -44 101 l 60 236 b 94 240 69 249 81 249 b 253 186 138 206 188 186 b 399 322 331 186 382 232 l 513 971 b 539 993 515 985 524 993 l 711 993 b 733 967 726 993 735 982 l 621 314 "},"K":{"ha":871,"x_min":0,"x_max":0,"o":"m 931 993 b 944 963 951 993 958 979 l 551 546 l 817 29 b 799 0 825 13 817 0 l 603 0 b 575 18 590 0 579 6 l 393 393 l 310 313 l 258 22 b 232 0 256 8 247 0 l 61 0 b 39 26 44 0 36 11 l 206 971 b 232 993 208 985 217 993 l 403 993 b 425 967 419 993 428 983 l 364 622 l 678 979 b 707 993 685 988 696 993 "},"Ķ":{"ha":871,"x_min":0,"x_max":0,"o":"m 931 993 b 944 963 951 993 958 979 l 551 546 l 817 29 b 799 0 825 13 817 0 l 603 0 b 575 18 590 0 579 6 l 393 393 l 310 313 l 258 22 b 232 0 256 8 247 0 l 61 0 b 39 26 44 0 36 11 l 206 971 b 232 993 208 985 217 993 l 403 993 b 425 967 419 993 428 983 l 364 622 l 678 979 b 707 993 685 988 696 993 m 229 -333 b 207 -310 210 -333 200 -324 l 313 -89 b 344 -71 318 -76 329 -71 l 497 -71 b 515 -96 517 -71 526 -82 l 376 -318 b 343 -333 368 -329 358 -333 "},"L":{"ha":711,"x_min":0,"x_max":0,"o":"m 290 201 l 643 201 b 665 175 660 201 668 190 l 639 22 b 613 0 636 8 628 0 l 60 0 b 39 26 44 0 36 11 l 206 971 b 231 993 207 985 217 993 l 403 993 b 425 967 419 993 426 982 "},"Ĺ":{"ha":711,"x_min":0,"x_max":0,"o":"m 290 201 l 643 201 b 665 175 660 201 668 190 l 639 22 b 613 0 636 8 628 0 l 60 0 b 39 26 44 0 36 11 l 206 971 b 231 993 207 985 217 993 l 403 993 b 425 967 419 993 426 982 m 249 1063 b 235 1093 228 1063 222 1076 l 394 1275 b 424 1289 403 1285 413 1289 l 579 1289 b 592 1258 600 1289 607 1274 l 394 1074 b 367 1063 386 1067 378 1063 "},"Ľ":{"ha":714,"x_min":0,"x_max":0,"o":"m 60 0 b 39 26 44 0 36 11 l 206 971 b 231 993 207 985 217 993 l 403 993 b 425 967 419 993 426 982 l 290 201 l 643 201 b 665 175 660 201 668 190 l 639 22 b 613 0 636 8 628 0 m 503 704 b 483 732 485 704 476 715 l 574 974 b 601 993 578 986 588 993 l 733 993 b 750 964 751 993 758 981 l 633 721 b 606 704 628 710 618 704 "},"Ļ":{"ha":711,"x_min":0,"x_max":0,"o":"m 290 201 l 643 201 b 665 175 660 201 668 190 l 639 22 b 613 0 636 8 628 0 l 60 0 b 39 26 44 0 36 11 l 206 971 b 231 993 207 985 217 993 l 403 993 b 425 967 419 993 426 982 m 150 -342 b 129 -317 132 -342 122 -332 l 231 -99 b 261 -82 236 -86 246 -82 l 408 -82 b 426 -106 428 -82 438 -92 l 292 -325 b 260 -342 285 -336 275 -342 "},"Ŀ":{"ha":714,"x_min":0,"x_max":0,"o":"m 290 201 l 643 201 b 665 175 660 201 668 190 l 639 22 b 613 0 636 8 628 0 l 60 0 b 39 26 44 0 36 11 l 206 971 b 231 993 207 985 217 993 l 403 993 b 425 967 419 993 426 982 m 663 485 b 531 376 651 422 603 376 b 424 515 456 376 410 438 b 554 624 436 579 485 624 b 663 485 631 624 676 565 "},"Ł":{"ha":743,"x_min":0,"x_max":0,"o":"m 322 201 l 676 201 b 697 175 692 201 700 190 l 671 22 b 646 0 669 8 660 0 l 93 0 b 71 26 76 0 68 11 l 125 338 l 28 279 b 1 299 10 268 -3 278 l 24 432 b 43 460 26 444 32 451 l 160 526 l 238 971 b 264 993 240 985 249 993 l 436 993 b 457 967 451 993 460 983 l 406 672 l 554 760 b 581 742 571 771 585 763 l 558 608 b 539 581 556 596 550 588 l 371 482 "},"M":{"ha":1168,"x_min":0,"x_max":0,"o":"m 61 0 b 39 26 44 0 36 11 l 204 971 b 229 993 207 985 215 993 l 425 993 b 453 972 439 993 449 988 l 522 735 b 592 450 544 649 579 508 l 596 450 b 765 738 628 507 708 649 l 921 978 b 950 993 928 989 936 993 l 1153 993 b 1175 967 1169 993 1178 982 l 1010 22 b 983 0 1007 8 999 0 l 814 0 b 792 26 799 0 790 11 l 822 203 b 910 643 840 311 879 500 l 903 644 b 739 363 869 581 794 453 l 650 224 b 622 207 643 211 635 207 l 496 207 b 468 228 482 207 472 214 l 426 369 b 360 638 404 456 372 575 l 353 638 b 289 207 335 492 308 328 l 257 22 b 231 0 256 7 246 0 "},"N":{"ha":951,"x_min":0,"x_max":0,"o":"m 60 0 b 39 26 44 0 36 11 l 206 971 b 231 993 207 985 217 993 l 414 993 b 442 974 428 993 439 988 l 551 644 b 638 346 583 543 621 410 l 644 347 b 700 732 658 471 679 611 l 742 971 b 767 993 744 985 753 993 l 936 993 b 958 967 953 993 961 982 l 792 22 b 765 0 789 8 781 0 l 583 0 b 556 19 571 0 561 6 l 446 314 b 350 644 407 415 367 564 l 344 642 b 292 231 332 510 315 358 l 256 22 b 231 0 253 8 244 0 "},"Ń":{"ha":951,"x_min":0,"x_max":0,"o":"m 60 0 b 39 26 44 0 36 11 l 206 971 b 231 993 207 985 217 993 l 414 993 b 442 974 428 993 439 988 l 551 644 b 638 346 583 543 621 410 l 644 347 b 700 732 658 471 679 611 l 742 971 b 767 993 744 985 753 993 l 936 993 b 958 967 953 993 961 982 l 792 22 b 765 0 789 8 781 0 l 583 0 b 556 19 571 0 561 6 l 446 314 b 350 644 407 415 367 564 l 344 642 b 292 231 332 510 315 358 l 256 22 b 231 0 253 8 244 0 m 504 1060 b 490 1090 483 1060 478 1074 l 650 1272 b 679 1286 658 1282 668 1286 l 835 1286 b 847 1256 856 1286 863 1271 l 650 1071 b 622 1060 642 1064 633 1060 "},"Ň":{"ha":951,"x_min":0,"x_max":0,"o":"m 60 0 b 39 26 44 0 36 11 l 206 971 b 231 993 207 985 217 993 l 414 993 b 442 974 428 993 439 988 l 551 644 b 638 346 583 543 621 410 l 644 347 b 700 732 658 471 679 611 l 742 971 b 767 993 744 985 753 993 l 936 993 b 958 967 953 993 961 982 l 792 22 b 765 0 789 8 781 0 l 583 0 b 556 19 571 0 561 6 l 446 314 b 350 644 407 415 367 564 l 344 642 b 292 231 332 510 315 358 l 256 22 b 231 0 253 8 244 0 m 850 1286 b 863 1256 871 1286 876 1271 l 676 1072 b 647 1060 668 1064 660 1060 l 518 1060 b 489 1075 506 1060 496 1064 l 371 1257 b 386 1286 361 1274 368 1286 l 525 1286 b 554 1269 539 1286 547 1282 l 603 1181 l 685 1272 b 714 1286 693 1281 703 1286 "},"Ņ":{"ha":951,"x_min":0,"x_max":0,"o":"m 60 0 b 39 26 44 0 36 11 l 206 971 b 231 993 207 985 217 993 l 414 993 b 442 974 428 993 439 988 l 551 644 b 638 346 583 543 621 410 l 644 347 b 700 732 658 471 679 611 l 742 971 b 767 993 744 985 753 993 l 936 993 b 958 967 953 993 961 982 l 792 22 b 765 0 789 8 781 0 l 583 0 b 556 19 571 0 561 6 l 446 314 b 350 644 407 415 367 564 l 344 642 b 292 231 332 510 315 358 l 256 22 b 231 0 253 8 244 0 m 229 -339 b 207 -315 211 -339 201 -329 l 313 -94 b 344 -76 318 -82 329 -76 l 496 -76 b 515 -101 517 -76 526 -87 l 376 -324 b 343 -339 368 -335 358 -339 "},"Ŋ":{"ha":954,"x_min":0,"x_max":0,"o":"m 789 -15 b 503 -286 756 -207 667 -286 b 424 -279 471 -286 444 -283 b 404 -250 408 -276 403 -267 l 426 -117 b 446 -96 428 -101 436 -94 b 469 -97 456 -96 465 -97 b 578 -6 532 -97 564 -67 l 439 350 b 349 643 404 436 368 563 l 342 643 b 294 236 333 510 315 347 l 257 22 b 232 0 254 8 246 0 l 61 0 b 39 26 44 0 36 11 l 206 971 b 231 993 207 985 217 993 l 414 993 b 440 974 426 993 438 988 l 568 593 b 644 333 597 506 629 400 l 651 333 b 704 733 663 468 682 621 l 746 971 b 771 993 749 985 757 993 l 940 993 b 963 967 957 993 965 982 l 789 -15 "},"Ñ":{"ha":951,"x_min":0,"x_max":0,"o":"m 60 0 b 39 26 44 0 36 11 l 206 971 b 231 993 207 985 217 993 l 414 993 b 442 974 428 993 439 988 l 551 644 b 638 346 583 543 621 410 l 644 347 b 700 732 658 471 679 611 l 742 971 b 767 993 744 985 753 993 l 936 993 b 958 967 953 993 961 982 l 792 22 b 765 0 789 8 781 0 l 583 0 b 556 19 571 0 561 6 l 446 314 b 350 644 407 415 367 564 l 344 642 b 292 231 332 510 315 358 l 256 22 b 231 0 253 8 244 0 m 864 1193 b 701 1069 833 1138 772 1069 b 597 1101 665 1069 629 1088 b 525 1124 571 1113 544 1124 b 472 1093 507 1124 489 1114 b 439 1086 463 1082 451 1079 l 369 1131 b 360 1163 357 1138 351 1150 b 522 1283 389 1217 449 1283 b 625 1253 560 1283 594 1267 b 697 1229 654 1240 679 1229 b 750 1260 717 1229 733 1240 b 783 1267 760 1271 771 1274 l 854 1222 b 864 1193 867 1215 871 1204 "},"O":{"ha":911,"x_min":0,"x_max":0,"o":"m 843 354 b 389 -18 803 117 639 -18 b 74 401 151 -18 31 154 l 117 647 b 565 1011 157 875 322 1011 b 886 600 803 1011 928 850 l 843 354 m 294 376 b 421 185 275 263 318 185 b 619 367 531 185 600 254 l 664 621 b 536 808 683 732 642 808 b 340 628 426 808 361 742 l 294 376 "},"Ó":{"ha":911,"x_min":0,"x_max":0,"o":"m 843 354 b 389 -18 803 117 639 -18 b 74 401 151 -18 31 154 l 117 647 b 565 1011 157 875 322 1011 b 886 600 803 1011 928 850 l 843 354 m 294 376 b 421 185 275 263 318 185 b 619 367 531 185 600 254 l 664 621 b 536 808 683 732 642 808 b 340 628 426 808 361 742 l 294 376 m 497 1075 b 483 1106 476 1075 471 1089 l 643 1288 b 672 1301 651 1297 661 1301 l 828 1301 b 840 1271 849 1301 856 1286 l 643 1086 b 615 1075 635 1079 626 1075 "},"Ô":{"ha":911,"x_min":0,"x_max":0,"o":"m 843 354 b 389 -18 803 117 639 -18 b 74 401 151 -18 31 154 l 117 647 b 565 1011 157 875 322 1011 b 886 600 803 1011 928 850 l 843 354 m 294 376 b 421 185 275 263 318 185 b 619 367 531 185 600 254 l 664 621 b 536 808 683 732 642 808 b 340 628 426 808 361 742 l 294 376 m 350 1063 b 338 1093 329 1063 324 1078 l 524 1276 b 553 1289 532 1285 540 1289 l 682 1289 b 711 1274 694 1289 704 1285 l 829 1092 b 814 1063 839 1075 832 1063 l 675 1063 b 646 1079 661 1063 653 1067 l 597 1168 l 515 1076 b 486 1063 507 1068 497 1063 "},"Ö":{"ha":911,"x_min":0,"x_max":0,"o":"m 843 354 b 389 -18 803 117 639 -18 b 74 401 151 -18 31 154 l 117 647 b 565 1011 157 875 322 1011 b 886 600 803 1011 928 850 l 843 354 m 294 376 b 421 185 275 263 318 185 b 619 367 531 185 600 254 l 664 621 b 536 808 683 732 642 808 b 340 628 426 808 361 742 l 294 376 m 550 1176 b 433 1075 539 1115 493 1075 b 349 1179 369 1075 340 1125 b 465 1281 358 1239 406 1281 b 550 1176 528 1281 560 1232 m 844 1176 b 728 1075 835 1115 789 1075 b 643 1179 661 1075 633 1125 b 760 1281 653 1240 699 1281 b 844 1176 822 1281 853 1233 "},"Ò":{"ha":911,"x_min":0,"x_max":0,"o":"m 843 354 b 389 -18 803 117 639 -18 b 74 401 151 -18 31 154 l 117 647 b 565 1011 157 875 322 1011 b 886 600 803 1011 928 850 l 843 354 m 294 376 b 421 185 275 263 318 185 b 619 367 531 185 600 254 l 664 621 b 536 808 683 732 642 808 b 340 628 426 808 361 742 l 294 376 m 547 1074 b 518 1088 535 1074 525 1078 l 389 1271 b 403 1300 376 1288 383 1300 l 550 1300 b 579 1283 564 1300 574 1294 l 678 1103 b 661 1074 686 1086 679 1074 "},"Ő":{"ha":911,"x_min":0,"x_max":0,"o":"m 843 354 b 389 -18 803 117 639 -18 b 74 401 151 -18 31 154 l 117 647 b 565 1011 157 875 322 1011 b 886 600 803 1011 928 850 l 843 354 m 294 376 b 421 185 275 263 318 185 b 619 367 531 185 600 254 l 664 621 b 536 808 683 732 642 808 b 340 628 426 808 361 742 l 294 376 m 344 1074 b 331 1103 324 1074 317 1086 l 488 1286 b 517 1300 494 1296 504 1300 l 665 1300 b 678 1269 686 1300 693 1285 l 488 1086 b 458 1074 479 1078 469 1074 m 644 1074 b 631 1104 624 1074 617 1088 l 801 1286 b 832 1300 810 1296 819 1300 l 985 1300 b 996 1269 1007 1300 1013 1285 l 793 1085 b 763 1074 783 1076 775 1074 "},"Ō":{"ha":911,"x_min":0,"x_max":0,"o":"m 843 354 b 389 -18 803 117 639 -18 b 74 401 151 -18 31 154 l 117 647 b 565 1011 157 875 322 1011 b 886 600 803 1011 928 850 l 843 354 m 294 376 b 421 185 275 263 318 185 b 619 367 531 185 600 254 l 664 621 b 536 808 683 732 642 808 b 340 628 426 808 361 742 l 294 376 m 379 1104 b 358 1131 364 1104 354 1115 l 378 1233 b 403 1256 381 1249 389 1256 l 797 1256 b 818 1229 813 1256 821 1244 l 799 1126 b 774 1104 797 1113 789 1104 "},"Ø":{"ha":911,"x_min":0,"x_max":0,"o":"m 843 354 b 389 -18 803 117 639 -18 b 235 11 331 -18 279 -7 l 181 -72 b 151 -89 175 -83 165 -89 l 32 -89 b 18 -60 13 -89 6 -76 l 122 103 b 74 401 71 176 53 279 l 117 647 b 565 1011 157 875 322 1011 b 717 983 622 1011 674 1001 l 764 1054 b 793 1071 769 1065 779 1071 l 913 1071 b 926 1042 932 1071 939 1058 l 831 897 b 886 600 886 826 907 724 l 843 354 m 294 376 b 421 185 275 263 318 185 b 619 367 531 185 600 254 l 664 621 b 536 808 683 732 642 808 b 340 628 426 808 361 742 l 294 376 "},"Õ":{"ha":911,"x_min":0,"x_max":0,"o":"m 843 354 b 389 -18 803 117 639 -18 b 74 401 151 -18 31 154 l 117 647 b 565 1011 157 875 322 1011 b 886 600 803 1011 928 850 l 843 354 m 294 376 b 421 185 275 263 318 185 b 619 367 531 185 600 254 l 664 621 b 536 808 683 732 642 808 b 340 628 426 808 361 742 l 294 376 m 839 1199 b 676 1075 808 1143 747 1075 b 572 1107 640 1075 604 1093 b 500 1129 546 1118 519 1129 b 447 1099 482 1129 464 1119 b 414 1092 438 1088 426 1085 l 344 1136 b 335 1168 332 1143 326 1156 b 497 1289 364 1222 424 1289 b 600 1258 535 1289 569 1272 b 672 1235 629 1246 654 1235 b 725 1265 692 1235 708 1246 b 758 1272 735 1276 746 1279 l 829 1228 b 839 1199 842 1221 846 1210 "},"Œ":{"ha":1289,"x_min":0,"x_max":0,"o":"m 1290 817 b 1264 794 1288 801 1279 794 l 899 794 l 865 601 l 1183 601 b 1206 575 1199 601 1207 590 l 1179 428 b 1154 407 1176 414 1168 407 l 831 407 l 794 201 l 1178 201 b 1199 175 1194 201 1201 192 l 1171 22 b 1146 0 1169 8 1160 0 l 583 0 b 561 26 567 0 558 11 l 565 47 b 360 -18 513 6 442 -18 b 71 397 158 -18 28 150 l 118 654 b 533 1011 158 886 331 1011 b 718 942 608 1011 671 988 l 724 971 b 749 993 726 985 735 993 l 1296 993 b 1318 967 1311 993 1319 983 m 647 639 b 521 804 664 736 617 804 b 339 635 432 806 358 747 l 293 378 b 406 192 274 263 321 192 b 594 328 489 192 579 239 "},"P":{"ha":850,"x_min":0,"x_max":0,"o":"m 546 993 b 861 621 779 993 901 842 b 461 296 825 424 685 296 l 307 296 l 258 22 b 232 0 256 8 247 0 l 60 0 b 39 26 44 0 36 11 l 206 971 b 231 993 207 985 217 993 m 465 494 b 639 639 564 494 624 546 b 515 793 656 740 608 793 l 394 793 l 342 494 l 465 494 "},"Þ":{"ha":863,"x_min":0,"x_max":0,"o":"m 525 854 b 835 488 758 854 872 699 b 438 160 800 288 658 160 l 281 160 l 257 22 b 232 0 254 8 246 0 l 61 0 b 39 26 44 0 38 11 l 206 971 b 231 993 207 985 217 993 l 404 993 b 425 967 419 993 428 982 l 406 854 m 442 360 b 614 508 542 360 599 414 b 492 654 629 603 590 654 l 369 654 l 317 360 l 442 360 "},"Q":{"ha":922,"x_min":0,"x_max":0,"o":"m 699 -101 b 667 -97 686 -112 675 -110 l 583 17 b 390 -17 526 -4 463 -15 b 74 401 150 -18 31 151 l 117 647 b 567 1011 157 875 322 1011 b 889 600 806 1011 932 850 l 847 354 b 753 136 832 267 800 194 l 832 36 b 828 1 840 25 840 13 m 296 376 b 422 188 276 264 319 188 b 621 367 532 188 601 256 l 665 621 b 538 808 685 733 643 808 b 342 628 428 808 363 742 l 296 376 "},"R":{"ha":858,"x_min":0,"x_max":0,"o":"m 61 0 b 39 26 44 0 36 11 l 204 971 b 231 993 207 985 215 993 l 550 993 b 851 636 775 993 885 838 b 610 357 828 492 746 399 l 765 28 b 749 0 774 11 767 0 l 560 0 b 532 18 546 0 536 6 l 404 331 l 313 331 l 260 22 b 233 0 257 8 249 0 m 347 528 l 469 528 b 628 653 563 528 614 568 b 517 793 642 744 608 793 l 393 793 "},"Ŕ":{"ha":858,"x_min":0,"x_max":0,"o":"m 61 0 b 39 26 44 0 36 11 l 204 971 b 231 993 207 985 215 993 l 550 993 b 851 636 775 993 885 838 b 610 357 828 492 746 399 l 765 28 b 749 0 774 11 767 0 l 560 0 b 532 18 546 0 536 6 l 404 331 l 313 331 l 260 22 b 233 0 257 8 249 0 m 347 528 l 469 528 b 628 653 563 528 614 568 b 517 793 642 744 608 793 l 393 793 m 440 1060 b 426 1090 419 1060 414 1074 l 586 1272 b 615 1286 594 1282 604 1286 l 771 1286 b 783 1256 792 1286 799 1271 l 586 1071 b 558 1060 578 1064 569 1060 "},"Ř":{"ha":858,"x_min":0,"x_max":0,"o":"m 61 0 b 39 26 44 0 36 11 l 204 971 b 231 993 207 985 215 993 l 550 993 b 851 636 775 993 885 838 b 610 357 828 492 746 399 l 765 28 b 749 0 774 11 767 0 l 560 0 b 532 18 546 0 536 6 l 404 331 l 313 331 l 260 22 b 233 0 257 8 249 0 m 347 528 l 469 528 b 628 653 563 528 614 568 b 517 793 642 744 608 793 l 393 793 m 792 1289 b 804 1258 813 1289 818 1274 l 618 1075 b 589 1063 610 1067 601 1063 l 460 1063 b 431 1078 447 1063 438 1067 l 313 1260 b 328 1289 303 1276 310 1289 l 467 1289 b 496 1272 481 1289 489 1285 l 544 1183 l 626 1275 b 656 1289 635 1283 644 1289 "},"Ŗ":{"ha":858,"x_min":0,"x_max":0,"o":"m 61 0 b 39 26 44 0 36 11 l 204 971 b 231 993 207 985 215 993 l 550 993 b 851 636 775 993 885 838 b 610 357 828 492 746 399 l 765 28 b 749 0 774 11 767 0 l 560 0 b 532 18 546 0 536 6 l 404 331 l 313 331 l 260 22 b 233 0 257 8 249 0 m 347 528 l 469 528 b 628 653 563 528 614 568 b 517 793 642 744 608 793 l 393 793 m 211 -329 b 189 -304 193 -329 183 -319 l 296 -86 b 328 -69 301 -74 313 -69 l 481 -69 b 500 -93 501 -69 511 -79 l 360 -312 b 326 -329 351 -324 342 -329 "},"S":{"ha":833,"x_min":0,"x_max":0,"o":"m 774 258 b 365 -18 729 42 546 -18 b 21 117 219 -18 115 33 b 18 151 10 126 8 139 l 118 275 b 153 278 128 288 140 288 b 389 186 229 218 303 186 b 551 283 469 186 540 218 b 389 410 563 353 492 381 b 139 742 240 453 106 544 b 514 1011 172 936 326 1011 b 839 906 646 1011 743 976 b 843 872 851 897 853 885 l 746 747 b 713 743 736 736 725 735 b 489 811 650 783 568 811 b 356 719 414 811 367 775 b 492 603 344 653 403 629 b 774 258 618 564 819 493 "},"Ś":{"ha":833,"x_min":0,"x_max":0,"o":"m 774 258 b 365 -18 729 42 546 -18 b 21 117 219 -18 115 33 b 18 151 10 126 8 139 l 118 275 b 153 278 128 288 140 288 b 389 186 229 218 303 186 b 551 283 469 186 540 218 b 389 410 563 353 492 381 b 139 742 240 453 106 544 b 514 1011 172 936 326 1011 b 839 906 646 1011 743 976 b 843 872 851 897 853 885 l 746 747 b 713 743 736 736 725 735 b 489 811 650 783 568 811 b 356 719 414 811 367 775 b 492 603 344 653 403 629 b 774 258 618 564 819 493 m 443 1083 b 429 1114 422 1083 417 1097 l 589 1296 b 618 1310 597 1306 607 1310 l 774 1310 b 786 1279 794 1310 801 1294 l 589 1094 b 561 1083 581 1088 572 1083 "},"Š":{"ha":833,"x_min":0,"x_max":0,"o":"m 774 258 b 365 -18 729 42 546 -18 b 21 117 219 -18 115 33 b 18 151 10 126 8 139 l 118 275 b 153 278 128 288 140 288 b 389 186 229 218 303 186 b 551 283 469 186 540 218 b 389 410 563 353 492 381 b 139 742 240 453 106 544 b 514 1011 172 936 326 1011 b 839 906 646 1011 743 976 b 843 872 851 897 853 885 l 746 747 b 713 743 736 736 725 735 b 489 811 650 783 568 811 b 356 719 414 811 367 775 b 492 603 344 653 403 629 b 774 258 618 564 819 493 m 796 1300 b 808 1269 817 1300 822 1285 l 622 1086 b 593 1074 614 1078 606 1074 l 464 1074 b 435 1089 451 1074 442 1078 l 317 1271 b 332 1300 307 1288 314 1300 l 471 1300 b 500 1283 485 1300 493 1296 l 549 1194 l 631 1286 b 660 1300 639 1294 649 1300 "},"Ş":{"ha":833,"x_min":0,"x_max":0,"o":"m 774 258 b 426 -15 733 67 586 -1 l 394 -71 b 494 -181 465 -78 501 -122 b 296 -303 485 -267 410 -303 b 217 -292 265 -303 240 -300 b 200 -264 204 -289 199 -278 l 207 -215 b 236 -200 210 -199 219 -196 b 275 -204 249 -203 263 -204 b 350 -164 317 -204 343 -192 b 303 -126 354 -144 343 -131 b 274 -108 289 -125 279 -119 b 282 -89 272 -106 275 -100 l 322 -17 b 21 117 199 -7 106 42 b 18 151 10 126 8 139 l 118 275 b 153 278 128 288 140 288 b 389 186 229 218 303 186 b 551 283 469 186 540 218 b 389 410 563 353 492 381 b 139 742 240 453 106 544 b 514 1011 172 936 326 1011 b 839 906 646 1011 743 976 b 843 872 851 897 853 885 l 746 747 b 713 743 736 736 725 735 b 489 811 650 783 568 811 b 356 719 414 811 367 775 b 492 603 344 653 403 629 b 774 258 618 564 819 493 "},"Ș":{"ha":833,"x_min":0,"x_max":0,"o":"m 774 258 b 365 -18 729 42 546 -18 b 21 117 219 -18 115 33 b 18 151 10 126 8 139 l 118 275 b 153 278 128 288 140 288 b 389 186 229 218 303 186 b 551 283 469 186 540 218 b 389 410 563 353 492 381 b 139 742 240 453 106 544 b 514 1011 172 936 326 1011 b 839 906 646 1011 743 976 b 843 872 851 897 853 885 l 746 747 b 713 743 736 736 725 735 b 489 811 650 783 568 811 b 356 719 414 811 367 775 b 492 603 344 653 403 629 b 774 258 618 564 819 493 m 189 -343 b 168 -319 171 -343 163 -333 l 269 -106 b 300 -89 274 -94 285 -89 l 443 -89 b 461 -112 463 -89 472 -99 l 329 -328 b 297 -343 322 -339 313 -343 "},"T":{"ha":781,"x_min":0,"x_max":0,"o":"m 847 993 b 869 967 864 993 872 983 l 842 814 b 817 792 840 800 832 792 l 576 792 l 440 22 b 415 0 438 8 429 0 l 242 0 b 221 26 226 0 218 11 l 357 792 l 119 792 b 97 818 103 792 96 803 l 125 971 b 150 993 128 985 136 993 "},"Ŧ":{"ha":792,"x_min":0,"x_max":0,"o":"m 846 813 b 821 792 844 799 836 792 l 582 792 l 533 519 l 676 519 b 697 493 692 519 700 508 l 683 407 b 657 386 681 393 672 386 l 510 386 l 446 22 b 419 0 443 8 435 0 l 247 0 b 226 26 232 0 224 11 l 290 386 l 150 386 b 129 413 135 386 126 396 l 144 497 b 171 519 147 511 156 519 l 313 519 l 361 792 l 125 792 b 103 818 108 792 100 803 l 131 971 b 156 993 132 985 142 993 l 853 993 b 874 967 868 993 876 983 "},"Ť":{"ha":781,"x_min":0,"x_max":0,"o":"m 847 993 b 869 967 864 993 872 983 l 842 814 b 817 792 840 800 832 792 l 576 792 l 440 22 b 415 0 438 8 429 0 l 242 0 b 221 26 226 0 218 11 l 357 792 l 119 792 b 97 818 103 792 96 803 l 125 971 b 150 993 128 985 136 993 m 768 1286 b 781 1256 789 1286 794 1271 l 594 1072 b 565 1060 586 1064 578 1060 l 436 1060 b 407 1075 424 1060 414 1064 l 289 1257 b 304 1286 279 1274 286 1286 l 443 1286 b 472 1269 457 1286 465 1282 l 521 1181 l 603 1272 b 632 1286 611 1281 621 1286 "},"Ţ":{"ha":781,"x_min":0,"x_max":0,"o":"m 146 -336 b 125 -311 128 -336 119 -326 l 226 -96 b 256 -79 231 -83 242 -79 l 401 -79 b 419 -103 421 -79 431 -89 l 286 -321 b 254 -336 279 -331 269 -336 m 847 993 b 869 967 864 993 872 983 l 842 814 b 817 792 840 800 832 792 l 576 792 l 440 22 b 415 0 438 8 429 0 l 242 0 b 221 26 226 0 218 11 l 357 792 l 119 792 b 97 818 103 792 96 803 l 125 971 b 150 993 128 985 136 993 "},"Ț":{"ha":781,"x_min":0,"x_max":0,"o":"m 847 993 b 869 967 864 993 872 983 l 842 814 b 817 792 840 800 832 792 l 576 792 l 440 22 b 415 0 438 8 429 0 l 242 0 b 221 26 226 0 218 11 l 357 792 l 119 792 b 97 818 103 792 96 803 l 125 971 b 150 993 128 985 136 993 m 135 -339 b 113 -314 117 -339 107 -329 l 218 -96 b 249 -79 222 -83 233 -79 l 399 -79 b 418 -103 419 -79 429 -89 l 281 -322 b 247 -339 272 -333 263 -339 "},"U":{"ha":924,"x_min":0,"x_max":0,"o":"m 829 343 b 399 -17 790 117 647 -17 b 94 394 172 -17 51 138 l 197 971 b 222 993 200 985 208 993 l 397 993 b 419 967 414 993 422 982 l 313 369 b 431 188 292 249 340 188 b 610 360 524 188 589 244 l 715 971 b 740 993 718 985 726 993 l 915 993 b 938 967 931 993 939 982 l 829 343 "},"Ú":{"ha":924,"x_min":0,"x_max":0,"o":"m 829 343 b 399 -17 790 117 647 -17 b 94 394 172 -17 51 138 l 197 971 b 222 993 200 985 208 993 l 397 993 b 419 967 414 993 422 982 l 313 369 b 431 188 292 249 340 188 b 610 360 524 188 589 244 l 715 971 b 740 993 718 985 726 993 l 915 993 b 938 967 931 993 939 982 l 829 343 m 501 1068 b 488 1099 481 1068 475 1082 l 647 1281 b 676 1294 656 1290 665 1294 l 832 1294 b 844 1264 853 1294 860 1279 l 647 1079 b 619 1068 639 1072 631 1068 "},"Û":{"ha":924,"x_min":0,"x_max":0,"o":"m 829 343 b 399 -17 790 117 647 -17 b 94 394 172 -17 51 138 l 197 971 b 222 993 200 985 208 993 l 397 993 b 419 967 414 993 422 982 l 313 369 b 431 188 292 249 340 188 b 610 360 524 188 589 244 l 715 971 b 740 993 718 985 726 993 l 915 993 b 938 967 931 993 939 982 l 829 343 m 354 1074 b 342 1104 333 1074 328 1089 l 528 1288 b 557 1300 536 1296 544 1300 l 686 1300 b 715 1285 699 1300 708 1296 l 833 1103 b 818 1074 843 1086 836 1074 l 679 1074 b 650 1090 665 1074 657 1078 l 601 1179 l 519 1088 b 490 1074 511 1079 501 1074 "},"Ü":{"ha":924,"x_min":0,"x_max":0,"o":"m 829 343 b 399 -17 790 117 647 -17 b 94 394 172 -17 51 138 l 197 971 b 222 993 200 985 208 993 l 397 993 b 419 967 414 993 422 982 l 313 369 b 431 188 292 249 340 188 b 610 360 524 188 589 244 l 715 971 b 740 993 718 985 726 993 l 915 993 b 938 967 931 993 939 982 l 829 343 m 558 1190 b 442 1089 547 1129 501 1089 b 357 1193 378 1089 349 1139 b 474 1294 367 1253 414 1294 b 558 1190 536 1294 568 1246 m 853 1190 b 736 1089 843 1129 797 1089 b 651 1193 669 1089 642 1139 b 768 1294 661 1254 707 1294 b 853 1190 831 1294 861 1247 "},"Ù":{"ha":924,"x_min":0,"x_max":0,"o":"m 829 343 b 399 -17 790 117 647 -17 b 94 394 172 -17 51 138 l 197 971 b 222 993 200 985 208 993 l 397 993 b 419 967 414 993 422 982 l 313 369 b 431 188 292 249 340 188 b 610 360 524 188 589 244 l 715 971 b 740 993 718 985 726 993 l 915 993 b 938 967 931 993 939 982 l 829 343 m 544 1074 b 515 1088 532 1074 522 1078 l 386 1271 b 400 1300 374 1288 381 1300 l 547 1300 b 576 1283 561 1300 571 1294 l 675 1103 b 658 1074 683 1086 676 1074 "},"Ű":{"ha":924,"x_min":0,"x_max":0,"o":"m 829 343 b 399 -17 790 117 647 -17 b 94 394 172 -17 51 138 l 197 971 b 222 993 200 985 208 993 l 397 993 b 419 967 414 993 422 982 l 313 369 b 431 188 292 249 340 188 b 610 360 524 188 589 244 l 715 971 b 740 993 718 985 726 993 l 915 993 b 938 967 931 993 939 982 l 829 343 m 354 1074 b 340 1103 333 1074 326 1086 l 497 1286 b 526 1300 504 1296 514 1300 l 675 1300 b 688 1269 696 1300 703 1285 l 497 1086 b 468 1074 489 1078 479 1074 m 654 1074 b 640 1104 633 1074 626 1088 l 811 1286 b 842 1300 819 1296 829 1300 l 994 1300 b 1006 1269 1017 1300 1022 1285 l 803 1085 b 772 1074 793 1076 785 1074 "},"Ū":{"ha":924,"x_min":0,"x_max":0,"o":"m 829 343 b 399 -17 790 117 647 -17 b 94 394 172 -17 51 138 l 197 971 b 222 993 200 985 208 993 l 397 993 b 419 967 414 993 422 982 l 313 369 b 431 188 292 249 340 188 b 610 360 524 188 589 244 l 715 971 b 740 993 718 985 726 993 l 915 993 b 938 967 931 993 939 982 l 829 343 m 388 1092 b 367 1118 372 1092 363 1103 l 386 1221 b 411 1243 389 1236 397 1243 l 806 1243 b 826 1217 821 1243 829 1232 l 807 1114 b 782 1092 806 1100 797 1092 "},"Ų":{"ha":921,"x_min":0,"x_max":0,"o":"m 594 -246 b 453 -283 551 -269 501 -283 b 319 -146 358 -283 304 -232 b 418 -17 326 -103 361 -53 b 396 -17 411 -17 403 -17 b 94 390 169 -17 49 129 l 197 971 b 222 993 199 985 207 993 l 396 993 b 418 967 413 993 421 982 l 313 369 b 429 190 290 250 339 190 b 608 360 522 190 589 247 l 714 971 b 739 993 717 985 725 993 l 913 993 b 935 967 929 993 938 982 l 826 340 b 603 22 799 182 726 82 b 479 -92 535 -10 485 -57 b 522 -131 475 -121 492 -131 b 575 -122 539 -131 558 -126 b 603 -139 592 -117 601 -122 l 611 -217 b 594 -246 613 -232 607 -240 "},"Ů":{"ha":924,"x_min":0,"x_max":0,"o":"m 829 343 b 399 -17 790 117 647 -17 b 94 394 172 -17 51 138 l 197 971 b 222 993 200 985 208 993 l 397 993 b 419 967 414 993 422 982 l 313 369 b 431 188 292 249 340 188 b 610 360 524 188 589 244 l 715 971 b 740 993 718 985 726 993 l 915 993 b 938 967 931 993 939 982 l 829 343 m 794 1194 b 575 1046 775 1100 696 1046 b 418 1208 474 1046 399 1118 b 640 1357 438 1301 517 1357 b 794 1194 739 1357 813 1283 m 540 1201 b 596 1146 533 1165 553 1146 b 672 1201 636 1146 665 1167 b 618 1256 679 1236 658 1256 b 540 1201 578 1256 547 1236 "},"V":{"ha":883,"x_min":0,"x_max":0,"o":"m 276 0 b 250 22 261 0 253 7 l 111 968 b 133 993 108 983 118 993 l 310 993 b 336 971 325 993 335 986 l 386 547 b 415 250 397 454 410 331 l 424 250 b 540 531 456 329 500 442 l 746 975 b 775 993 751 986 763 993 l 967 993 b 983 964 985 993 992 982 l 513 18 b 485 0 507 6 497 0 "},"W":{"ha":1317,"x_min":0,"x_max":0,"o":"m 222 0 b 197 22 207 0 199 7 l 114 968 b 138 993 113 983 122 993 l 315 993 b 340 969 329 993 340 985 l 354 656 b 357 249 358 560 358 365 l 364 249 b 510 665 401 372 467 557 l 629 960 b 657 979 635 972 644 979 l 853 979 b 878 957 868 979 876 972 l 901 650 b 913 249 907 558 913 371 l 921 249 b 1064 678 957 369 1024 572 l 1179 974 b 1207 993 1185 986 1193 993 l 1393 993 b 1413 965 1411 993 1419 982 l 999 18 b 969 0 993 7 983 0 l 768 0 b 744 22 754 0 746 7 l 726 296 b 717 694 719 421 718 603 l 708 694 b 594 357 686 606 642 472 l 451 19 b 424 0 446 7 436 0 "},"Ẃ":{"ha":1317,"x_min":0,"x_max":0,"o":"m 222 0 b 197 22 207 0 199 7 l 114 968 b 138 993 113 983 122 993 l 315 993 b 340 969 329 993 340 985 l 354 656 b 357 249 358 560 358 365 l 364 249 b 510 665 401 372 467 557 l 629 960 b 657 979 635 972 644 979 l 853 979 b 878 957 868 979 876 972 l 901 650 b 913 249 907 558 913 371 l 921 249 b 1064 678 957 369 1024 572 l 1179 974 b 1207 993 1185 986 1193 993 l 1393 993 b 1413 965 1411 993 1419 982 l 999 18 b 969 0 993 7 983 0 l 768 0 b 744 22 754 0 746 7 l 726 296 b 717 694 719 421 718 603 l 708 694 b 594 357 686 606 642 472 l 451 19 b 424 0 446 7 436 0 m 685 1061 b 671 1092 664 1061 658 1075 l 831 1274 b 860 1288 839 1283 849 1288 l 1015 1288 b 1028 1257 1036 1288 1043 1272 l 831 1072 b 803 1061 822 1065 814 1061 "},"Ŵ":{"ha":1317,"x_min":0,"x_max":0,"o":"m 222 0 b 197 22 207 0 199 7 l 114 968 b 138 993 113 983 122 993 l 315 993 b 340 969 329 993 340 985 l 354 656 b 357 249 358 560 358 365 l 364 249 b 510 665 401 372 467 557 l 629 960 b 657 979 635 972 644 979 l 853 979 b 878 957 868 979 876 972 l 901 650 b 913 249 907 558 913 371 l 921 249 b 1064 678 957 369 1024 572 l 1179 974 b 1207 993 1185 986 1193 993 l 1393 993 b 1413 965 1411 993 1419 982 l 999 18 b 969 0 993 7 983 0 l 768 0 b 744 22 754 0 746 7 l 726 296 b 717 694 719 421 718 603 l 708 694 b 594 357 686 606 642 472 l 451 19 b 424 0 446 7 436 0 m 546 1060 b 533 1090 525 1060 519 1075 l 719 1274 b 749 1286 728 1282 736 1286 l 878 1286 b 907 1271 890 1286 900 1282 l 1025 1089 b 1010 1060 1035 1072 1028 1060 l 871 1060 b 842 1076 857 1060 849 1064 l 793 1165 l 711 1074 b 682 1060 703 1065 693 1060 "},"Ẅ":{"ha":1317,"x_min":0,"x_max":0,"o":"m 725 1179 b 607 1074 715 1115 665 1074 b 519 1182 540 1074 510 1125 b 639 1286 531 1243 581 1286 b 725 1179 703 1286 735 1238 m 1063 1179 b 943 1074 1051 1115 1004 1074 b 857 1182 876 1074 847 1125 b 975 1286 867 1244 915 1286 b 1063 1179 1040 1286 1072 1238 m 222 0 b 197 22 207 0 199 7 l 114 968 b 138 993 113 983 122 993 l 315 993 b 340 969 329 993 340 985 l 354 656 b 357 249 358 560 358 365 l 364 249 b 510 665 401 372 467 557 l 629 960 b 657 979 635 972 644 979 l 853 979 b 878 957 868 979 876 972 l 901 650 b 913 249 907 558 913 371 l 921 249 b 1064 678 957 369 1024 572 l 1179 974 b 1207 993 1185 986 1193 993 l 1393 993 b 1413 965 1411 993 1419 982 l 999 18 b 969 0 993 7 983 0 l 768 0 b 744 22 754 0 746 7 l 726 296 b 717 694 719 421 718 603 l 708 694 b 594 357 686 606 642 472 l 451 19 b 424 0 446 7 436 0 "},"Ẁ":{"ha":1317,"x_min":0,"x_max":0,"o":"m 222 0 b 197 22 207 0 199 7 l 114 968 b 138 993 113 983 122 993 l 315 993 b 340 969 329 993 340 985 l 354 656 b 357 249 358 560 358 365 l 364 249 b 510 665 401 372 467 557 l 629 960 b 657 979 635 972 644 979 l 853 979 b 878 957 868 979 876 972 l 901 650 b 913 249 907 558 913 371 l 921 249 b 1064 678 957 369 1024 572 l 1179 974 b 1207 993 1185 986 1193 993 l 1393 993 b 1413 965 1411 993 1419 982 l 999 18 b 969 0 993 7 983 0 l 768 0 b 744 22 754 0 746 7 l 726 296 b 717 694 719 421 718 603 l 708 694 b 594 357 686 606 642 472 l 451 19 b 424 0 446 7 436 0 m 743 1060 b 714 1074 731 1060 721 1064 l 585 1257 b 599 1286 572 1274 579 1286 l 746 1286 b 775 1269 760 1286 769 1281 l 874 1089 b 857 1060 882 1072 875 1060 "},"X":{"ha":840,"x_min":0,"x_max":0,"o":"m 899 993 b 914 964 918 993 925 981 l 578 494 l 765 28 b 746 0 771 11 764 0 l 560 0 b 533 19 546 0 538 7 l 421 335 l 213 17 b 183 0 206 6 196 0 l -25 0 b -40 29 -44 0 -51 14 l 306 499 l 140 965 b 160 993 135 982 143 993 l 340 993 b 368 974 354 993 364 986 l 464 658 l 669 976 b 699 993 676 988 685 993 "},"Y":{"ha":808,"x_min":0,"x_max":0,"o":"m 254 0 b 232 26 238 0 229 10 l 293 357 l 108 967 b 128 993 103 982 111 993 l 308 993 b 333 972 322 993 331 986 l 435 563 l 438 563 l 674 976 b 701 993 681 988 689 993 l 893 993 b 908 964 911 993 918 981 l 515 353 l 453 22 b 428 0 450 7 442 0 "},"Ý":{"ha":808,"x_min":0,"x_max":0,"o":"m 254 0 b 232 26 238 0 229 10 l 293 357 l 108 967 b 128 993 103 982 111 993 l 308 993 b 333 972 322 993 331 986 l 435 563 l 438 563 l 674 976 b 701 993 681 988 689 993 l 893 993 b 908 964 911 993 918 981 l 515 353 l 453 22 b 428 0 450 7 442 0 m 435 1063 b 421 1093 414 1063 408 1076 l 581 1275 b 610 1289 589 1285 599 1289 l 765 1289 b 778 1258 786 1289 793 1274 l 581 1074 b 553 1063 572 1067 564 1063 "},"Ŷ":{"ha":808,"x_min":0,"x_max":0,"o":"m 254 0 b 232 26 238 0 229 10 l 293 357 l 108 967 b 128 993 103 982 111 993 l 308 993 b 333 972 322 993 331 986 l 435 563 l 438 563 l 674 976 b 701 993 681 988 689 993 l 893 993 b 908 964 911 993 918 981 l 515 353 l 453 22 b 428 0 450 7 442 0 m 288 1074 b 275 1104 267 1074 261 1089 l 461 1288 b 490 1300 469 1296 478 1300 l 619 1300 b 649 1285 632 1300 642 1296 l 767 1103 b 751 1074 776 1086 769 1074 l 613 1074 b 583 1090 599 1074 590 1078 l 535 1179 l 453 1088 b 424 1074 444 1079 435 1074 "},"Ÿ":{"ha":808,"x_min":0,"x_max":0,"o":"m 254 0 b 232 26 238 0 229 10 l 293 357 l 108 967 b 128 993 103 982 111 993 l 308 993 b 333 972 322 993 331 986 l 435 563 l 438 563 l 674 976 b 701 993 681 988 689 993 l 893 993 b 908 964 911 993 918 981 l 515 353 l 453 22 b 428 0 450 7 442 0 m 493 1178 b 376 1076 482 1117 436 1076 b 292 1181 313 1076 283 1126 b 408 1282 301 1240 349 1282 b 493 1178 471 1282 503 1233 m 788 1178 b 671 1076 778 1117 732 1076 b 586 1181 604 1076 576 1126 b 703 1282 596 1242 642 1282 b 788 1178 765 1282 796 1235 "},"Ỳ":{"ha":808,"x_min":0,"x_max":0,"o":"m 254 0 b 232 26 238 0 229 10 l 293 357 l 108 967 b 128 993 103 982 111 993 l 308 993 b 333 972 322 993 331 986 l 435 563 l 438 563 l 674 976 b 701 993 681 988 689 993 l 893 993 b 908 964 911 993 918 981 l 515 353 l 453 22 b 428 0 450 7 442 0 m 478 1060 b 449 1074 465 1060 456 1064 l 319 1257 b 333 1286 307 1274 314 1286 l 481 1286 b 510 1269 494 1286 504 1281 l 608 1089 b 592 1060 617 1072 610 1060 "},"Z":{"ha":824,"x_min":0,"x_max":0,"o":"m 8 0 b -14 26 -8 0 -17 11 l 8 144 b 22 172 11 157 15 163 l 546 794 l 174 794 b 153 821 158 794 150 806 l 179 971 b 204 993 182 985 190 993 l 849 993 b 871 967 865 993 874 982 l 849 853 b 836 824 846 840 843 833 l 321 199 l 722 199 b 743 172 738 199 746 189 l 717 22 b 690 0 714 8 706 0 "},"Ź":{"ha":824,"x_min":0,"x_max":0,"o":"m 8 0 b -14 26 -8 0 -17 11 l 8 144 b 22 172 11 157 15 163 l 546 794 l 174 794 b 153 821 158 794 150 806 l 179 971 b 204 993 182 985 190 993 l 849 993 b 871 967 865 993 874 982 l 849 853 b 836 824 846 840 843 833 l 321 199 l 722 199 b 743 172 738 199 746 189 l 717 22 b 690 0 714 8 706 0 m 446 1074 b 432 1104 425 1074 419 1088 l 592 1286 b 621 1300 600 1296 610 1300 l 776 1300 b 789 1269 797 1300 804 1285 l 592 1085 b 564 1074 583 1078 575 1074 "},"Ž":{"ha":824,"x_min":0,"x_max":0,"o":"m 8 0 b -14 26 -8 0 -17 11 l 8 144 b 22 172 11 157 15 163 l 546 794 l 174 794 b 153 821 158 794 150 806 l 179 971 b 204 993 182 985 190 993 l 849 993 b 871 967 865 993 874 982 l 849 853 b 836 824 846 840 843 833 l 321 199 l 722 199 b 743 172 738 199 746 189 l 717 22 b 690 0 714 8 706 0 m 797 1300 b 810 1269 818 1300 824 1285 l 624 1086 b 594 1074 615 1078 607 1074 l 465 1074 b 436 1089 453 1074 443 1078 l 318 1271 b 333 1300 308 1288 315 1300 l 472 1300 b 501 1283 486 1300 494 1296 l 550 1194 l 632 1286 b 661 1300 640 1294 650 1300 "},"Ż":{"ha":824,"x_min":0,"x_max":0,"o":"m 8 0 b -14 26 -8 0 -17 11 l 8 144 b 22 172 11 157 15 163 l 546 794 l 174 794 b 153 821 158 794 150 806 l 179 971 b 204 993 182 985 190 993 l 849 993 b 871 967 865 993 874 982 l 849 853 b 836 824 846 840 843 833 l 321 199 l 722 199 b 743 172 738 199 746 189 l 717 22 b 690 0 714 8 706 0 m 668 1176 b 535 1072 657 1118 611 1072 b 435 1192 463 1072 424 1128 b 564 1300 444 1254 497 1300 b 668 1176 640 1300 681 1244 "},"a":{"ha":701,"x_min":0,"x_max":0,"o":"m 564 31 b 275 -18 485 3 382 -18 b 10 244 81 -18 -18 93 b 325 439 33 379 147 439 b 443 428 367 439 408 435 l 446 450 b 351 556 458 518 439 556 b 186 524 290 556 228 543 b 154 535 171 517 160 519 l 111 649 b 115 676 107 661 107 671 b 399 742 182 717 286 742 b 647 408 588 742 685 617 l 585 57 b 564 31 582 44 576 35 m 217 233 b 301 156 207 181 240 156 b 397 167 333 156 372 161 l 417 288 b 328 297 390 293 358 297 b 217 233 260 297 224 275 "},"á":{"ha":701,"x_min":0,"x_max":0,"o":"m 564 31 b 275 -18 485 3 382 -18 b 10 244 81 -18 -18 93 b 325 439 33 379 147 439 b 443 428 367 439 408 435 l 446 450 b 351 556 458 518 439 556 b 186 524 290 556 228 543 b 154 535 171 517 160 519 l 111 649 b 115 676 107 661 107 671 b 399 742 182 717 286 742 b 647 408 588 742 685 617 l 585 57 b 564 31 582 44 576 35 m 217 233 b 301 156 207 181 240 156 b 397 167 333 156 372 161 l 417 288 b 328 297 390 293 358 297 b 217 233 260 297 224 275 m 325 813 b 311 842 304 813 299 826 l 460 1025 b 490 1039 468 1035 478 1039 l 635 1039 b 647 1008 656 1039 663 1024 l 463 825 b 433 813 454 815 446 813 "},"ă":{"ha":701,"x_min":0,"x_max":0,"o":"m 564 31 b 275 -18 485 3 382 -18 b 10 244 81 -18 -18 93 b 325 439 33 379 147 439 b 443 428 367 439 408 435 l 446 450 b 351 556 458 518 439 556 b 186 524 290 556 228 543 b 154 535 171 517 160 519 l 111 649 b 115 676 107 661 107 671 b 399 742 182 717 286 742 b 647 408 588 742 685 617 l 585 57 b 564 31 582 44 576 35 m 217 233 b 301 156 207 181 240 156 b 397 167 333 156 372 161 l 417 288 b 328 297 390 293 358 297 b 217 233 260 297 224 275 m 660 996 b 400 808 624 872 550 808 b 210 996 281 808 207 899 b 232 1022 210 1011 219 1019 l 332 1039 b 357 1017 347 1042 354 1033 b 426 953 361 974 383 953 b 518 1021 471 953 501 975 b 547 1039 524 1036 533 1040 l 642 1022 b 660 996 657 1019 664 1010 "},"â":{"ha":701,"x_min":0,"x_max":0,"o":"m 564 31 b 275 -18 485 3 382 -18 b 10 244 81 -18 -18 93 b 325 439 33 379 147 439 b 443 428 367 439 408 435 l 446 450 b 351 556 458 518 439 556 b 186 524 290 556 228 543 b 154 535 171 517 160 519 l 111 649 b 115 676 107 661 107 671 b 399 742 182 717 286 742 b 647 408 588 742 685 617 l 585 57 b 564 31 582 44 576 35 m 217 233 b 301 156 207 181 240 156 b 397 167 333 156 372 161 l 417 288 b 328 297 390 293 358 297 b 217 233 260 297 224 275 m 650 842 b 633 813 658 825 653 813 l 515 813 b 486 829 501 813 492 817 l 435 919 l 347 825 b 317 813 339 817 329 813 l 192 813 b 179 842 169 813 164 828 l 364 1026 b 393 1039 372 1035 381 1039 l 506 1039 b 535 1022 519 1039 528 1035 "},"ä":{"ha":701,"x_min":0,"x_max":0,"o":"m 564 31 b 275 -18 485 3 382 -18 b 10 244 81 -18 -18 93 b 325 439 33 379 147 439 b 443 428 367 439 408 435 l 446 450 b 351 556 458 518 439 556 b 186 524 290 556 228 543 b 154 535 171 517 160 519 l 111 649 b 115 676 107 661 107 671 b 399 742 182 717 286 742 b 647 408 588 742 685 617 l 585 57 b 564 31 582 44 576 35 m 217 233 b 301 156 207 181 240 156 b 397 167 333 156 372 161 l 417 288 b 328 297 390 293 358 297 b 217 233 260 297 224 275 m 376 914 b 265 815 365 853 322 815 b 183 921 210 815 172 856 b 297 1018 194 982 240 1018 b 376 914 354 1018 389 975 m 665 914 b 556 815 654 853 613 815 b 472 921 499 815 461 856 b 586 1018 483 982 529 1018 b 665 914 643 1018 678 975 "},"à":{"ha":701,"x_min":0,"x_max":0,"o":"m 564 31 b 275 -18 485 3 382 -18 b 10 244 81 -18 -18 93 b 325 439 33 379 147 439 b 443 428 367 439 408 435 l 446 450 b 351 556 458 518 439 556 b 186 524 290 556 228 543 b 154 535 171 517 160 519 l 111 649 b 115 676 107 661 107 671 b 399 742 182 717 286 742 b 647 408 588 742 685 617 l 585 57 b 564 31 582 44 576 35 m 217 233 b 301 156 207 181 240 156 b 397 167 333 156 372 161 l 417 288 b 328 297 390 293 358 297 b 217 233 260 297 224 275 m 494 844 b 478 817 503 828 494 817 l 382 817 b 353 832 369 817 360 821 l 235 1014 b 250 1043 224 1029 231 1043 l 379 1043 b 407 1025 392 1043 401 1036 "},"ā":{"ha":701,"x_min":0,"x_max":0,"o":"m 564 31 b 275 -18 485 3 382 -18 b 10 244 81 -18 -18 93 b 325 439 33 379 147 439 b 443 428 367 439 408 435 l 446 450 b 351 556 458 518 439 556 b 186 524 290 556 228 543 b 154 535 171 517 160 519 l 111 649 b 115 676 107 661 107 671 b 399 742 182 717 286 742 b 647 408 588 742 685 617 l 585 57 b 564 31 582 44 576 35 m 217 233 b 301 156 207 181 240 156 b 397 167 333 156 372 161 l 417 288 b 328 297 390 293 358 297 b 217 233 260 297 224 275 m 225 947 b 250 969 226 961 236 969 l 615 969 b 636 943 631 969 639 958 l 618 847 b 593 825 615 833 607 825 l 229 825 b 207 851 213 825 204 836 "},"ą":{"ha":707,"x_min":0,"x_max":0,"o":"m 542 -244 b 401 -279 497 -267 447 -279 b 267 -146 300 -279 251 -224 b 378 -12 275 -99 311 -49 b 281 -18 346 -15 313 -18 b 8 246 86 -18 -21 90 b 322 439 35 378 149 439 b 444 428 367 439 408 435 l 449 450 b 353 556 463 521 440 556 b 193 521 292 556 235 540 b 161 533 178 514 167 518 l 114 646 b 121 675 110 658 111 669 b 393 742 189 715 293 742 b 649 413 590 742 686 621 l 585 50 b 564 24 583 38 575 29 b 425 -94 490 -6 432 -49 b 468 -129 422 -122 442 -129 b 522 -121 486 -129 504 -126 b 550 -139 539 -115 549 -122 l 558 -215 b 542 -244 560 -231 554 -239 m 214 231 b 303 156 204 179 242 156 b 399 165 336 156 375 161 l 419 285 b 332 294 393 290 361 294 b 214 231 263 294 221 271 "},"å":{"ha":701,"x_min":0,"x_max":0,"o":"m 564 31 b 275 -18 485 3 382 -18 b 10 244 81 -18 -18 93 b 325 439 33 379 147 439 b 443 428 367 439 408 435 l 446 450 b 351 556 458 518 439 556 b 186 524 290 556 228 543 b 154 535 171 517 160 519 l 111 649 b 115 676 107 661 107 671 b 399 742 182 717 286 742 b 647 408 588 742 685 617 l 585 57 b 564 31 582 44 576 35 m 217 233 b 301 156 207 181 240 156 b 397 167 333 156 372 161 l 417 288 b 328 297 390 293 358 297 b 217 233 260 297 224 275 m 611 944 b 407 797 592 854 515 797 b 261 944 315 797 244 867 b 468 1093 278 1036 356 1093 b 611 944 558 1093 626 1024 m 372 944 b 425 888 365 911 388 888 b 499 944 464 888 490 911 b 447 1001 507 981 486 1001 b 372 944 411 1001 379 981 "},"ã":{"ha":701,"x_min":0,"x_max":0,"o":"m 564 31 b 275 -18 485 3 382 -18 b 10 244 81 -18 -18 93 b 325 439 33 379 147 439 b 443 428 367 439 408 435 l 446 450 b 351 556 458 518 439 556 b 186 524 290 556 228 543 b 154 535 171 517 160 519 l 111 649 b 115 676 107 661 107 671 b 399 742 182 717 286 742 b 647 408 588 742 685 617 l 585 57 b 564 31 582 44 576 35 m 217 233 b 301 156 207 181 240 156 b 397 167 333 156 372 161 l 417 288 b 328 297 390 293 358 297 b 217 233 260 297 224 275 m 681 925 b 525 808 651 874 596 808 b 419 840 489 808 450 825 b 346 863 386 854 367 863 b 288 832 324 863 306 853 b 254 825 276 821 265 817 l 189 868 b 179 901 176 876 172 889 b 343 1017 210 951 265 1017 b 444 986 378 1017 411 1003 b 517 963 474 972 496 963 b 571 993 536 963 553 974 b 606 999 581 1006 593 1007 l 671 954 b 681 925 683 947 688 936 "},"æ":{"ha":1085,"x_min":0,"x_max":0,"o":"m 506 39 b 289 -17 439 6 371 -17 b 10 239 93 -17 -21 86 b 335 436 36 374 157 436 b 447 426 374 436 417 432 l 451 453 b 351 563 465 524 435 563 b 186 522 293 563 232 546 b 153 535 171 515 158 519 l 107 647 b 118 681 101 661 106 672 b 386 742 192 718 282 742 b 581 658 476 742 536 711 b 797 742 642 715 719 742 b 1050 432 974 742 1085 622 l 1028 307 b 1003 285 1026 293 1017 285 l 621 285 l 617 258 b 713 156 608 188 635 156 b 899 210 776 156 840 174 b 932 203 913 219 925 217 l 983 106 b 975 72 990 92 988 81 b 679 -17 896 18 790 -17 b 506 39 608 -17 549 4 m 214 231 b 301 153 204 181 243 153 b 421 178 349 153 394 165 b 418 267 415 206 415 235 l 422 286 b 331 294 394 292 360 294 b 214 231 269 294 225 275 m 642 422 l 853 422 l 858 456 b 772 565 871 526 836 565 b 649 457 708 565 660 526 "},"b":{"ha":747,"x_min":0,"x_max":0,"o":"m 344 711 b 478 742 379 729 424 742 b 706 426 633 742 738 611 l 681 282 b 311 -18 647 88 514 -18 b 36 50 215 -18 113 8 b 22 81 24 57 19 65 l 182 971 b 207 993 183 985 193 993 l 368 993 b 390 967 385 993 392 983 l 344 711 m 497 450 b 413 565 513 526 476 565 b 313 538 375 565 340 554 l 250 181 b 333 164 274 169 301 164 b 471 297 406 164 454 203 "},"c":{"ha":626,"x_min":0,"x_max":0,"o":"m 549 42 b 310 -18 474 0 393 -18 b 43 304 122 -18 8 107 l 74 476 b 419 742 104 651 243 742 b 631 675 507 742 575 715 b 635 642 642 667 643 654 l 553 536 b 519 532 543 525 533 524 b 413 561 489 550 451 561 b 282 454 339 561 294 522 l 253 290 b 342 163 236 206 274 163 b 472 203 381 163 428 176 b 506 194 486 211 499 208 l 560 75 b 549 42 567 61 564 50 "},"ć":{"ha":626,"x_min":0,"x_max":0,"o":"m 549 42 b 310 -18 474 0 393 -18 b 43 304 122 -18 8 107 l 74 476 b 419 742 104 651 243 742 b 631 675 507 742 575 715 b 635 642 642 667 643 654 l 553 536 b 519 532 543 525 533 524 b 413 561 489 550 451 561 b 282 454 339 561 294 522 l 253 290 b 342 163 236 206 274 163 b 472 203 381 163 428 176 b 506 194 486 211 499 208 l 560 75 b 549 42 567 61 564 50 m 326 813 b 313 842 306 813 300 826 l 461 1025 b 492 1039 469 1035 479 1039 l 636 1039 b 649 1008 657 1039 664 1024 l 464 825 b 435 813 456 815 447 813 "},"č":{"ha":626,"x_min":0,"x_max":0,"o":"m 549 42 b 310 -18 474 0 393 -18 b 43 304 122 -18 8 107 l 74 476 b 419 742 104 651 243 742 b 631 675 507 742 575 715 b 635 642 642 667 643 654 l 553 536 b 519 532 543 525 533 524 b 413 561 489 550 451 561 b 282 454 339 561 294 522 l 253 290 b 342 163 236 206 274 163 b 472 203 381 163 428 176 b 506 194 486 211 499 208 l 560 75 b 549 42 567 61 564 50 m 210 1000 b 226 1029 201 1017 207 1029 l 344 1029 b 374 1013 358 1029 368 1025 l 425 922 l 513 1017 b 543 1029 521 1025 531 1029 l 668 1029 b 681 1000 690 1029 696 1014 l 496 815 b 467 803 488 807 479 803 l 354 803 b 325 819 340 803 332 807 "},"ç":{"ha":626,"x_min":0,"x_max":0,"o":"m 549 42 b 328 -18 479 3 404 -15 l 307 -62 b 404 -182 375 -69 417 -117 b 214 -292 392 -254 324 -292 b 132 -281 185 -292 157 -289 b 114 -253 118 -278 113 -267 l 119 -207 b 149 -192 122 -192 132 -187 b 188 -196 161 -194 175 -196 b 265 -154 232 -196 261 -183 b 219 -118 268 -135 256 -122 b 190 -100 206 -117 196 -111 b 199 -81 189 -99 192 -92 l 232 -10 b 43 304 92 19 13 136 l 74 476 b 419 742 104 651 243 742 b 631 675 507 742 575 715 b 635 642 642 667 643 654 l 553 536 b 519 532 543 525 533 524 b 413 561 489 550 451 561 b 282 454 339 561 294 522 l 253 290 b 342 163 236 206 274 163 b 472 203 381 163 428 176 b 506 194 486 211 499 208 l 560 75 b 549 42 567 61 564 50 "},"ċ":{"ha":626,"x_min":0,"x_max":0,"o":"m 549 42 b 310 -18 474 0 393 -18 b 43 304 122 -18 8 107 l 74 476 b 419 742 104 651 243 742 b 631 675 507 742 575 715 b 635 642 642 667 643 654 l 553 536 b 519 532 543 525 533 524 b 413 561 489 550 451 561 b 282 454 339 561 294 522 l 253 290 b 342 163 236 206 274 163 b 472 203 381 163 428 176 b 506 194 486 211 499 208 l 560 75 b 549 42 567 61 564 50 m 543 918 b 421 814 532 860 488 814 b 329 929 357 814 317 864 b 451 1029 340 988 389 1029 b 543 918 515 1029 556 983 "},"d":{"ha":749,"x_min":0,"x_max":0,"o":"m 599 33 b 321 -18 519 1 413 -18 b 40 304 119 -18 8 119 l 69 464 b 390 742 99 629 225 742 b 525 713 442 742 490 731 l 571 971 b 596 993 574 985 582 993 l 757 993 b 779 967 774 993 782 982 l 619 58 b 599 33 618 46 611 38 m 251 289 b 340 167 235 201 265 167 b 432 182 374 167 410 172 l 494 540 b 403 564 472 556 438 564 b 278 438 336 564 293 522 l 251 289 "},"ð":{"ha":758,"x_min":0,"x_max":0,"o":"m 635 882 b 715 474 710 794 749 663 l 679 274 b 307 -18 647 92 511 -18 b 38 294 142 -18 1 99 l 58 410 b 372 661 83 553 211 661 b 543 589 446 661 506 632 b 478 767 544 665 518 724 l 385 699 b 351 704 371 688 360 692 l 326 742 b 333 776 318 754 319 767 l 396 822 b 267 847 356 839 311 847 b 243 874 249 847 242 858 l 265 997 b 290 1019 268 1014 276 1019 b 563 944 386 1019 483 997 l 653 1011 b 686 1004 667 1022 678 1017 l 710 967 b 703 932 718 954 717 943 m 246 271 b 333 164 233 200 264 164 b 464 269 404 164 451 201 l 481 365 b 394 481 494 436 464 481 b 263 372 322 481 275 439 l 246 271 "},"ď":{"ha":864,"x_min":0,"x_max":0,"o":"m 596 33 b 321 -18 517 1 411 -18 b 42 304 121 -18 8 119 l 69 464 b 389 742 99 629 225 742 b 521 711 440 742 486 731 l 568 971 b 593 993 569 985 578 993 l 754 993 b 776 967 769 993 778 982 l 617 58 b 596 33 614 46 608 38 m 251 289 b 339 167 236 203 265 167 b 428 182 372 167 406 172 l 492 539 b 400 564 468 556 435 564 b 278 438 336 564 293 522 l 251 289 m 801 708 b 783 736 785 708 776 719 l 871 974 b 899 993 875 986 885 993 l 1014 993 b 1031 964 1032 993 1040 982 l 919 726 b 892 708 914 715 904 708 "},"đ":{"ha":747,"x_min":0,"x_max":0,"o":"m 597 33 b 319 -18 518 1 411 -18 b 39 304 118 -18 7 126 l 64 436 b 383 707 94 596 218 707 b 518 676 435 707 482 696 l 538 794 l 381 794 b 360 821 365 794 357 806 l 371 882 b 396 903 374 896 382 903 l 557 903 l 569 971 b 594 993 572 985 581 993 l 756 993 b 778 967 772 993 781 982 l 767 903 l 843 903 b 865 878 860 903 868 893 l 854 817 b 829 794 851 801 843 794 l 747 794 l 618 58 b 597 33 617 46 610 38 m 250 289 b 339 167 235 201 264 167 b 431 182 372 167 408 172 l 486 504 b 394 529 464 519 431 529 b 271 410 328 529 285 489 l 250 289 "},"e":{"ha":721,"x_min":0,"x_max":0,"o":"m 75 475 b 421 742 108 657 253 742 b 688 443 599 742 725 647 l 664 308 b 639 288 661 294 653 288 l 253 288 l 249 268 b 344 158 235 194 268 158 b 525 214 406 158 469 181 b 557 207 539 224 550 222 l 614 100 b 606 67 619 86 618 74 b 315 -18 531 15 436 -18 b 39 274 133 -18 7 93 l 75 475 m 488 461 b 403 565 497 517 474 565 b 285 464 343 565 297 529 l 278 426 l 481 426 "},"é":{"ha":721,"x_min":0,"x_max":0,"o":"m 75 475 b 421 742 108 657 253 742 b 688 443 599 742 725 647 l 664 308 b 639 288 661 294 653 288 l 253 288 l 249 268 b 344 158 235 194 268 158 b 525 214 406 158 469 181 b 557 207 539 224 550 222 l 614 100 b 606 67 619 86 618 74 b 315 -18 531 15 436 -18 b 39 274 133 -18 7 93 l 75 475 m 488 461 b 403 565 497 517 474 565 b 285 464 343 565 297 529 l 278 426 l 481 426 m 353 813 b 339 842 332 813 326 826 l 488 1025 b 518 1039 496 1035 506 1039 l 663 1039 b 675 1008 683 1039 690 1024 l 490 825 b 461 813 482 815 474 813 "},"ě":{"ha":721,"x_min":0,"x_max":0,"o":"m 75 475 b 421 742 108 657 253 742 b 688 443 599 742 725 647 l 664 308 b 639 288 661 294 653 288 l 253 288 l 249 268 b 344 158 235 194 268 158 b 525 214 406 158 469 181 b 557 207 539 224 550 222 l 614 100 b 606 67 619 86 618 74 b 315 -18 531 15 436 -18 b 39 274 133 -18 7 93 l 75 475 m 488 461 b 403 565 497 517 474 565 b 285 464 343 565 297 529 l 278 426 l 481 426 m 238 1008 b 254 1038 229 1025 235 1038 l 372 1038 b 401 1021 386 1038 396 1033 l 453 931 l 540 1025 b 571 1038 549 1033 558 1038 l 696 1038 b 708 1008 718 1038 724 1022 l 524 824 b 494 811 515 815 507 811 l 382 811 b 353 828 368 811 360 815 "},"ê":{"ha":721,"x_min":0,"x_max":0,"o":"m 75 475 b 421 742 108 657 253 742 b 688 443 599 742 725 647 l 664 308 b 639 288 661 294 653 288 l 253 288 l 249 268 b 344 158 235 194 268 158 b 525 214 406 158 469 181 b 557 207 539 224 550 222 l 614 100 b 606 67 619 86 618 74 b 315 -18 531 15 436 -18 b 39 274 133 -18 7 93 l 75 475 m 488 461 b 403 565 497 517 474 565 b 285 464 343 565 297 529 l 278 426 l 481 426 m 676 828 b 660 799 685 811 679 799 l 542 799 b 513 815 528 799 518 803 l 461 906 l 374 811 b 343 799 365 803 356 799 l 218 799 b 206 828 196 799 190 814 l 390 1013 b 419 1025 399 1021 407 1025 l 532 1025 b 561 1008 546 1025 554 1021 "},"ë":{"ha":721,"x_min":0,"x_max":0,"o":"m 75 475 b 421 742 108 657 253 742 b 688 443 599 742 725 647 l 664 308 b 639 288 661 294 653 288 l 253 288 l 249 268 b 344 158 235 194 268 158 b 525 214 406 158 469 181 b 557 207 539 224 550 222 l 614 100 b 606 67 619 86 618 74 b 315 -18 531 15 436 -18 b 39 274 133 -18 7 93 l 75 475 m 488 461 b 403 565 497 517 474 565 b 285 464 343 565 297 529 l 278 426 l 481 426 m 410 904 b 299 806 399 843 356 806 b 217 911 243 806 206 846 b 331 1008 228 972 274 1008 b 410 904 388 1008 422 965 m 699 904 b 589 806 688 843 646 806 b 506 911 532 806 494 846 b 619 1008 517 972 563 1008 b 699 904 676 1008 711 965 "},"ė":{"ha":721,"x_min":0,"x_max":0,"o":"m 75 475 b 421 742 108 657 253 742 b 688 443 599 742 725 647 l 664 308 b 639 288 661 294 653 288 l 253 288 l 249 268 b 344 158 235 194 268 158 b 525 214 406 158 469 181 b 557 207 539 224 550 222 l 614 100 b 606 67 619 86 618 74 b 315 -18 531 15 436 -18 b 39 274 133 -18 7 93 l 75 475 m 488 461 b 403 565 497 517 474 565 b 285 464 343 565 297 529 l 278 426 l 481 426 m 561 919 b 439 815 550 861 506 815 b 347 931 375 815 335 865 b 469 1031 358 989 407 1031 b 561 919 533 1031 574 985 "},"è":{"ha":721,"x_min":0,"x_max":0,"o":"m 75 475 b 421 742 108 657 253 742 b 688 443 599 742 725 647 l 664 308 b 639 288 661 294 653 288 l 253 288 l 249 268 b 344 158 235 194 268 158 b 525 214 406 158 469 181 b 557 207 539 224 550 222 l 614 100 b 606 67 619 86 618 74 b 315 -18 531 15 436 -18 b 39 274 133 -18 7 93 l 75 475 m 488 461 b 403 565 497 517 474 565 b 285 464 343 565 297 529 l 278 426 l 481 426 m 518 840 b 501 813 526 824 518 813 l 406 813 b 376 828 393 813 383 817 l 258 1010 b 274 1039 247 1025 254 1039 l 403 1039 b 431 1021 415 1039 425 1032 "},"ē":{"ha":721,"x_min":0,"x_max":0,"o":"m 75 475 b 421 742 108 657 253 742 b 688 443 599 742 725 647 l 664 308 b 639 288 661 294 653 288 l 253 288 l 249 268 b 344 158 235 194 268 158 b 525 214 406 158 469 181 b 557 207 539 224 550 222 l 614 100 b 606 67 619 86 618 74 b 315 -18 531 15 436 -18 b 39 274 133 -18 7 93 l 75 475 m 488 461 b 403 565 497 517 474 565 b 285 464 343 565 297 529 l 278 426 l 481 426 m 256 946 b 281 968 257 960 267 968 l 646 968 b 667 942 661 968 669 957 l 649 846 b 624 824 646 832 638 824 l 260 824 b 238 850 243 824 235 835 "},"ę":{"ha":714,"x_min":0,"x_max":0,"o":"m 488 -244 b 346 -279 443 -267 394 -279 b 213 -144 250 -279 197 -229 b 304 -18 219 -104 251 -54 b 294 -18 301 -18 297 -18 b 39 274 125 -11 8 99 l 75 476 b 415 742 107 657 251 742 b 681 446 593 742 717 647 l 657 308 b 631 286 654 294 646 286 l 249 286 l 246 269 b 339 158 233 196 265 158 b 518 214 399 158 463 181 b 551 207 532 224 544 221 l 606 106 b 599 71 613 93 611 81 b 475 8 563 46 519 25 b 371 -92 417 -17 376 -57 b 415 -129 367 -119 385 -129 b 468 -121 432 -129 450 -126 b 496 -139 485 -115 494 -122 l 504 -215 b 488 -244 506 -231 500 -239 m 274 424 l 469 424 l 476 464 b 399 568 486 518 465 568 b 281 465 338 568 292 529 "},"f":{"ha":456,"x_min":0,"x_max":0,"o":"m 513 824 b 454 828 496 826 472 828 b 350 731 396 828 363 796 l 346 703 l 468 703 b 490 676 483 703 492 693 l 468 549 b 442 526 465 535 457 526 l 314 526 l 224 22 b 199 0 222 8 214 0 l 38 0 b 15 26 21 0 13 11 l 144 750 b 451 1011 175 922 279 1011 b 539 1006 483 1011 515 1010 b 558 976 554 1003 561 993 l 535 844 b 513 824 533 828 525 822 "},"g":{"ha":749,"x_min":0,"x_max":0,"o":"m 624 68 b 243 -281 581 -181 485 -281 b -8 -197 131 -281 57 -253 b -11 -164 -21 -187 -21 -176 l 74 -56 b 107 -51 83 -43 94 -42 b 261 -94 146 -76 199 -94 b 413 40 344 -94 394 -54 b 289 19 374 28 328 19 b 46 328 108 19 13 144 l 69 460 b 431 742 104 656 251 742 b 710 683 540 742 636 717 b 725 653 722 676 728 667 l 624 68 m 256 310 b 340 199 242 232 272 199 b 442 225 381 199 421 210 l 496 542 b 413 558 478 553 444 558 b 281 453 343 558 293 525 l 256 310 "},"ğ":{"ha":749,"x_min":0,"x_max":0,"o":"m 624 68 b 243 -281 581 -181 485 -281 b -8 -197 131 -281 57 -253 b -11 -164 -21 -187 -21 -176 l 74 -56 b 107 -51 83 -43 94 -42 b 261 -94 146 -76 199 -94 b 413 40 344 -94 394 -54 b 289 19 374 28 328 19 b 46 328 108 19 13 144 l 69 460 b 431 742 104 656 251 742 b 710 683 540 742 636 717 b 725 653 722 676 728 667 l 624 68 m 256 310 b 340 199 242 232 272 199 b 442 225 381 199 421 210 l 496 542 b 413 558 478 553 444 558 b 281 453 343 558 293 525 l 256 310 m 711 997 b 451 810 675 874 601 810 b 261 997 332 810 258 900 b 283 1024 261 1013 271 1021 l 383 1040 b 408 1018 399 1043 406 1035 b 478 954 413 975 435 954 b 569 1022 522 954 553 976 b 599 1040 575 1038 585 1042 l 693 1024 b 711 997 708 1021 715 1011 "},"ģ":{"ha":749,"x_min":0,"x_max":0,"o":"m 624 68 b 243 -281 581 -181 485 -281 b -8 -197 131 -281 57 -253 b -11 -164 -21 -187 -21 -176 l 74 -56 b 107 -51 83 -43 94 -42 b 261 -94 146 -76 199 -94 b 413 40 344 -94 394 -54 b 289 19 374 28 328 19 b 46 328 108 19 13 144 l 69 460 b 431 742 104 656 251 742 b 710 683 540 742 636 717 b 725 653 722 676 728 667 l 624 68 m 256 310 b 340 199 242 232 272 199 b 442 225 381 199 421 210 l 496 542 b 413 558 478 553 444 558 b 281 453 343 558 293 525 l 256 310 m 386 813 b 368 838 367 813 358 822 l 493 1043 b 526 1057 501 1053 511 1057 l 624 1057 b 644 1033 643 1057 651 1049 l 544 829 b 514 813 540 819 529 813 "},"ġ":{"ha":749,"x_min":0,"x_max":0,"o":"m 624 68 b 243 -281 581 -181 485 -281 b -8 -197 131 -281 57 -253 b -11 -164 -21 -187 -21 -176 l 74 -56 b 107 -51 83 -43 94 -42 b 261 -94 146 -76 199 -94 b 413 40 344 -94 394 -54 b 289 19 374 28 328 19 b 46 328 108 19 13 144 l 69 460 b 431 742 104 656 251 742 b 710 683 540 742 636 717 b 725 653 722 676 728 667 l 624 68 m 256 310 b 340 199 242 232 272 199 b 442 225 381 199 421 210 l 496 542 b 413 558 478 553 444 558 b 281 453 343 558 293 525 l 256 310 m 582 922 b 460 818 571 864 526 818 b 368 933 396 818 356 868 b 490 1033 379 992 428 1033 b 582 922 554 1033 594 988 "},"h":{"ha":757,"x_min":0,"x_max":0,"o":"m 344 713 b 481 742 382 731 426 742 b 699 413 643 742 735 618 l 629 22 b 604 0 628 8 618 0 l 444 0 b 422 26 428 0 419 11 l 493 438 b 407 560 508 518 482 560 b 314 536 374 560 339 549 l 224 22 b 197 0 221 8 213 0 l 38 0 b 15 26 22 0 14 11 l 183 971 b 208 993 185 985 193 993 l 368 993 b 389 967 383 993 392 982 l 344 713 "},"ħ":{"ha":758,"x_min":0,"x_max":0,"o":"m 338 676 b 479 707 375 696 424 707 b 696 379 640 707 733 585 l 629 22 b 604 0 626 8 618 0 l 443 0 b 422 26 428 0 419 11 l 490 403 b 406 525 506 483 479 525 b 307 499 369 525 332 514 l 224 22 b 197 0 221 8 213 0 l 38 0 b 15 26 21 0 14 11 l 151 794 l 76 794 b 54 821 60 794 51 806 l 67 882 b 92 903 69 896 78 903 l 171 903 l 182 971 b 208 993 185 985 193 993 l 367 993 b 389 967 383 993 392 982 l 378 903 l 524 903 b 546 878 540 903 547 893 l 533 817 b 508 794 532 801 522 794 l 358 794 l 338 676 "},"i":{"ha":358,"x_min":0,"x_max":0,"o":"m 36 0 b 15 26 21 0 13 11 l 135 701 b 160 722 136 715 146 722 l 321 722 b 343 697 338 722 346 713 l 224 22 b 197 0 221 8 213 0 m 389 924 b 267 824 378 867 329 824 b 165 953 196 824 151 881 b 288 1054 176 1014 224 1054 b 389 924 358 1054 403 999 "},"ı":{"ha":358,"x_min":0,"x_max":0,"o":"m 38 0 b 15 26 22 0 13 11 l 135 701 b 161 722 138 715 146 722 l 322 722 b 344 697 338 722 347 713 l 224 22 b 199 0 221 8 213 0 "},"í":{"ha":358,"x_min":0,"x_max":0,"o":"m 38 0 b 15 26 22 0 13 11 l 135 701 b 161 722 138 715 146 722 l 322 722 b 344 697 338 722 347 713 l 224 22 b 199 0 221 8 213 0 m 172 804 b 158 833 151 804 146 818 l 307 1017 b 338 1031 315 1026 325 1031 l 482 1031 b 494 1000 503 1031 510 1015 l 310 817 b 281 804 301 807 293 804 "},"î":{"ha":354,"x_min":0,"x_max":0,"o":"m 38 0 b 15 26 21 0 13 11 l 135 697 b 160 719 136 711 144 719 l 317 719 b 339 693 332 719 342 708 l 219 22 b 193 0 217 8 208 0 m 46 796 b 33 826 25 796 18 810 l 214 1015 b 244 1028 222 1025 232 1028 l 354 1028 b 383 1011 368 1028 376 1021 l 493 825 b 476 796 503 810 494 796 l 350 796 b 322 813 338 796 328 801 l 278 901 l 197 810 b 168 796 189 800 179 796 "},"ï":{"ha":358,"x_min":0,"x_max":0,"o":"m 38 0 b 15 26 22 0 13 11 l 135 701 b 161 722 138 715 146 722 l 322 722 b 344 697 338 722 347 713 l 224 22 b 199 0 221 8 213 0 m 238 901 b 126 803 226 840 185 803 b 44 908 71 803 33 843 b 158 1006 56 969 101 1006 b 238 901 215 1006 250 963 m 511 901 b 401 803 500 840 458 803 b 318 908 344 803 307 843 b 432 1006 329 969 375 1006 b 511 901 489 1006 524 963 "},"ì":{"ha":358,"x_min":0,"x_max":0,"o":"m 38 0 b 15 26 22 0 13 11 l 135 701 b 161 722 138 715 146 722 l 322 722 b 344 697 338 722 347 713 l 224 22 b 199 0 221 8 213 0 m 332 835 b 315 807 340 818 332 807 l 219 807 b 190 822 207 807 197 811 l 72 1004 b 88 1033 61 1019 68 1033 l 217 1033 b 244 1015 229 1033 239 1026 "},"ĳ":{"ha":767,"x_min":0,"x_max":0,"o":"m 36 0 b 15 26 21 0 13 11 l 135 701 b 160 722 136 715 146 722 l 321 722 b 343 697 338 722 346 713 l 224 22 b 197 0 221 8 213 0 m 389 924 b 267 824 378 867 329 824 b 165 953 196 824 151 881 b 288 1054 176 1014 224 1054 b 389 924 358 1054 403 999 m 629 -1 b 333 -281 590 -221 472 -281 b 268 -275 308 -281 286 -278 b 250 -246 253 -272 247 -261 l 275 -104 b 299 -83 278 -89 286 -82 b 333 -85 310 -85 322 -85 b 424 24 379 -85 411 -50 l 542 701 b 568 722 544 715 553 722 l 729 722 b 750 697 744 722 753 713 l 629 -1 m 796 924 b 674 824 785 867 736 824 b 572 953 603 824 558 881 b 694 1054 585 1014 632 1054 b 796 924 765 1054 810 999 "},"ī":{"ha":354,"x_min":0,"x_max":0,"o":"m 89 824 b 67 850 72 824 65 835 l 85 946 b 110 968 88 960 96 968 l 443 968 b 464 942 458 968 467 957 l 446 846 b 421 824 444 832 436 824 m 38 0 b 15 26 21 0 13 11 l 135 697 b 160 719 136 711 144 719 l 317 719 b 339 693 332 719 342 708 l 219 22 b 193 0 217 8 208 0 "},"į":{"ha":354,"x_min":0,"x_max":0,"o":"m 188 -253 b 50 -281 144 -271 96 -281 b -86 -139 -51 -281 -101 -228 b 42 0 -76 -87 -32 -36 l 28 0 b 15 26 17 0 13 11 l 135 697 b 160 719 136 711 144 719 l 317 719 b 339 693 332 719 342 708 l 219 22 b 186 0 215 3 204 0 b 74 -106 119 -28 78 -72 b 118 -136 69 -128 86 -136 b 168 -129 136 -136 153 -133 b 197 -146 186 -124 196 -128 l 204 -224 b 188 -253 206 -237 200 -247 m 386 926 b 256 814 374 863 319 814 b 156 935 185 814 143 867 b 290 1047 167 1001 222 1047 b 386 926 357 1047 399 997 "},"j":{"ha":369,"x_min":0,"x_max":0,"o":"m 232 -1 b -64 -281 193 -221 75 -281 b -129 -275 -89 -281 -111 -278 b -147 -246 -144 -272 -150 -261 l -122 -104 b -99 -83 -119 -89 -111 -82 b -64 -85 -87 -85 -75 -85 b 26 24 -18 -85 14 -50 l 144 701 b 171 722 147 715 156 722 l 332 722 b 353 697 347 722 356 713 l 232 -1 m 399 924 b 276 824 388 867 339 824 b 175 953 206 824 161 881 b 297 1054 188 1014 235 1054 b 399 924 368 1054 413 999 "},"ȷ":{"ha":369,"x_min":0,"x_max":0,"o":"m 232 -1 b -64 -281 193 -221 75 -281 b -129 -275 -89 -281 -111 -278 b -147 -246 -144 -272 -150 -261 l -122 -104 b -99 -83 -119 -89 -111 -82 b -64 -85 -87 -85 -75 -85 b 26 24 -18 -85 14 -50 l 144 701 b 171 722 147 715 156 722 l 332 722 b 353 697 347 722 356 713 l 232 -1 "},"k":{"ha":703,"x_min":0,"x_max":0,"o":"m 725 722 b 738 693 746 722 751 708 l 465 414 l 644 28 b 626 0 651 11 644 0 l 450 0 b 422 19 436 0 426 6 l 318 265 l 257 207 l 224 22 b 199 0 222 8 213 0 l 38 0 b 15 26 22 0 14 11 l 183 971 b 208 993 186 985 194 993 l 369 993 b 392 967 386 993 394 982 l 308 494 l 506 710 b 535 722 513 719 522 722 "},"ķ":{"ha":703,"x_min":0,"x_max":0,"o":"m 725 722 b 738 693 746 722 751 708 l 465 414 l 644 28 b 626 0 651 11 644 0 l 450 0 b 422 19 436 0 426 6 l 318 265 l 257 207 l 224 22 b 199 0 222 8 213 0 l 38 0 b 15 26 22 0 14 11 l 183 971 b 208 993 186 985 194 993 l 369 993 b 392 967 386 993 394 982 l 308 494 l 506 710 b 535 722 513 719 522 722 m 142 -328 b 119 -304 121 -328 114 -319 l 219 -97 b 250 -81 226 -86 236 -81 l 379 -81 b 399 -106 399 -81 408 -90 l 271 -312 b 240 -328 264 -322 256 -328 "},"l":{"ha":414,"x_min":0,"x_max":0,"o":"m 325 -11 b 251 -18 306 -15 281 -18 b 54 281 101 -18 24 100 l 176 971 b 201 993 179 985 188 993 l 363 993 b 383 967 378 993 386 982 l 261 269 b 315 165 249 203 265 165 b 343 165 325 165 335 165 b 365 143 360 167 368 160 l 343 11 b 325 -11 340 -3 335 -10 "},"ĺ":{"ha":414,"x_min":0,"x_max":0,"o":"m 325 -11 b 251 -18 306 -15 281 -18 b 54 281 101 -18 24 100 l 176 971 b 201 993 179 985 188 993 l 363 993 b 383 967 378 993 386 982 l 261 269 b 315 165 249 203 265 165 b 343 165 325 165 335 165 b 365 143 360 167 368 160 l 343 11 b 325 -11 340 -3 335 -10 m 224 1065 b 210 1096 203 1065 197 1079 l 369 1278 b 399 1292 378 1288 388 1292 l 554 1292 b 567 1261 575 1292 582 1276 l 369 1076 b 342 1065 361 1069 353 1065 "},"ľ":{"ha":500,"x_min":0,"x_max":0,"o":"m 325 -10 b 251 -17 304 -14 279 -17 b 54 282 99 -17 24 100 l 175 971 b 201 993 178 985 186 993 l 361 993 b 383 967 378 993 385 982 l 260 272 b 315 169 249 207 265 169 b 343 171 322 169 332 169 b 365 147 360 171 368 164 l 342 13 b 325 -10 340 0 333 -8 m 435 715 b 417 743 418 715 410 726 l 507 974 b 535 993 511 986 521 993 l 650 993 b 667 964 668 993 676 982 l 553 733 b 525 715 547 722 538 715 "},"ļ":{"ha":414,"x_min":0,"x_max":0,"o":"m 325 -11 b 251 -18 306 -15 281 -18 b 54 281 101 -18 24 100 l 176 971 b 201 993 179 985 188 993 l 363 993 b 383 967 378 993 386 982 l 261 269 b 315 165 249 203 265 165 b 343 165 325 165 335 165 b 365 143 360 167 368 160 l 343 11 b 325 -11 340 -3 335 -10 m 6 -339 b -15 -314 -14 -339 -22 -329 l 83 -106 b 113 -89 89 -94 100 -89 l 239 -89 b 258 -114 258 -89 267 -99 l 133 -324 b 103 -339 126 -333 118 -339 "},"ŀ":{"ha":556,"x_min":0,"x_max":0,"o":"m 326 -10 b 253 -17 306 -14 281 -17 b 56 282 100 -17 24 100 l 176 971 b 203 993 179 985 188 993 l 363 993 b 385 967 379 993 386 982 l 261 272 b 317 169 250 207 267 169 b 344 171 324 169 333 169 b 367 147 361 171 369 164 l 343 13 b 326 -10 342 0 335 -8 m 588 519 b 469 421 578 461 532 421 b 375 549 399 421 363 478 b 493 647 385 608 431 647 b 588 519 563 647 600 593 "},"ł":{"ha":521,"x_min":0,"x_max":0,"o":"m 361 488 l 322 269 b 376 165 310 203 314 165 b 404 165 386 165 396 165 b 426 143 421 167 429 160 l 404 11 b 381 -12 401 -3 394 -10 b 313 -18 361 -17 338 -18 b 114 271 133 -18 82 90 l 125 335 l 44 281 b 17 299 26 268 14 276 l 40 432 b 58 458 43 444 49 451 l 158 524 l 238 971 b 263 993 239 985 249 993 l 424 993 b 444 967 439 993 447 982 l 394 678 l 517 757 b 543 739 533 768 546 761 l 519 606 b 501 579 518 593 511 586 "},"m":{"ha":1111,"x_min":0,"x_max":0,"o":"m 592 686 b 797 742 657 721 728 742 b 1053 403 989 742 1086 600 l 983 22 b 958 0 982 8 972 0 l 801 0 b 779 26 785 0 778 11 l 850 432 b 767 560 865 521 833 560 b 674 535 733 560 699 549 b 672 403 681 496 681 450 l 604 22 b 579 0 603 8 593 0 l 422 0 b 400 26 406 0 397 11 l 471 432 b 394 560 486 521 457 560 b 314 543 364 560 333 553 l 219 22 b 194 0 217 7 208 0 l 35 0 b 14 26 19 0 11 10 l 129 661 b 150 686 132 672 138 681 b 419 742 232 721 333 742 b 592 686 489 742 549 721 "},"n":{"ha":758,"x_min":0,"x_max":0,"o":"m 36 0 b 14 26 19 0 11 11 l 128 661 b 149 686 131 672 136 681 b 431 742 236 719 340 742 b 700 411 640 742 735 608 l 631 22 b 604 0 628 8 619 0 l 444 0 b 422 26 429 0 421 11 l 492 432 b 404 560 508 519 478 560 b 315 543 371 560 336 553 l 224 22 b 197 0 221 7 213 0 "},"ń":{"ha":758,"x_min":0,"x_max":0,"o":"m 36 0 b 14 26 19 0 11 11 l 128 661 b 149 686 131 672 136 681 b 431 742 236 719 340 742 b 700 411 640 742 735 608 l 631 22 b 604 0 628 8 619 0 l 444 0 b 422 26 429 0 421 11 l 492 432 b 404 560 508 519 478 560 b 315 543 371 560 336 553 l 224 22 b 197 0 221 7 213 0 m 363 813 b 349 842 342 813 336 826 l 497 1025 b 528 1039 506 1035 515 1039 l 672 1039 b 685 1008 693 1039 700 1024 l 500 825 b 471 813 492 815 483 813 "},"ň":{"ha":758,"x_min":0,"x_max":0,"o":"m 36 0 b 14 26 19 0 11 11 l 128 661 b 149 686 131 672 136 681 b 431 742 236 719 340 742 b 700 411 640 742 735 608 l 631 22 b 604 0 628 8 619 0 l 444 0 b 422 26 429 0 421 11 l 492 432 b 404 560 508 519 478 560 b 315 543 371 560 336 553 l 224 22 b 197 0 221 7 213 0 m 247 1008 b 264 1038 239 1025 244 1038 l 382 1038 b 411 1021 396 1038 406 1033 l 463 931 l 550 1025 b 581 1038 558 1033 568 1038 l 706 1038 b 718 1008 728 1038 733 1022 l 533 824 b 504 811 525 815 517 811 l 392 811 b 363 828 378 811 369 815 "},"ņ":{"ha":758,"x_min":0,"x_max":0,"o":"m 36 0 b 14 26 19 0 11 11 l 128 661 b 149 686 131 672 136 681 b 431 742 236 719 340 742 b 700 411 640 742 735 608 l 631 22 b 604 0 628 8 619 0 l 444 0 b 422 26 429 0 421 11 l 492 432 b 404 560 508 519 478 560 b 315 543 371 560 336 553 l 224 22 b 197 0 221 7 213 0 m 150 -328 b 129 -304 131 -328 122 -319 l 229 -97 b 260 -81 236 -86 246 -81 l 389 -81 b 410 -106 410 -81 418 -90 l 281 -312 b 250 -328 274 -322 265 -328 "},"ŋ":{"ha":751,"x_min":0,"x_max":0,"o":"m 622 7 b 324 -281 588 -190 488 -281 b 265 -275 300 -281 281 -278 b 246 -246 250 -272 244 -261 l 271 -111 b 293 -92 272 -97 281 -90 b 325 -93 303 -93 314 -93 b 417 21 365 -93 401 -68 l 488 432 b 400 560 503 519 471 560 b 314 543 368 560 335 553 l 222 22 b 196 0 219 7 211 0 l 36 0 b 14 26 19 0 11 11 l 128 661 b 149 686 131 672 138 681 b 425 742 235 719 338 742 b 692 411 633 742 726 608 l 622 7 "},"ñ":{"ha":758,"x_min":0,"x_max":0,"o":"m 36 0 b 14 26 19 0 11 11 l 128 661 b 149 686 131 672 136 681 b 431 742 236 719 340 742 b 700 411 640 742 735 608 l 631 22 b 604 0 628 8 619 0 l 444 0 b 422 26 429 0 421 11 l 492 432 b 404 560 508 519 478 560 b 315 543 371 560 336 553 l 224 22 b 197 0 221 7 213 0 m 715 928 b 560 811 686 876 631 811 b 454 843 524 811 485 828 b 381 865 421 857 401 865 b 322 835 358 865 340 856 b 289 828 311 824 300 819 l 224 871 b 214 904 211 879 207 892 b 378 1019 244 954 300 1019 b 479 989 413 1019 446 1006 b 551 965 508 975 531 965 b 606 996 571 965 588 976 b 640 1001 615 1008 628 1010 l 706 957 b 715 928 718 950 722 939 "},"o":{"ha":743,"x_min":0,"x_max":0,"o":"m 669 257 b 307 -18 638 82 511 -18 b 40 297 121 -18 8 121 l 69 469 b 429 742 100 638 236 742 b 701 432 619 742 731 601 l 669 257 m 249 276 b 331 164 236 208 265 164 b 458 268 403 164 447 203 l 490 446 b 406 560 501 508 472 560 b 281 456 339 560 292 518 l 249 276 "},"ó":{"ha":743,"x_min":0,"x_max":0,"o":"m 669 257 b 307 -18 638 82 511 -18 b 40 297 121 -18 8 121 l 69 469 b 429 742 100 638 236 742 b 701 432 619 742 731 601 l 669 257 m 249 276 b 331 164 236 208 265 164 b 458 268 403 164 447 203 l 490 446 b 406 560 501 508 472 560 b 281 456 339 560 292 518 l 249 276 m 357 813 b 343 842 336 813 331 826 l 492 1025 b 522 1039 500 1035 510 1039 l 667 1039 b 679 1008 688 1039 694 1024 l 494 825 b 465 813 486 815 478 813 "},"ô":{"ha":743,"x_min":0,"x_max":0,"o":"m 669 257 b 307 -18 638 82 511 -18 b 40 297 121 -18 8 121 l 69 469 b 429 742 100 638 236 742 b 701 432 619 742 731 601 l 669 257 m 249 276 b 331 164 236 208 265 164 b 458 268 403 164 447 203 l 490 446 b 406 560 501 508 472 560 b 281 456 339 560 292 518 l 249 276 m 681 828 b 664 799 689 811 683 799 l 546 799 b 517 815 532 799 522 803 l 465 906 l 378 811 b 347 799 369 803 360 799 l 222 799 b 210 828 200 799 194 814 l 394 1013 b 424 1025 403 1021 411 1025 l 536 1025 b 565 1008 550 1025 558 1021 "},"ö":{"ha":743,"x_min":0,"x_max":0,"o":"m 669 257 b 307 -18 638 82 511 -18 b 40 297 121 -18 8 121 l 69 469 b 429 742 100 638 236 742 b 701 432 619 742 731 601 l 669 257 m 249 276 b 331 164 236 208 265 164 b 458 268 403 164 447 203 l 490 446 b 406 560 501 508 472 560 b 281 456 339 560 292 518 l 249 276 m 417 904 b 306 806 406 843 363 806 b 224 911 250 806 213 846 b 338 1008 235 972 281 1008 b 417 904 394 1008 429 965 m 706 904 b 596 806 694 843 653 806 b 513 911 539 806 501 846 b 626 1008 524 972 569 1008 b 706 904 683 1008 718 965 "},"ò":{"ha":743,"x_min":0,"x_max":0,"o":"m 669 257 b 307 -18 638 82 511 -18 b 40 297 121 -18 8 121 l 69 469 b 429 742 100 638 236 742 b 701 432 619 742 731 601 l 669 257 m 249 276 b 331 164 236 208 265 164 b 458 268 403 164 447 203 l 490 446 b 406 560 501 508 472 560 b 281 456 339 560 292 518 l 249 276 m 521 840 b 504 813 529 824 521 813 l 408 813 b 379 828 396 813 386 817 l 261 1010 b 276 1039 250 1025 257 1039 l 406 1039 b 433 1021 418 1039 428 1032 "},"ő":{"ha":743,"x_min":0,"x_max":0,"o":"m 669 257 b 307 -18 638 82 511 -18 b 40 297 121 -18 8 121 l 69 469 b 429 742 100 638 236 742 b 701 432 619 742 731 601 l 669 257 m 249 276 b 331 164 236 208 265 164 b 458 268 403 164 447 203 l 490 446 b 406 560 501 508 472 560 b 281 456 339 560 292 518 l 249 276 m 264 810 b 249 836 244 810 238 821 l 372 994 b 401 1007 379 1003 389 1007 l 511 1007 b 525 981 532 1007 538 996 l 372 822 b 343 810 365 814 354 810 m 513 810 b 497 836 493 810 486 822 l 625 994 b 656 1007 633 1003 643 1007 l 764 1007 b 778 981 785 1007 790 996 l 619 821 b 589 810 611 813 601 810 "},"ō":{"ha":743,"x_min":0,"x_max":0,"o":"m 669 257 b 307 -18 638 82 511 -18 b 40 297 121 -18 8 121 l 69 469 b 429 742 100 638 236 742 b 701 432 619 742 731 601 l 669 257 m 249 276 b 331 164 236 208 265 164 b 458 268 403 164 447 203 l 490 446 b 406 560 501 508 472 560 b 281 456 339 560 292 518 l 249 276 m 267 954 b 292 976 268 968 278 976 l 657 976 b 678 950 672 976 681 965 l 660 854 b 635 832 657 840 649 832 l 271 832 b 249 858 254 832 246 843 "},"ø":{"ha":744,"x_min":0,"x_max":0,"o":"m 672 257 b 310 -18 640 82 514 -18 b 193 3 267 -18 228 -10 l 136 -76 b 106 -90 128 -86 118 -90 l 7 -90 b -7 -62 -14 -90 -19 -81 l 90 76 b 42 297 44 132 25 210 l 72 469 b 435 742 103 638 239 742 b 549 721 476 742 515 735 l 608 803 b 639 817 617 813 626 817 l 738 817 b 751 789 758 817 764 807 l 653 649 b 704 432 699 593 719 515 l 672 257 m 251 276 b 333 164 239 208 269 164 b 461 268 406 164 450 203 l 493 446 b 408 560 506 508 475 560 b 283 456 342 560 294 518 l 251 276 "},"õ":{"ha":743,"x_min":0,"x_max":0,"o":"m 669 257 b 307 -18 638 82 511 -18 b 40 297 121 -18 8 121 l 69 469 b 429 742 100 638 236 742 b 701 432 619 742 731 601 l 669 257 m 249 276 b 331 164 236 208 265 164 b 458 268 403 164 447 203 l 490 446 b 406 560 501 508 472 560 b 281 456 339 560 292 518 l 249 276 m 704 917 b 549 800 675 865 619 800 b 443 832 513 800 474 817 b 369 854 410 846 390 854 b 311 824 347 854 329 844 b 278 817 300 813 289 808 l 213 860 b 203 893 200 868 196 881 b 367 1008 233 943 289 1008 b 468 978 401 1008 435 994 b 540 954 497 964 519 954 b 594 985 560 954 576 965 b 629 990 604 997 617 999 l 694 946 b 704 917 707 939 711 928 "},"œ":{"ha":1139,"x_min":0,"x_max":0,"o":"m 529 58 b 306 -18 472 8 397 -18 b 40 297 121 -18 7 121 l 72 469 b 422 742 103 638 236 742 b 617 663 506 742 572 711 b 839 742 678 715 757 742 b 1106 443 1017 742 1142 647 l 1082 308 b 1056 286 1079 293 1071 286 l 672 286 l 667 257 b 761 158 656 192 692 158 b 942 214 824 158 888 181 b 975 207 957 224 968 222 l 1031 100 b 1024 67 1038 86 1036 74 b 732 -18 949 15 853 -18 b 529 58 651 -18 578 8 m 249 276 b 331 164 236 208 265 164 b 458 268 403 164 446 203 l 492 456 b 406 560 499 513 469 560 b 281 456 339 560 292 518 l 249 276 m 696 424 l 897 424 l 904 461 b 821 568 915 518 892 568 b 703 464 760 568 714 529 "},"p":{"ha":749,"x_min":0,"x_max":0,"o":"m 146 683 b 426 740 226 719 333 740 b 706 418 626 740 738 604 l 678 258 b 357 -18 650 94 522 -18 b 222 13 304 -18 257 -7 l 176 -242 b 151 -264 175 -256 165 -264 l -10 -264 b -31 -237 -26 -264 -33 -253 l 126 658 b 146 683 129 669 135 678 m 496 433 b 407 558 513 524 482 558 b 315 538 374 558 339 550 l 253 185 b 342 158 275 168 310 158 b 471 286 413 158 456 200 "},"þ":{"ha":749,"x_min":0,"x_max":0,"o":"m 347 721 b 454 740 382 733 418 740 b 706 418 628 740 738 604 l 678 258 b 357 -18 650 94 522 -18 b 222 13 306 -18 258 -7 l 176 -244 b 151 -267 175 -258 165 -267 l -10 -267 b -32 -240 -26 -267 -33 -256 l 182 971 b 208 993 185 985 193 993 l 369 993 b 392 967 385 993 393 982 l 347 721 m 496 440 b 407 565 511 526 482 565 b 315 539 374 565 339 554 l 253 185 b 342 158 275 168 310 158 b 471 286 413 158 456 200 "},"q":{"ha":747,"x_min":0,"x_max":0,"o":"m 378 -264 b 356 -237 363 -264 354 -254 l 401 11 b 267 -18 365 -7 321 -18 b 40 297 117 -18 6 113 l 67 443 b 429 742 103 635 233 742 b 710 675 528 742 633 715 b 724 643 722 668 726 657 l 565 -242 b 539 -264 563 -256 554 -264 m 249 274 b 332 158 236 197 272 158 b 432 183 369 158 404 168 l 497 544 b 410 560 474 554 442 560 b 276 426 343 560 294 521 l 249 274 "},"r":{"ha":499,"x_min":0,"x_max":0,"o":"m 38 0 b 15 26 21 0 13 11 l 125 657 b 146 683 128 669 135 678 b 403 742 226 721 315 742 b 518 729 440 742 478 738 b 538 701 533 726 540 715 l 513 565 b 485 544 511 550 500 543 b 404 551 461 549 433 551 b 314 535 368 551 338 544 l 224 22 b 199 0 221 8 213 0 "},"ŕ":{"ha":499,"x_min":0,"x_max":0,"o":"m 38 0 b 15 26 21 0 13 11 l 125 657 b 146 683 128 669 135 678 b 403 742 226 721 315 742 b 518 729 440 742 478 738 b 538 701 533 726 540 715 l 513 565 b 485 544 511 550 500 543 b 404 551 461 549 433 551 b 314 535 368 551 338 544 l 224 22 b 199 0 221 8 213 0 m 271 813 b 257 842 250 813 244 826 l 406 1025 b 436 1039 414 1035 424 1039 l 581 1039 b 593 1008 601 1039 608 1024 l 408 825 b 379 813 400 815 392 813 "},"ř":{"ha":499,"x_min":0,"x_max":0,"o":"m 38 0 b 15 26 21 0 13 11 l 125 657 b 146 683 128 669 135 678 b 403 742 226 721 315 742 b 518 729 440 742 478 738 b 538 701 533 726 540 715 l 513 565 b 485 544 511 550 500 543 b 404 551 461 549 433 551 b 314 535 368 551 338 544 l 224 22 b 199 0 221 8 213 0 m 156 1008 b 172 1038 147 1025 153 1038 l 290 1038 b 319 1021 304 1038 314 1033 l 371 931 l 458 1025 b 489 1038 467 1033 476 1038 l 614 1038 b 626 1008 636 1038 642 1022 l 442 824 b 413 811 433 815 425 811 l 300 811 b 271 828 286 811 278 815 "},"ŗ":{"ha":499,"x_min":0,"x_max":0,"o":"m 38 0 b 15 26 21 0 13 11 l 125 657 b 146 683 128 669 135 678 b 403 742 226 721 315 742 b 518 729 440 742 478 738 b 538 701 533 726 540 715 l 513 565 b 485 544 511 550 500 543 b 404 551 461 549 433 551 b 314 535 368 551 338 544 l 224 22 b 199 0 221 8 213 0 m -47 -331 b -69 -306 -68 -331 -75 -321 l 32 -97 b 63 -81 39 -86 49 -81 l 192 -81 b 213 -106 213 -81 222 -90 l 83 -315 b 53 -331 78 -325 68 -331 "},"s":{"ha":669,"x_min":0,"x_max":0,"o":"m 607 197 b 282 -18 579 50 456 -18 b 0 75 167 -18 76 13 b -4 108 -12 85 -12 97 l 75 217 b 108 222 85 229 96 231 b 289 163 163 182 224 163 b 396 215 356 163 389 183 b 301 282 406 258 357 269 b 88 542 165 310 57 392 b 401 742 117 682 233 742 b 646 678 497 742 571 721 b 651 644 660 669 661 657 l 569 535 b 536 528 561 522 550 521 b 382 565 493 553 440 565 b 293 519 331 565 299 554 b 396 450 285 478 329 465 b 607 197 503 426 636 360 "},"ś":{"ha":669,"x_min":0,"x_max":0,"o":"m 607 197 b 282 -18 579 50 456 -18 b 0 75 167 -18 76 13 b -4 108 -12 85 -12 97 l 75 217 b 108 222 85 229 96 231 b 289 163 163 182 224 163 b 396 215 356 163 389 183 b 301 282 406 258 357 269 b 88 542 165 310 57 392 b 401 742 117 682 233 742 b 646 678 497 742 571 721 b 651 644 660 669 661 657 l 569 535 b 536 528 561 522 550 521 b 382 565 493 553 440 565 b 293 519 331 565 299 554 b 396 450 285 478 329 465 b 607 197 503 426 636 360 m 326 813 b 313 842 306 813 300 826 l 461 1025 b 492 1039 469 1035 479 1039 l 636 1039 b 649 1008 657 1039 664 1024 l 464 825 b 435 813 456 815 447 813 "},"š":{"ha":669,"x_min":0,"x_max":0,"o":"m 607 197 b 282 -18 579 50 456 -18 b 0 75 167 -18 76 13 b -4 108 -12 85 -12 97 l 75 217 b 108 222 85 229 96 231 b 289 163 163 182 224 163 b 396 215 356 163 389 183 b 301 282 406 258 357 269 b 88 542 165 310 57 392 b 401 742 117 682 233 742 b 646 678 497 742 571 721 b 651 644 660 669 661 657 l 569 535 b 536 528 561 522 550 521 b 382 565 493 553 440 565 b 293 519 331 565 299 554 b 396 450 285 478 329 465 b 607 197 503 426 636 360 m 203 997 b 219 1026 194 1014 200 1026 l 338 1026 b 367 1010 351 1026 361 1022 l 418 919 l 506 1014 b 536 1026 514 1022 524 1026 l 661 1026 b 674 997 683 1026 689 1011 l 489 813 b 460 800 481 804 472 800 l 347 800 b 318 817 333 800 325 804 "},"ş":{"ha":669,"x_min":0,"x_max":0,"o":"m 607 197 b 322 -17 581 61 475 -6 l 292 -71 b 389 -190 360 -78 401 -125 b 199 -300 376 -262 308 -300 b 117 -289 169 -300 142 -297 b 99 -261 103 -286 97 -275 l 104 -215 b 133 -200 107 -200 117 -196 b 172 -204 146 -203 160 -204 b 250 -162 217 -204 246 -192 b 193 -122 253 -143 244 -128 b 181 -93 169 -119 169 -114 l 222 -15 b 0 75 135 -6 63 24 b -4 108 -12 85 -12 97 l 75 217 b 108 222 85 229 96 231 b 289 163 163 182 224 163 b 396 215 356 163 389 183 b 301 282 406 258 357 269 b 88 542 165 310 57 392 b 401 742 117 682 233 742 b 646 678 497 742 571 721 b 651 644 660 669 661 657 l 569 535 b 536 528 561 522 550 521 b 382 565 493 553 440 565 b 293 519 331 565 299 554 b 396 450 285 478 329 465 b 607 197 503 426 636 360 "},"ș":{"ha":669,"x_min":0,"x_max":0,"o":"m 607 197 b 282 -18 579 50 456 -18 b 0 75 167 -18 76 13 b -4 108 -12 85 -12 97 l 75 217 b 108 222 85 229 96 231 b 289 163 163 182 224 163 b 396 215 356 163 389 183 b 301 282 406 258 357 269 b 88 542 165 310 57 392 b 401 742 117 682 233 742 b 646 678 497 742 571 721 b 651 644 660 669 661 657 l 569 535 b 536 528 561 522 550 521 b 382 565 493 553 440 565 b 293 519 331 565 299 554 b 396 450 285 478 329 465 b 607 197 503 426 636 360 m 114 -335 b 93 -311 94 -335 86 -326 l 192 -104 b 222 -86 199 -93 208 -86 l 350 -86 b 369 -111 369 -86 379 -96 l 243 -319 b 213 -335 236 -331 228 -335 "},"ß":{"ha":788,"x_min":0,"x_max":0,"o":"m 497 1011 b 763 697 690 1011 793 864 b 625 522 750 629 704 554 b 726 274 707 478 749 393 b 392 -11 694 92 565 -11 b 294 0 354 -11 321 -7 b 276 29 279 4 274 15 l 300 160 b 329 179 303 175 314 182 b 385 172 347 175 368 172 b 519 299 450 172 508 217 b 421 411 532 376 490 411 l 372 411 b 350 438 356 411 347 421 l 374 571 b 400 592 376 585 385 592 l 451 592 b 558 710 503 592 547 639 b 475 828 571 783 536 828 b 342 689 403 828 358 779 l 222 22 b 197 0 219 8 211 0 l 36 0 b 15 26 21 0 13 10 l 138 707 b 497 1011 174 910 313 1011 "},"t":{"ha":456,"x_min":0,"x_max":0,"o":"m 307 529 l 260 261 b 328 165 249 199 271 165 b 365 165 339 165 351 165 b 388 142 382 167 392 160 l 365 13 b 342 -11 363 -1 356 -10 b 271 -18 321 -15 294 -18 b 54 278 117 -18 18 75 l 158 874 b 185 896 161 888 169 896 l 321 896 b 344 871 338 896 346 886 l 336 706 l 447 706 b 469 679 464 706 472 694 l 447 551 b 421 529 444 536 436 529 "},"ŧ":{"ha":475,"x_min":0,"x_max":0,"o":"m 360 -10 b 289 -17 339 -14 313 -17 b 71 279 133 -17 35 76 l 78 319 l 32 319 b 11 346 15 319 8 331 l 24 410 b 49 432 25 424 35 432 l 97 432 l 175 872 b 201 894 178 886 186 894 l 339 894 b 361 869 354 894 363 886 l 353 703 l 467 703 b 488 676 482 703 490 692 l 465 550 b 440 528 464 536 454 528 l 325 528 l 307 432 l 390 432 b 413 406 407 432 415 421 l 400 342 b 375 319 397 326 389 319 l 288 319 l 276 263 b 346 167 267 201 289 167 b 382 168 356 167 369 168 b 406 143 400 169 410 161 l 382 14 b 360 -10 381 1 372 -8 "},"ť":{"ha":457,"x_min":0,"x_max":0,"o":"m 344 -11 b 274 -18 324 -15 297 -18 b 56 278 118 -18 21 75 l 160 874 b 186 896 163 888 171 896 l 324 896 b 346 871 339 896 347 888 l 338 706 l 450 706 b 471 679 465 706 474 694 l 449 553 b 424 531 447 539 439 531 l 310 531 l 263 261 b 331 165 251 199 274 165 b 367 165 340 165 354 165 b 390 142 385 168 394 160 l 368 13 b 344 -11 365 -1 357 -10 m 436 803 b 418 831 418 803 411 814 l 501 1042 b 529 1060 507 1056 517 1060 l 651 1060 b 668 1032 669 1060 675 1049 l 558 819 b 529 803 553 808 543 803 "},"ţ":{"ha":456,"x_min":0,"x_max":0,"o":"m 21 -337 b 0 -312 1 -337 -7 -328 l 99 -101 b 128 -83 104 -89 115 -83 l 254 -83 b 274 -108 274 -83 282 -93 l 149 -322 b 118 -337 142 -332 133 -337 m 307 529 l 260 261 b 328 165 249 199 271 165 b 365 165 339 165 351 165 b 388 142 382 167 392 160 l 365 13 b 342 -11 363 -1 356 -10 b 271 -18 321 -15 294 -18 b 54 278 117 -18 18 75 l 158 874 b 185 896 161 888 169 896 l 321 896 b 344 871 338 896 346 886 l 336 706 l 447 706 b 469 679 464 706 472 694 l 447 551 b 421 529 444 536 436 529 "},"ț":{"ha":456,"x_min":0,"x_max":0,"o":"m 307 529 l 260 261 b 328 165 249 199 271 165 b 365 165 339 165 351 165 b 388 142 382 167 392 160 l 365 13 b 342 -11 363 -1 356 -10 b 271 -18 321 -15 294 -18 b 54 278 117 -18 18 75 l 158 874 b 185 896 161 888 169 896 l 321 896 b 344 871 338 896 346 886 l 336 706 l 447 706 b 469 679 464 706 472 694 l 447 551 b 421 529 444 536 436 529 m 22 -333 b 0 -310 1 -333 -6 -325 l 100 -103 b 131 -86 107 -92 117 -86 l 260 -86 b 279 -111 279 -86 289 -96 l 151 -318 b 121 -333 144 -328 136 -333 "},"u":{"ha":751,"x_min":0,"x_max":0,"o":"m 718 722 b 739 697 735 722 742 713 l 626 63 b 606 38 624 50 617 42 b 326 -17 519 3 414 -17 b 60 311 119 -17 25 115 l 129 701 b 154 722 132 715 140 722 l 315 722 b 336 697 331 722 339 713 l 267 290 b 351 164 251 204 282 164 b 438 179 385 164 418 171 l 531 701 b 556 722 532 715 542 722 "},"ú":{"ha":751,"x_min":0,"x_max":0,"o":"m 718 722 b 739 697 735 722 742 713 l 626 63 b 606 38 624 50 617 42 b 326 -17 519 3 414 -17 b 60 311 119 -17 25 115 l 129 701 b 154 722 132 715 140 722 l 315 722 b 336 697 331 722 339 713 l 267 290 b 351 164 251 204 282 164 b 438 179 385 164 418 171 l 531 701 b 556 722 532 715 542 722 m 376 810 b 363 839 356 810 350 824 l 511 1022 b 542 1036 519 1032 529 1036 l 686 1036 b 699 1006 707 1036 714 1021 l 514 822 b 485 810 506 813 497 810 "},"û":{"ha":751,"x_min":0,"x_max":0,"o":"m 718 722 b 739 697 735 722 742 713 l 626 63 b 606 38 624 50 617 42 b 326 -17 519 3 414 -17 b 60 311 119 -17 25 115 l 129 701 b 154 722 132 715 140 722 l 315 722 b 336 697 331 722 339 713 l 267 290 b 351 164 251 204 282 164 b 438 179 385 164 418 171 l 531 701 b 556 722 532 715 542 722 m 686 842 b 669 813 694 825 689 813 l 551 813 b 522 829 538 813 528 817 l 471 919 l 383 825 b 353 813 375 817 365 813 l 228 813 b 215 842 206 813 200 828 l 400 1026 b 429 1039 408 1035 417 1039 l 542 1039 b 571 1022 556 1039 564 1035 "},"ü":{"ha":751,"x_min":0,"x_max":0,"o":"m 718 722 b 739 697 735 722 742 713 l 626 63 b 606 38 624 50 617 42 b 326 -17 519 3 414 -17 b 60 311 119 -17 25 115 l 129 701 b 154 722 132 715 140 722 l 315 722 b 336 697 331 722 339 713 l 267 290 b 351 164 251 204 282 164 b 438 179 385 164 418 171 l 531 701 b 556 722 532 715 542 722 m 421 907 b 310 808 410 846 367 808 b 228 914 254 808 217 849 b 342 1011 239 975 285 1011 b 421 907 399 1011 433 968 m 710 907 b 600 808 699 846 657 808 b 517 914 543 808 506 849 b 631 1011 528 975 574 1011 b 710 907 688 1011 722 968 "},"ù":{"ha":751,"x_min":0,"x_max":0,"o":"m 718 722 b 739 697 735 722 742 713 l 626 63 b 606 38 624 50 617 42 b 326 -17 519 3 414 -17 b 60 311 119 -17 25 115 l 129 701 b 154 722 132 715 140 722 l 315 722 b 336 697 331 722 339 713 l 267 290 b 351 164 251 204 282 164 b 438 179 385 164 418 171 l 531 701 b 556 722 532 715 542 722 m 519 840 b 503 813 528 824 519 813 l 407 813 b 378 828 394 813 385 817 l 260 1010 b 275 1039 249 1025 256 1039 l 404 1039 b 432 1021 417 1039 426 1032 "},"ű":{"ha":751,"x_min":0,"x_max":0,"o":"m 718 722 b 739 697 735 722 742 713 l 626 63 b 606 38 624 50 617 42 b 326 -17 519 3 414 -17 b 60 311 119 -17 25 115 l 129 701 b 154 722 132 715 140 722 l 315 722 b 336 697 331 722 339 713 l 267 290 b 351 164 251 204 282 164 b 438 179 385 164 418 171 l 531 701 b 556 722 532 715 542 722 m 269 799 b 254 828 250 799 243 811 l 376 1010 b 406 1025 383 1019 393 1025 l 514 1025 b 528 994 535 1025 540 1011 l 376 813 b 347 799 369 803 358 799 m 515 799 b 500 828 496 799 489 813 l 628 1010 b 657 1025 636 1019 644 1025 l 765 1025 b 779 994 786 1025 792 1011 l 622 811 b 592 799 614 801 604 799 "},"ū":{"ha":751,"x_min":0,"x_max":0,"o":"m 718 722 b 739 697 735 722 742 713 l 626 63 b 606 38 624 50 617 42 b 326 -17 519 3 414 -17 b 60 311 119 -17 25 115 l 129 701 b 154 722 132 715 140 722 l 315 722 b 336 697 331 722 339 713 l 267 290 b 351 164 251 204 282 164 b 438 179 385 164 418 171 l 531 701 b 556 722 532 715 542 722 m 274 944 b 299 967 275 958 285 967 l 664 967 b 685 940 679 967 688 956 l 667 844 b 642 822 664 831 656 822 l 278 822 b 256 849 261 822 253 833 "},"ų":{"ha":743,"x_min":0,"x_max":0,"o":"m 533 -246 b 392 -281 489 -268 440 -281 b 258 -146 297 -281 244 -231 b 375 -11 265 -101 307 -49 l 375 -10 b 322 -17 363 -12 340 -17 b 60 313 125 -17 22 107 l 128 701 b 153 722 131 715 139 722 l 313 722 b 335 697 329 722 338 713 l 264 292 b 346 167 249 207 278 167 b 431 182 378 167 411 174 l 524 701 b 549 722 526 715 535 722 l 710 722 b 731 697 726 722 733 713 l 617 64 b 594 39 614 51 607 43 b 418 -90 510 8 428 -42 b 461 -131 413 -119 431 -131 b 514 -122 478 -131 497 -126 b 543 -139 531 -117 542 -122 l 550 -217 b 533 -246 551 -232 546 -240 "},"ů":{"ha":751,"x_min":0,"x_max":0,"o":"m 718 722 b 739 697 735 722 742 713 l 626 63 b 606 38 624 50 617 42 b 326 -17 519 3 414 -17 b 60 311 119 -17 25 115 l 129 701 b 154 722 132 715 140 722 l 315 722 b 336 697 331 722 339 713 l 267 290 b 351 164 251 204 282 164 b 438 179 385 164 418 171 l 531 701 b 556 722 532 715 542 722 m 643 931 b 439 783 622 840 547 783 b 294 931 347 783 278 853 b 500 1079 311 1022 389 1079 b 643 931 590 1079 658 1010 m 406 931 b 457 874 399 897 421 874 b 531 931 496 874 524 897 b 479 988 539 967 519 988 b 406 931 443 988 413 967 "},"v":{"ha":708,"x_min":0,"x_max":0,"o":"m 201 0 b 175 22 186 0 176 7 l 68 697 b 92 722 67 713 75 722 l 253 722 b 278 700 267 722 276 715 l 311 401 b 328 218 317 354 324 281 l 331 218 b 406 403 356 279 381 343 l 538 704 b 567 722 543 715 553 722 l 739 722 b 756 694 757 722 764 711 l 413 18 b 385 0 407 6 397 0 "},"w":{"ha":1031,"x_min":0,"x_max":0,"o":"m 158 0 b 133 22 144 0 135 7 l 72 697 b 96 722 71 714 81 722 l 256 722 b 281 699 271 722 281 715 l 286 471 b 289 238 288 410 289 300 l 294 238 b 375 469 317 308 350 406 l 464 694 b 492 713 469 707 479 713 l 657 713 b 681 690 672 713 681 706 l 692 468 b 696 238 694 397 697 307 l 701 238 b 785 474 721 300 761 408 l 869 704 b 897 722 875 717 885 722 l 1057 722 b 1075 696 1075 722 1083 713 l 778 18 b 749 0 772 7 763 0 l 575 0 b 550 24 560 0 551 8 l 540 254 b 536 458 539 318 538 410 l 532 458 b 460 254 517 408 479 303 l 361 19 b 335 0 357 7 347 0 "},"ẃ":{"ha":1031,"x_min":0,"x_max":0,"o":"m 158 0 b 133 22 144 0 135 7 l 72 697 b 96 722 71 714 81 722 l 256 722 b 281 699 271 722 281 715 l 286 471 b 289 238 288 410 289 300 l 294 238 b 375 469 317 308 350 406 l 464 694 b 492 713 469 707 479 713 l 657 713 b 681 690 672 713 681 706 l 692 468 b 696 238 694 397 697 307 l 701 238 b 785 474 721 300 761 408 l 869 704 b 897 722 875 717 885 722 l 1057 722 b 1075 696 1075 722 1083 713 l 778 18 b 749 0 772 7 763 0 l 575 0 b 550 24 560 0 551 8 l 540 254 b 536 458 539 318 538 410 l 532 458 b 460 254 517 408 479 303 l 361 19 b 335 0 357 7 347 0 m 497 799 b 483 828 476 799 471 813 l 632 1011 b 663 1025 640 1021 650 1025 l 807 1025 b 819 994 828 1025 835 1010 l 635 811 b 606 799 626 801 618 799 "},"ŵ":{"ha":1031,"x_min":0,"x_max":0,"o":"m 158 0 b 133 22 144 0 135 7 l 72 697 b 96 722 71 714 81 722 l 256 722 b 281 699 271 722 281 715 l 286 471 b 289 238 288 410 289 300 l 294 238 b 375 469 317 308 350 406 l 464 694 b 492 713 469 707 479 713 l 657 713 b 681 690 672 713 681 706 l 692 468 b 696 238 694 397 697 307 l 701 238 b 785 474 721 300 761 408 l 869 704 b 897 722 875 717 885 722 l 1057 722 b 1075 696 1075 722 1083 713 l 778 18 b 749 0 772 7 763 0 l 575 0 b 550 24 560 0 551 8 l 540 254 b 536 458 539 318 538 410 l 532 458 b 460 254 517 408 479 303 l 361 19 b 335 0 357 7 347 0 m 824 828 b 807 799 832 811 826 799 l 689 799 b 660 815 675 799 665 803 l 608 906 l 521 811 b 490 799 513 803 503 799 l 365 799 b 353 828 343 799 338 814 l 538 1013 b 567 1025 546 1021 554 1025 l 679 1025 b 708 1008 693 1025 701 1021 "},"ẅ":{"ha":1031,"x_min":0,"x_max":0,"o":"m 535 901 b 424 803 524 840 481 803 b 342 908 368 803 331 843 b 456 1006 353 969 399 1006 b 535 901 513 1006 547 963 m 850 901 b 739 803 839 840 796 803 b 657 908 683 803 646 843 b 771 1006 668 969 714 1006 b 850 901 828 1006 863 963 m 158 0 b 133 22 144 0 135 7 l 72 697 b 96 722 71 714 81 722 l 256 722 b 281 699 271 722 281 715 l 286 471 b 289 238 288 410 289 300 l 294 238 b 375 469 317 308 350 406 l 464 694 b 492 713 469 707 479 713 l 657 713 b 681 690 672 713 681 706 l 692 468 b 696 238 694 397 697 307 l 701 238 b 785 474 721 300 761 408 l 869 704 b 897 722 875 717 885 722 l 1057 722 b 1075 696 1075 722 1083 713 l 778 18 b 749 0 772 7 763 0 l 575 0 b 550 24 560 0 551 8 l 540 254 b 536 458 539 318 538 410 l 532 458 b 460 254 517 408 479 303 l 361 19 b 335 0 357 7 347 0 "},"ẁ":{"ha":1031,"x_min":0,"x_max":0,"o":"m 158 0 b 133 22 144 0 135 7 l 72 697 b 96 722 71 714 81 722 l 256 722 b 281 699 271 722 281 715 l 286 471 b 289 238 288 410 289 300 l 294 238 b 375 469 317 308 350 406 l 464 694 b 492 713 469 707 479 713 l 657 713 b 681 690 672 713 681 706 l 692 468 b 696 238 694 397 697 307 l 701 238 b 785 474 721 300 761 408 l 869 704 b 897 722 875 717 885 722 l 1057 722 b 1075 696 1075 722 1083 713 l 778 18 b 749 0 772 7 763 0 l 575 0 b 550 24 560 0 551 8 l 540 254 b 536 458 539 318 538 410 l 532 458 b 460 254 517 408 479 303 l 361 19 b 335 0 357 7 347 0 m 657 828 b 640 800 665 811 657 800 l 544 800 b 515 815 532 800 522 804 l 397 997 b 413 1026 386 1013 393 1026 l 542 1026 b 569 1008 554 1026 564 1019 "},"x":{"ha":682,"x_min":0,"x_max":0,"o":"m 694 722 b 710 694 714 722 721 710 l 474 360 l 603 28 b 583 0 610 11 601 0 l 413 0 b 386 21 399 0 390 7 l 324 222 l 185 17 b 156 0 178 6 168 0 l -25 0 b -42 29 -46 0 -53 14 l 213 375 l 94 696 b 113 722 89 713 96 722 l 281 722 b 307 703 294 722 303 717 l 363 496 l 492 707 b 519 722 497 718 506 722 "},"y":{"ha":749,"x_min":0,"x_max":0,"o":"m 524 701 b 550 722 526 715 535 722 l 710 722 b 732 697 725 722 733 713 l 621 68 b 244 -281 576 -181 472 -281 b -6 -200 133 -281 56 -253 b -8 -167 -17 -192 -17 -178 l 78 -57 b 113 -51 88 -43 99 -43 b 261 -96 150 -78 200 -96 b 410 40 349 -96 394 -57 b 292 19 372 28 333 19 b 60 333 121 19 28 146 l 126 701 b 151 722 128 715 136 722 l 311 722 b 333 697 328 722 336 713 l 264 314 b 346 197 249 232 283 197 b 439 221 383 197 418 208 "},"ý":{"ha":749,"x_min":0,"x_max":0,"o":"m 524 701 b 550 722 526 715 535 722 l 710 722 b 732 697 725 722 733 713 l 621 68 b 244 -281 576 -181 472 -281 b -6 -200 133 -281 56 -253 b -8 -167 -17 -192 -17 -178 l 78 -57 b 113 -51 88 -43 99 -43 b 261 -96 150 -78 200 -96 b 410 40 349 -96 394 -57 b 292 19 372 28 333 19 b 60 333 121 19 28 146 l 126 701 b 151 722 128 715 136 722 l 311 722 b 333 697 328 722 336 713 l 264 314 b 346 197 249 232 283 197 b 439 221 383 197 418 208 m 367 800 b 353 829 346 800 340 814 l 501 1013 b 532 1026 510 1022 519 1026 l 676 1026 b 689 996 697 1026 704 1011 l 504 813 b 475 800 496 803 488 800 "},"ŷ":{"ha":749,"x_min":0,"x_max":0,"o":"m 524 701 b 550 722 526 715 535 722 l 710 722 b 732 697 725 722 733 713 l 621 68 b 244 -281 576 -181 472 -281 b -6 -200 133 -281 56 -253 b -8 -167 -17 -192 -17 -178 l 78 -57 b 113 -51 88 -43 99 -43 b 261 -96 150 -78 200 -96 b 410 40 349 -96 394 -57 b 292 19 372 28 333 19 b 60 333 121 19 28 146 l 126 701 b 151 722 128 715 136 722 l 311 722 b 333 697 328 722 336 713 l 264 314 b 346 197 249 232 283 197 b 439 221 383 197 418 208 m 690 832 b 674 803 699 815 693 803 l 556 803 b 526 819 542 803 532 807 l 475 910 l 388 815 b 357 803 379 807 369 803 l 232 803 b 219 832 210 803 204 818 l 404 1017 b 433 1029 413 1025 421 1029 l 546 1029 b 575 1013 560 1029 568 1025 "},"ÿ":{"ha":749,"x_min":0,"x_max":0,"o":"m 524 701 b 550 722 526 715 535 722 l 710 722 b 732 697 725 722 733 713 l 621 68 b 244 -281 576 -181 472 -281 b -6 -200 133 -281 56 -253 b -8 -167 -17 -192 -17 -178 l 78 -57 b 113 -51 88 -43 99 -43 b 261 -96 150 -78 200 -96 b 410 40 349 -96 394 -57 b 292 19 372 28 333 19 b 60 333 121 19 28 146 l 126 701 b 151 722 128 715 136 722 l 311 722 b 333 697 328 722 336 713 l 264 314 b 346 197 249 232 283 197 b 439 221 383 197 418 208 m 418 913 b 307 814 407 851 364 814 b 225 919 251 814 214 854 b 339 1017 236 981 282 1017 b 418 913 396 1017 431 974 m 707 913 b 597 814 696 851 654 814 b 514 919 540 814 503 854 b 628 1017 525 981 571 1017 b 707 913 685 1017 719 974 "},"ỳ":{"ha":749,"x_min":0,"x_max":0,"o":"m 524 701 b 550 722 526 715 535 722 l 710 722 b 732 697 725 722 733 713 l 621 68 b 244 -281 576 -181 472 -281 b -6 -200 133 -281 56 -253 b -8 -167 -17 -192 -17 -178 l 78 -57 b 113 -51 88 -43 99 -43 b 261 -96 150 -78 200 -96 b 410 40 349 -96 394 -57 b 292 19 372 28 333 19 b 60 333 121 19 28 146 l 126 701 b 151 722 128 715 136 722 l 311 722 b 333 697 328 722 336 713 l 264 314 b 346 197 249 232 283 197 b 439 221 383 197 418 208 m 526 826 b 510 799 535 810 526 799 l 414 799 b 385 814 401 799 392 803 l 267 996 b 282 1025 256 1011 263 1025 l 411 1025 b 439 1007 424 1025 433 1018 "},"z":{"ha":667,"x_min":0,"x_max":0,"o":"m 4 0 b -18 26 -12 0 -21 10 l -1 117 b 13 144 1 128 6 136 l 364 544 l 118 544 b 97 569 103 544 94 554 l 122 701 b 147 722 124 715 133 722 l 654 722 b 675 697 669 722 678 713 l 661 613 b 647 585 658 601 654 593 l 296 181 l 568 181 b 589 154 583 181 592 171 l 564 22 b 539 0 563 8 553 0 "},"ź":{"ha":667,"x_min":0,"x_max":0,"o":"m 4 0 b -18 26 -12 0 -21 10 l -1 117 b 13 144 1 128 6 136 l 364 544 l 118 544 b 97 569 103 544 94 554 l 122 701 b 147 722 124 715 133 722 l 654 722 b 675 697 669 722 678 713 l 661 613 b 647 585 658 601 654 593 l 296 181 l 568 181 b 589 154 583 181 592 171 l 564 22 b 539 0 563 8 553 0 m 331 799 b 317 828 310 799 304 813 l 465 1011 b 496 1025 474 1021 483 1025 l 640 1025 b 653 994 661 1025 668 1010 l 468 811 b 439 799 460 801 451 799 "},"ž":{"ha":667,"x_min":0,"x_max":0,"o":"m 4 0 b -18 26 -12 0 -21 10 l -1 117 b 13 144 1 128 6 136 l 364 544 l 118 544 b 97 569 103 544 94 554 l 122 701 b 147 722 124 715 133 722 l 654 722 b 675 697 669 722 678 713 l 661 613 b 647 585 658 601 654 593 l 296 181 l 568 181 b 589 154 583 181 592 171 l 564 22 b 539 0 563 8 553 0 m 224 994 b 240 1024 215 1011 221 1024 l 358 1024 b 388 1007 372 1024 382 1019 l 439 917 l 526 1011 b 557 1024 535 1019 544 1024 l 682 1024 b 694 994 704 1024 710 1008 l 510 810 b 481 797 501 801 493 797 l 368 797 b 339 814 354 797 346 801 "},"ż":{"ha":667,"x_min":0,"x_max":0,"o":"m 4 0 b -18 26 -12 0 -21 10 l -1 117 b 13 144 1 128 6 136 l 364 544 l 118 544 b 97 569 103 544 94 554 l 122 701 b 147 722 124 715 133 722 l 654 722 b 675 697 669 722 678 713 l 661 613 b 647 585 658 601 654 593 l 296 181 l 568 181 b 589 154 583 181 592 171 l 564 22 b 539 0 563 8 553 0 m 540 908 b 418 804 529 850 485 804 b 326 919 354 804 314 854 b 449 1019 338 978 386 1019 b 540 908 513 1019 553 974 "},"А":{"ha":875,"x_min":0,"x_max":0,"o":"m 617 0 b 592 22 603 0 593 7 l 572 185 l 260 185 l 185 18 b 157 0 181 6 169 0 l -33 0 b -50 29 -51 0 -58 11 l 413 975 b 440 993 418 988 428 993 l 643 993 b 669 971 657 993 667 986 l 813 25 b 790 0 815 10 807 0 m 507 751 b 347 382 468 660 408 515 l 550 382 b 513 751 536 519 521 663 "},"Б":{"ha":865,"x_min":0,"x_max":0,"o":"m 832 817 b 807 794 829 803 821 794 l 394 794 l 364 621 l 522 621 b 811 308 739 621 846 508 b 422 0 774 96 654 0 l 60 0 b 39 26 44 0 36 11 l 204 971 b 231 993 207 985 215 993 l 836 993 b 858 967 853 993 861 982 m 589 318 b 489 426 601 392 574 426 l 329 426 l 289 200 l 442 200 b 589 318 528 200 576 242 "},"В":{"ha":865,"x_min":0,"x_max":0,"o":"m 61 0 b 39 26 44 0 36 11 l 206 971 b 231 993 208 985 217 993 l 572 993 b 836 706 767 993 864 868 b 710 525 822 625 778 560 b 806 299 788 485 824 406 b 411 0 774 107 646 0 m 288 196 l 435 196 b 585 319 513 196 571 236 b 479 426 594 385 565 426 l 328 426 m 361 606 l 489 606 b 615 708 560 606 604 643 b 524 803 626 767 601 803 l 396 803 "},"Г":{"ha":707,"x_min":0,"x_max":0,"o":"m 61 0 b 39 26 46 0 38 11 l 206 971 b 231 993 208 985 217 993 l 774 993 b 796 967 790 993 799 982 l 768 810 b 743 789 767 796 757 789 l 400 789 l 264 22 b 239 0 261 8 253 0 "},"Ѓ":{"ha":707,"x_min":0,"x_max":0,"o":"m 61 0 b 39 26 46 0 38 11 l 206 971 b 231 993 208 985 217 993 l 774 993 b 796 967 790 993 799 982 l 768 810 b 743 789 767 796 757 789 l 400 789 l 264 22 b 239 0 261 8 253 0 m 413 1060 b 399 1090 392 1060 386 1074 l 558 1272 b 588 1286 567 1282 576 1286 l 743 1286 b 756 1256 764 1286 771 1271 l 558 1071 b 531 1060 550 1064 542 1060 "},"Ґ":{"ha":700,"x_min":0,"x_max":0,"o":"m 61 0 b 39 26 44 0 36 11 l 206 971 b 231 993 207 985 215 993 l 594 993 l 632 1192 b 657 1214 633 1207 643 1214 l 807 1214 b 828 1188 822 1214 831 1203 l 761 810 b 736 789 758 796 750 789 l 394 789 l 257 22 b 232 0 256 8 247 0 "},"Д":{"ha":1000,"x_min":0,"x_max":0,"o":"m -51 -185 b -74 -158 -68 -185 -76 -175 l -12 181 b 14 203 -10 196 -1 203 l 47 203 b 343 971 139 247 214 413 b 369 993 346 986 356 993 l 940 993 b 963 967 957 993 965 982 l 829 201 l 892 201 b 914 175 908 201 917 192 l 853 -162 b 826 -185 850 -176 842 -185 l 660 -185 b 638 -158 643 -185 635 -174 l 665 0 l 171 0 l 142 -162 b 117 -185 140 -176 132 -185 m 519 793 b 307 201 454 494 385 286 l 610 201 l 714 793 l 519 793 "},"Е":{"ha":793,"x_min":0,"x_max":0,"o":"m 797 817 b 772 794 794 803 786 794 l 394 794 l 360 601 l 690 601 b 711 575 706 601 714 592 l 685 429 b 660 407 682 415 674 407 l 325 407 l 289 200 l 682 200 b 704 174 697 200 706 189 l 679 22 b 653 0 676 7 668 0 l 60 0 b 38 26 43 0 36 11 l 206 971 b 231 993 208 985 217 993 l 801 993 b 824 967 818 993 826 982 "},"Ё":{"ha":793,"x_min":0,"x_max":0,"o":"m 499 1175 b 388 1076 488 1114 444 1076 b 306 1182 332 1076 294 1117 b 419 1279 317 1243 363 1279 b 499 1175 476 1279 511 1236 m 788 1175 b 678 1076 776 1114 735 1076 b 594 1182 621 1076 583 1117 b 708 1279 606 1243 651 1279 b 788 1175 765 1279 800 1236 m 797 817 b 772 794 794 803 786 794 l 394 794 l 360 601 l 690 601 b 711 575 706 601 714 592 l 685 429 b 660 407 682 415 674 407 l 325 407 l 289 200 l 682 200 b 704 174 697 200 706 189 l 679 22 b 653 0 676 7 668 0 l 60 0 b 38 26 43 0 36 11 l 206 971 b 231 993 208 985 217 993 l 801 993 b 824 967 818 993 826 982 "},"Ж":{"ha":1239,"x_min":0,"x_max":0,"o":"m 1306 993 b 1318 963 1325 993 1332 979 l 933 550 l 1169 28 b 1151 0 1176 11 1169 0 l 940 0 b 914 19 928 0 918 7 l 775 376 l 717 314 l 667 22 b 640 0 664 8 656 0 l 475 0 b 454 26 460 0 451 11 l 504 314 l 468 378 l 210 15 b 181 0 203 6 193 0 l -33 0 b -47 29 -53 0 -58 13 l 367 557 l 135 964 b 151 993 126 981 133 993 l 367 993 b 394 975 379 993 389 986 l 558 617 l 619 971 b 644 993 622 985 631 993 l 810 993 b 831 967 825 993 833 982 l 769 615 l 1063 979 b 1092 993 1069 989 1081 993 "},"З":{"ha":815,"x_min":0,"x_max":0,"o":"m 490 1011 b 789 719 711 1011 813 863 b 640 525 775 636 713 557 b 747 283 725 483 765 390 b 326 -18 708 68 544 -18 b -7 115 168 -18 63 38 b -7 149 -17 125 -17 136 l 94 268 b 129 269 104 281 117 281 b 351 185 188 215 260 185 b 526 313 447 185 514 235 b 381 421 538 382 499 421 l 279 421 b 258 447 264 421 256 432 l 281 576 b 306 599 282 592 292 599 l 404 599 b 572 711 500 599 561 643 b 451 813 581 772 547 813 b 235 739 365 813 293 782 b 200 746 221 728 208 731 l 139 872 b 147 904 133 885 136 894 b 490 1011 233 968 350 1011 "},"И":{"ha":943,"x_min":0,"x_max":0,"o":"m 61 0 b 39 26 44 0 38 11 l 206 972 b 231 993 208 986 217 993 l 400 993 b 422 967 417 993 424 983 l 378 721 b 293 336 357 608 326 464 l 297 335 b 492 658 336 411 419 556 l 724 978 b 751 993 731 988 740 993 l 929 993 b 950 967 944 993 953 983 l 786 22 b 760 0 783 8 775 0 l 592 0 b 569 26 575 0 567 10 l 606 228 b 706 651 628 357 668 521 l 701 651 b 485 294 660 563 567 400 l 268 14 b 239 0 261 4 251 0 "},"Й":{"ha":943,"x_min":0,"x_max":0,"o":"m 61 0 b 39 26 44 0 38 11 l 206 972 b 231 993 208 986 217 993 l 400 993 b 422 967 417 993 424 983 l 378 721 b 293 336 357 608 326 464 l 297 335 b 492 658 336 411 419 556 l 724 978 b 751 993 731 988 740 993 l 929 993 b 950 967 944 993 953 983 l 786 22 b 760 0 783 8 775 0 l 592 0 b 569 26 575 0 567 10 l 606 228 b 706 651 628 357 668 521 l 701 651 b 485 294 660 563 567 400 l 268 14 b 239 0 261 4 251 0 m 861 1238 b 588 1053 825 1125 724 1053 b 379 1238 451 1053 381 1126 b 401 1264 379 1251 388 1260 l 518 1290 b 544 1269 533 1293 540 1285 b 617 1214 549 1233 572 1214 b 711 1274 663 1214 693 1235 b 742 1290 718 1288 726 1293 l 844 1264 b 861 1238 860 1261 867 1251 "},"К":{"ha":871,"x_min":0,"x_max":0,"o":"m 931 993 b 944 963 951 993 958 979 l 551 546 l 817 29 b 799 0 825 13 817 0 l 603 0 b 575 18 590 0 579 6 l 393 393 l 310 313 l 258 22 b 232 0 256 8 247 0 l 61 0 b 39 26 44 0 36 11 l 206 971 b 232 993 208 985 217 993 l 403 993 b 425 967 419 993 428 983 l 364 622 l 678 979 b 707 993 685 988 696 993 "},"Ќ":{"ha":871,"x_min":0,"x_max":0,"o":"m 483 1060 b 469 1090 463 1060 457 1074 l 629 1272 b 658 1286 638 1282 647 1286 l 814 1286 b 826 1256 835 1286 842 1271 l 629 1071 b 601 1060 621 1064 613 1060 m 931 993 b 944 963 951 993 958 979 l 551 546 l 817 29 b 799 0 825 13 817 0 l 603 0 b 575 18 590 0 579 6 l 393 393 l 310 313 l 258 22 b 232 0 256 8 247 0 l 61 0 b 39 26 44 0 36 11 l 206 971 b 232 993 208 985 217 993 l 403 993 b 425 967 419 993 428 983 l 364 622 l 678 979 b 707 993 685 988 696 993 "},"Л":{"ha":960,"x_min":0,"x_max":0,"o":"m 507 792 b -15 -7 378 168 274 1 b -36 18 -32 -7 -39 3 l -11 182 b 14 204 -8 196 0 203 b 326 971 149 218 192 363 b 353 993 331 986 339 993 l 946 993 b 968 967 961 993 969 982 l 801 22 b 776 0 799 8 790 0 l 603 0 b 582 26 588 0 579 11 l 717 792 l 507 792 "},"М":{"ha":1167,"x_min":0,"x_max":0,"o":"m 61 0 b 39 26 44 0 36 11 l 204 971 b 229 993 207 985 215 993 l 425 993 b 453 972 439 993 449 988 l 522 735 b 592 450 544 649 579 508 l 596 450 b 765 738 628 507 708 649 l 921 978 b 950 993 928 989 936 993 l 1153 993 b 1175 967 1169 993 1178 982 l 1010 22 b 983 0 1007 8 999 0 l 814 0 b 792 26 799 0 790 11 l 822 203 b 910 643 840 311 879 500 l 903 644 b 739 363 869 581 794 453 l 650 224 b 622 207 643 211 635 207 l 496 207 b 468 228 482 207 472 214 l 426 369 b 360 638 404 456 372 575 l 353 638 b 289 207 335 492 308 328 l 257 22 b 231 0 256 7 246 0 "},"Н":{"ha":922,"x_min":0,"x_max":0,"o":"m 713 971 b 738 993 714 985 724 993 l 910 993 b 932 967 925 993 933 982 l 764 22 b 739 0 763 8 754 0 l 567 0 b 546 26 551 0 543 11 l 613 401 l 325 401 l 258 22 b 232 0 256 8 247 0 l 61 0 b 39 26 44 0 36 11 l 206 971 b 231 993 208 985 217 993 l 403 993 b 425 967 419 993 426 982 l 361 603 l 647 603 "},"О":{"ha":911,"x_min":0,"x_max":0,"o":"m 843 354 b 389 -18 803 117 639 -18 b 74 401 151 -18 31 154 l 117 647 b 565 1011 157 875 322 1011 b 886 600 803 1011 928 850 l 843 354 m 294 376 b 421 185 275 263 318 185 b 619 367 531 185 600 254 l 664 621 b 536 808 683 732 642 808 b 340 628 426 808 361 742 l 294 376 "},"П":{"ha":919,"x_min":0,"x_max":0,"o":"m 57 0 b 36 26 42 0 33 11 l 207 971 b 232 993 208 986 217 993 l 910 993 b 931 967 925 993 933 982 l 760 22 b 735 0 758 7 750 0 l 563 0 b 542 26 547 0 539 11 l 679 792 l 394 792 l 256 22 b 229 0 253 7 244 0 "},"Р":{"ha":850,"x_min":0,"x_max":0,"o":"m 546 993 b 861 621 779 993 901 842 b 461 296 825 424 685 296 l 307 296 l 258 22 b 232 0 256 8 247 0 l 60 0 b 39 26 44 0 36 11 l 206 971 b 231 993 207 985 217 993 m 465 494 b 639 639 564 494 624 546 b 515 793 656 740 608 793 l 394 793 l 342 494 l 465 494 "},"С":{"ha":792,"x_min":0,"x_max":0,"o":"m 725 71 b 394 -18 639 19 532 -18 b 72 379 165 -18 29 129 l 121 661 b 557 1011 161 893 332 1011 b 831 917 665 1011 763 974 b 833 883 843 908 843 896 l 732 764 b 699 760 724 753 713 751 b 538 810 654 790 597 810 b 343 639 426 810 360 742 l 294 358 b 435 185 276 246 326 185 b 631 246 499 185 572 207 b 664 236 644 254 656 251 l 729 100 b 725 71 736 85 735 76 "},"Т":{"ha":781,"x_min":0,"x_max":0,"o":"m 847 993 b 869 967 864 993 872 983 l 842 814 b 817 792 840 800 832 792 l 576 792 l 440 22 b 415 0 438 8 429 0 l 242 0 b 221 26 226 0 218 11 l 357 792 l 119 792 b 97 818 103 792 96 803 l 125 971 b 150 993 128 985 136 993 "},"У":{"ha":792,"x_min":0,"x_max":0,"o":"m 122 0 b 107 29 104 0 97 13 l 278 321 l 108 967 b 129 993 104 982 113 993 l 308 993 b 335 972 322 993 332 986 l 425 556 l 429 556 l 651 975 b 679 993 657 988 665 993 l 868 993 b 886 964 888 993 894 981 l 344 17 b 315 0 338 6 329 0 "},"Ў":{"ha":792,"x_min":0,"x_max":0,"o":"m 122 0 b 107 29 104 0 97 13 l 278 321 l 108 967 b 129 993 104 982 113 993 l 308 993 b 335 972 322 993 332 986 l 425 556 l 429 556 l 651 975 b 679 993 657 988 665 993 l 868 993 b 886 964 888 993 894 981 l 344 17 b 315 0 338 6 329 0 m 768 1236 b 494 1051 732 1124 631 1051 b 286 1236 358 1051 288 1125 b 308 1263 286 1250 294 1258 l 425 1289 b 451 1268 440 1292 447 1283 b 524 1213 456 1232 479 1213 b 618 1272 569 1213 600 1233 b 649 1289 625 1286 633 1292 l 751 1263 b 768 1236 767 1260 774 1250 "},"Ф":{"ha":1179,"x_min":0,"x_max":0,"o":"m 867 963 b 1150 589 1056 963 1190 814 l 1118 397 b 706 26 1074 150 915 26 l 639 26 l 621 -71 b 596 -93 619 -85 610 -93 l 425 -93 b 403 -67 408 -93 401 -82 l 419 26 l 357 26 b 72 404 169 26 33 175 l 107 596 b 519 963 150 840 310 963 l 586 963 l 601 1054 b 628 1075 604 1068 613 1075 l 799 1075 b 821 1050 814 1075 822 1065 l 806 963 m 293 385 b 403 238 275 281 325 238 l 457 238 l 549 751 l 497 751 b 331 601 418 751 350 708 l 293 385 m 931 606 b 822 751 949 711 899 751 l 768 751 l 676 238 l 728 238 b 893 389 806 238 875 283 "},"Х":{"ha":840,"x_min":0,"x_max":0,"o":"m 899 993 b 914 964 918 993 925 981 l 578 494 l 765 28 b 746 0 771 11 764 0 l 560 0 b 533 19 546 0 538 7 l 421 335 l 213 17 b 183 0 206 6 196 0 l -25 0 b -40 29 -44 0 -51 14 l 306 499 l 140 965 b 160 993 135 982 143 993 l 340 993 b 368 974 354 993 364 986 l 464 658 l 669 976 b 699 993 676 988 685 993 "},"Ч":{"ha":867,"x_min":0,"x_max":0,"o":"m 656 971 b 682 993 658 985 667 993 l 853 993 b 875 967 869 993 878 982 l 710 22 b 683 0 707 8 699 0 l 513 0 b 490 26 496 0 488 11 l 546 344 b 375 310 501 324 442 310 b 110 675 211 310 69 447 l 164 971 b 189 993 165 985 175 993 l 361 993 b 383 967 378 993 386 982 l 329 665 b 432 507 313 563 354 507 b 582 549 488 507 546 525 "},"Ц":{"ha":958,"x_min":0,"x_max":0,"o":"m 903 993 b 924 967 918 993 926 982 l 789 201 l 849 201 b 871 175 865 201 874 190 l 811 -160 b 785 -182 808 -174 800 -182 l 619 -182 b 597 -156 603 -182 594 -171 l 625 0 l 60 0 b 39 26 44 0 36 11 l 206 971 b 231 993 207 985 217 993 l 407 993 b 428 967 422 993 431 982 l 293 201 l 565 201 l 701 971 b 726 993 703 985 713 993 "},"Ш":{"ha":1315,"x_min":0,"x_max":0,"o":"m 1106 971 b 1131 993 1108 985 1117 993 l 1303 993 b 1325 967 1318 993 1326 983 l 1156 22 b 1131 0 1154 8 1144 0 l 58 0 b 38 26 43 0 35 11 l 206 971 b 231 993 207 985 215 993 l 401 993 b 424 967 418 993 426 983 l 288 201 l 518 201 l 656 971 b 681 993 657 985 667 993 l 853 993 b 874 967 868 993 876 983 l 738 201 l 968 201 "},"Щ":{"ha":1343,"x_min":0,"x_max":0,"o":"m 1288 993 b 1308 967 1303 993 1311 982 l 1174 201 l 1233 201 b 1256 175 1250 201 1258 190 l 1196 -160 b 1171 -182 1193 -174 1185 -182 l 1004 -182 b 983 -156 989 -182 981 -171 l 1011 0 l 60 0 b 39 26 44 0 36 11 l 206 971 b 231 993 207 985 217 993 l 401 993 b 424 967 418 993 426 982 l 289 201 l 511 201 l 647 971 b 674 993 650 985 658 993 l 844 993 b 865 967 860 993 868 982 l 731 201 l 954 201 l 1090 971 b 1115 993 1092 985 1101 993 "},"Џ":{"ha":917,"x_min":0,"x_max":0,"o":"m 903 993 b 925 967 919 993 928 982 l 758 22 b 733 0 756 8 747 0 l 503 0 l 475 -160 b 449 -182 472 -175 464 -182 l 285 -182 b 264 -156 268 -182 261 -171 l 290 0 l 60 0 b 38 26 43 0 35 11 l 206 971 b 231 993 207 985 215 993 l 403 993 b 424 967 418 993 426 982 l 290 201 l 569 201 l 706 971 b 731 993 708 985 717 993 "},"Ь":{"ha":844,"x_min":0,"x_max":0,"o":"m 522 665 b 807 326 719 665 839 510 b 415 0 769 114 643 0 l 57 0 b 36 26 42 0 33 11 l 207 971 b 232 993 210 986 218 993 l 404 993 b 425 967 419 993 428 982 l 372 665 m 436 201 b 583 340 515 201 568 247 b 479 464 597 421 564 464 l 336 464 l 288 201 l 436 201 "},"Ъ":{"ha":965,"x_min":0,"x_max":0,"o":"m 636 664 b 928 326 846 664 961 514 b 536 0 889 106 757 0 l 172 0 b 150 26 156 0 147 11 l 290 792 l 121 792 b 100 817 106 792 97 801 l 126 971 b 153 993 129 986 138 993 l 524 993 b 546 967 540 993 549 982 l 492 664 m 556 203 b 703 340 636 203 686 249 b 599 461 718 418 683 461 l 456 461 l 407 203 l 556 203 "},"Ы":{"ha":1260,"x_min":0,"x_max":0,"o":"m 522 665 b 807 326 719 665 839 510 b 415 0 769 114 643 0 l 57 0 b 36 26 42 0 33 11 l 207 971 b 232 993 210 986 218 993 l 404 993 b 425 967 419 993 428 982 l 372 665 m 436 201 b 583 340 515 201 568 247 b 479 464 597 421 564 464 l 336 464 l 288 201 l 436 201 m 1101 22 b 1076 0 1099 8 1090 0 l 904 0 b 882 26 889 0 881 11 l 1049 971 b 1075 993 1051 985 1060 993 l 1246 993 b 1268 967 1263 993 1271 982 "},"Љ":{"ha":1388,"x_min":0,"x_max":0,"o":"m 1065 661 b 1350 329 1263 661 1382 524 b 958 0 1314 114 1186 0 l 601 0 b 579 26 586 0 578 11 l 715 792 l 506 792 b -17 -7 376 168 272 1 b -37 18 -33 -7 -40 3 l -12 182 b 13 204 -10 196 -1 203 b 325 971 147 218 190 363 b 351 993 329 986 338 993 l 946 993 b 968 967 961 993 971 982 l 914 661 m 978 201 b 1126 340 1058 201 1110 247 b 1022 460 1140 418 1107 460 l 878 460 l 832 201 l 978 201 "},"Њ":{"ha":1318,"x_min":0,"x_max":0,"o":"m 994 625 b 1281 321 1199 625 1311 506 b 897 0 1242 101 1100 0 l 554 0 b 533 26 538 0 531 11 l 603 418 l 328 418 l 257 22 b 231 0 254 7 246 0 l 58 0 b 38 26 43 0 35 11 l 206 971 b 232 993 208 986 217 993 l 404 993 b 425 967 419 993 428 982 l 364 621 l 640 621 l 703 971 b 728 993 704 986 713 993 l 901 993 b 922 967 917 993 925 982 l 861 625 m 922 207 b 1058 319 994 207 1043 242 b 961 424 1069 386 1040 424 l 825 424 l 786 207 l 922 207 "},"Ѕ":{"ha":836,"x_min":0,"x_max":0,"o":"m 775 258 b 367 -18 731 42 547 -18 b 22 117 221 -18 117 33 b 19 151 11 126 10 139 l 119 275 b 154 278 129 288 142 288 b 390 186 231 218 304 186 b 553 283 471 186 542 218 b 390 410 564 353 493 381 b 140 742 242 453 107 544 b 515 1011 174 936 328 1011 b 840 906 647 1011 744 976 b 844 872 853 897 854 885 l 747 747 b 714 743 738 736 726 735 b 490 811 651 783 569 811 b 357 719 415 811 368 775 b 493 603 346 653 404 629 b 775 258 619 564 821 493 "},"Є":{"ha":797,"x_min":0,"x_max":0,"o":"m 718 67 b 393 -18 633 17 526 -18 b 71 379 164 -18 28 129 l 121 661 b 556 1011 161 893 332 1011 b 829 917 664 1011 761 974 b 832 883 842 908 842 896 l 732 764 b 699 760 722 753 711 751 b 536 810 654 790 597 810 b 342 639 425 810 358 742 l 332 589 l 582 589 b 604 563 599 589 607 579 l 579 425 b 554 404 576 411 568 404 l 301 404 l 293 358 b 435 185 276 246 325 185 b 629 246 497 185 571 207 b 663 236 643 254 654 251 l 728 100 b 718 67 735 85 732 75 "},"Э":{"ha":807,"x_min":0,"x_max":0,"o":"m 150 928 b 461 1011 232 976 333 1011 b 783 614 690 1011 826 864 l 733 332 b 296 -18 692 100 521 -18 b -12 93 171 -18 63 28 b -14 128 -22 104 -24 115 l 88 253 b 121 254 97 265 110 265 b 317 185 175 211 244 185 b 513 354 428 185 494 253 l 522 415 l 244 415 b 224 440 229 415 221 425 l 249 578 b 274 600 250 592 258 600 l 554 600 l 560 635 b 421 813 579 750 529 813 b 242 765 358 813 294 796 b 210 775 228 757 217 761 l 147 899 b 150 928 140 913 140 922 "},"І":{"ha":417,"x_min":0,"x_max":0,"o":"m 258 22 b 233 0 256 8 247 0 l 61 0 b 39 26 46 0 38 11 l 206 971 b 232 993 208 985 217 993 l 403 993 b 425 967 419 993 428 982 "},"Ї":{"ha":417,"x_min":0,"x_max":0,"o":"m 258 22 b 233 0 256 8 247 0 l 61 0 b 39 26 46 0 38 11 l 206 971 b 232 993 208 985 217 993 l 403 993 b 425 967 419 993 428 982 m 315 1164 b 199 1063 304 1103 258 1063 b 114 1167 135 1063 106 1113 b 231 1268 124 1226 171 1268 b 315 1164 293 1268 325 1219 m 593 1164 b 476 1063 585 1103 538 1063 b 392 1167 411 1063 383 1113 b 508 1268 403 1228 449 1268 b 593 1164 572 1268 603 1221 "},"Ј":{"ha":721,"x_min":0,"x_max":0,"o":"m 621 314 b 233 -17 583 100 439 -17 b -32 79 122 -17 40 17 b -35 114 -43 90 -44 101 l 60 236 b 94 240 69 249 81 249 b 253 186 138 206 188 186 b 399 322 331 186 382 232 l 513 971 b 539 993 515 985 524 993 l 711 993 b 733 967 726 993 735 982 l 621 314 "},"Ћ":{"ha":976,"x_min":0,"x_max":0,"o":"m 565 656 b 676 676 593 667 635 675 b 926 382 860 678 961 579 l 861 22 b 836 0 860 7 850 0 l 663 0 b 640 26 646 0 638 10 l 707 388 b 619 500 721 465 689 500 b 533 475 586 500 554 489 l 453 22 b 426 0 450 7 442 0 l 251 0 b 229 26 235 0 226 11 l 365 792 l 118 792 b 97 818 103 792 94 803 l 125 971 b 150 993 126 985 136 993 l 872 993 b 893 967 888 993 896 982 l 865 814 b 840 792 863 800 854 792 l 590 792 l 565 656 "},"Ю":{"ha":1292,"x_min":0,"x_max":0,"o":"m 1224 354 b 779 -17 1179 107 1007 -17 b 461 367 565 -17 426 124 l 463 397 l 329 397 l 261 22 b 235 0 258 7 250 0 l 58 0 b 38 26 42 0 35 11 l 206 971 b 231 993 207 986 217 993 l 408 993 b 429 967 424 993 432 982 l 365 606 l 500 606 l 508 638 b 951 1010 554 886 728 1010 b 1268 610 1168 1010 1315 867 l 1224 354 m 693 371 b 808 194 672 253 721 194 b 994 371 900 194 974 257 l 1039 628 b 925 800 1060 747 1011 800 b 739 628 833 800 761 744 l 693 371 "},"Я":{"ha":876,"x_min":0,"x_max":0,"o":"m -14 0 b -28 29 -35 0 -40 13 l 243 361 b 124 679 144 414 96 524 b 519 993 157 867 307 993 l 865 993 b 886 967 881 993 889 982 l 717 22 b 692 0 715 7 707 0 l 518 0 b 497 26 503 0 494 11 l 550 324 l 458 324 l 226 15 b 197 0 219 4 210 0 m 344 660 b 456 519 328 576 368 519 l 586 519 l 635 789 l 508 789 b 344 660 419 789 361 740 "},"Ђ":{"ha":954,"x_min":0,"x_max":0,"o":"m 557 671 b 679 689 585 681 629 689 b 910 390 846 689 940 561 l 889 264 b 610 -18 858 76 775 -18 b 553 -12 589 -18 569 -15 b 535 15 538 -11 532 0 l 560 158 b 579 179 563 174 569 179 b 603 178 588 178 596 178 b 682 279 646 178 672 211 l 697 382 b 613 493 711 456 683 493 b 521 472 578 493 544 485 l 440 22 b 415 0 438 7 429 0 l 247 0 b 226 26 232 0 224 11 l 363 792 l 118 792 b 97 818 103 792 94 803 l 125 971 b 150 993 126 985 136 993 l 856 993 b 878 967 872 993 881 982 l 850 814 b 825 792 847 800 839 792 l 579 792 l 557 671 "},"а":{"ha":701,"x_min":0,"x_max":0,"o":"m 564 31 b 275 -18 485 3 382 -18 b 10 244 81 -18 -18 93 b 325 439 33 379 147 439 b 443 428 367 439 408 435 l 446 450 b 351 556 458 518 439 556 b 186 524 290 556 228 543 b 154 535 171 517 160 519 l 111 649 b 115 676 107 661 107 671 b 399 742 182 717 286 742 b 647 408 588 742 685 617 l 585 57 b 564 31 582 44 576 35 m 217 233 b 301 156 207 181 240 156 b 397 167 333 156 372 161 l 417 288 b 328 297 390 293 358 297 b 217 233 260 297 224 275 "},"б":{"ha":743,"x_min":0,"x_max":0,"o":"m 329 654 b 469 682 367 672 414 682 b 696 389 624 682 725 557 l 674 260 b 313 -18 640 68 489 -18 b 56 288 154 -18 18 83 l 126 694 b 469 1003 164 907 331 982 b 668 1051 531 1011 607 1025 b 700 1039 683 1058 694 1056 l 747 922 b 736 889 754 908 749 896 b 504 817 667 856 583 832 b 333 679 417 800 351 774 l 329 654 m 485 403 b 406 513 499 476 471 513 b 301 483 365 513 328 501 l 261 260 b 339 167 250 193 289 167 b 463 264 396 167 451 197 "},"в":{"ha":726,"x_min":0,"x_max":0,"o":"m 38 0 b 17 26 22 0 14 11 l 135 701 b 161 722 138 715 146 722 l 447 722 b 685 513 615 722 707 635 b 586 379 675 453 638 408 b 654 213 649 347 668 289 b 339 0 629 69 524 0 m 246 161 l 350 161 b 451 232 407 161 443 186 b 376 294 458 276 432 294 l 268 294 m 294 440 l 392 440 b 481 503 439 440 474 463 b 415 563 486 542 465 563 l 317 563 "},"г":{"ha":563,"x_min":0,"x_max":0,"o":"m 38 0 b 15 26 21 0 13 10 l 136 701 b 161 722 138 715 147 722 l 582 722 b 603 697 597 722 606 713 l 579 563 b 553 540 576 549 568 540 l 317 540 l 224 22 b 199 0 222 8 213 0 "},"ѓ":{"ha":563,"x_min":0,"x_max":0,"o":"m 38 0 b 15 26 21 0 13 10 l 136 701 b 161 722 138 715 147 722 l 582 722 b 603 697 597 722 606 713 l 579 563 b 553 540 576 549 568 540 l 317 540 l 224 22 b 199 0 222 8 213 0 m 301 803 b 288 832 281 803 275 817 l 436 1015 b 467 1029 444 1025 454 1029 l 611 1029 b 624 999 632 1029 639 1014 l 439 815 b 410 803 431 806 422 803 "},"ґ":{"ha":550,"x_min":0,"x_max":0,"o":"m 38 0 b 17 26 22 0 14 11 l 135 701 b 160 722 138 715 146 722 l 414 722 l 442 874 b 467 896 444 888 453 896 l 601 896 b 622 869 617 896 625 885 l 564 563 b 539 540 563 549 554 540 l 307 540 l 218 22 b 193 0 217 8 207 0 "},"д":{"ha":849,"x_min":0,"x_max":0,"o":"m -51 -185 b -72 -158 -68 -185 -75 -175 l -15 154 b 10 176 -14 168 -6 176 l 51 176 b 254 700 114 218 196 386 b 281 722 257 715 267 722 l 765 722 b 788 697 781 722 789 713 l 696 176 l 753 176 b 774 150 768 176 776 165 l 719 -162 b 693 -185 717 -176 708 -185 l 539 -185 b 517 -158 524 -185 515 -174 l 546 0 l 158 0 l 128 -162 b 103 -185 126 -176 117 -185 m 415 547 b 274 176 381 369 329 239 l 488 176 l 553 547 l 415 547 "},"е":{"ha":721,"x_min":0,"x_max":0,"o":"m 75 475 b 421 742 108 657 253 742 b 688 443 599 742 725 647 l 664 308 b 639 288 661 294 653 288 l 253 288 l 249 268 b 344 158 235 194 268 158 b 525 214 406 158 469 181 b 557 207 539 224 550 222 l 614 100 b 606 67 619 86 618 74 b 315 -18 531 15 436 -18 b 39 274 133 -18 7 93 l 75 475 m 488 461 b 403 565 497 517 474 565 b 285 464 343 565 297 529 l 278 426 l 481 426 "},"ё":{"ha":721,"x_min":0,"x_max":0,"o":"m 404 903 b 293 804 393 842 350 804 b 211 910 238 804 200 844 b 325 1007 222 971 268 1007 b 404 903 382 1007 417 964 m 693 903 b 583 804 682 842 640 804 b 500 910 526 804 489 844 b 614 1007 511 971 557 1007 b 693 903 671 1007 706 964 m 75 475 b 421 742 108 657 253 742 b 688 443 599 742 725 647 l 664 308 b 639 288 661 294 653 288 l 253 288 l 249 268 b 344 158 235 194 268 158 b 525 214 406 158 469 181 b 557 207 539 224 550 222 l 614 100 b 606 67 619 86 618 74 b 315 -18 531 15 436 -18 b 39 274 133 -18 7 93 l 75 475 m 488 461 b 403 565 497 517 474 565 b 285 464 343 565 297 529 l 278 426 l 481 426 "},"ж":{"ha":1018,"x_min":0,"x_max":0,"o":"m 1029 722 b 1043 694 1050 722 1057 711 l 794 406 l 946 28 b 926 0 951 11 944 0 l 754 0 b 728 19 740 0 732 7 l 644 271 l 588 213 l 554 22 b 528 0 551 8 543 0 l 372 0 b 351 26 357 0 349 11 l 383 215 l 350 271 l 179 17 b 150 0 172 6 163 0 l -33 0 b -47 29 -53 0 -60 14 l 240 426 l 101 694 b 119 722 93 711 101 722 l 296 722 b 324 704 308 722 318 717 l 360 638 b 425 456 383 579 407 508 l 469 701 b 494 722 471 715 481 722 l 651 722 b 672 697 667 722 675 713 l 629 456 b 758 638 667 508 715 581 l 819 708 b 849 722 826 718 836 722 "},"з":{"ha":672,"x_min":0,"x_max":0,"o":"m 382 742 b 628 518 547 742 650 649 b 525 379 617 453 579 408 b 600 208 589 346 614 285 b 263 -18 576 74 465 -18 b -17 83 136 -18 49 11 b -17 117 -26 94 -25 106 l 75 214 b 107 215 85 225 96 226 b 272 157 149 179 206 157 b 394 231 343 157 385 183 b 292 297 403 275 365 297 l 203 297 b 182 324 188 297 179 308 l 197 418 b 224 440 200 433 208 440 l 311 440 b 425 508 375 440 415 464 b 339 569 432 549 406 569 b 174 513 276 569 219 546 b 140 521 160 504 147 506 l 88 622 b 96 654 81 635 82 647 b 382 742 178 710 282 742 "},"и":{"ha":765,"x_min":0,"x_max":0,"o":"m 38 0 b 15 26 21 0 14 10 l 136 701 b 161 722 138 715 146 722 l 313 722 b 333 697 328 722 336 713 l 296 486 b 258 308 289 440 272 367 l 261 307 b 382 490 293 360 349 444 l 535 707 b 565 722 542 718 553 722 l 728 722 b 750 697 744 722 753 713 l 629 22 b 604 0 626 8 618 0 l 451 0 b 429 26 435 0 428 10 l 467 233 b 506 413 478 292 494 361 l 503 414 b 369 214 469 360 421 283 l 226 15 b 197 0 219 6 210 0 "},"й":{"ha":765,"x_min":0,"x_max":0,"o":"m 38 0 b 15 26 21 0 14 10 l 136 701 b 161 722 138 715 146 722 l 313 722 b 333 697 328 722 336 713 l 296 486 b 258 308 289 440 272 367 l 261 307 b 382 490 293 360 349 444 l 535 707 b 565 722 542 718 553 722 l 728 722 b 750 697 744 722 753 713 l 629 22 b 604 0 626 8 618 0 l 451 0 b 429 26 435 0 428 10 l 467 233 b 506 413 478 292 494 361 l 503 414 b 369 214 469 360 421 283 l 226 15 b 197 0 219 6 210 0 m 699 982 b 439 794 663 858 589 794 b 249 982 319 794 246 885 b 271 1008 249 997 258 1006 l 371 1025 b 396 1003 386 1028 393 1019 b 465 939 400 960 422 939 b 557 1007 510 939 540 961 b 586 1025 563 1022 572 1026 l 681 1008 b 699 982 696 1006 703 996 "},"ѝ":{"ha":765,"x_min":0,"x_max":0,"o":"m 38 0 b 15 26 21 0 14 10 l 136 701 b 161 722 138 715 146 722 l 313 722 b 333 697 328 722 336 713 l 296 486 b 258 308 289 440 272 367 l 261 307 b 382 490 293 360 349 444 l 535 707 b 565 722 542 718 553 722 l 728 722 b 750 697 744 722 753 713 l 629 22 b 604 0 626 8 618 0 l 451 0 b 429 26 435 0 428 10 l 467 233 b 506 413 478 292 494 361 l 503 414 b 369 214 469 360 421 283 l 226 15 b 197 0 219 6 210 0 m 536 826 b 519 799 544 810 536 799 l 424 799 b 394 814 411 799 401 803 l 276 996 b 292 1025 265 1011 272 1025 l 421 1025 b 449 1007 433 1025 443 1018 "},"к":{"ha":699,"x_min":0,"x_max":0,"o":"m 717 722 b 729 694 736 722 742 710 l 465 403 l 640 28 b 621 0 647 11 640 0 l 446 0 b 418 19 433 0 422 6 l 315 272 l 257 213 l 222 22 b 197 0 221 8 211 0 l 38 0 b 17 26 22 0 14 11 l 135 701 b 160 722 136 715 146 722 l 319 722 b 342 697 336 722 344 713 l 301 468 l 507 708 b 536 722 514 718 524 722 "},"ќ":{"ha":699,"x_min":0,"x_max":0,"o":"m 717 722 b 729 694 736 722 742 710 l 465 403 l 640 28 b 621 0 647 11 640 0 l 446 0 b 418 19 433 0 422 6 l 315 272 l 257 213 l 222 22 b 197 0 221 8 211 0 l 38 0 b 17 26 22 0 14 11 l 135 701 b 160 722 136 715 146 722 l 319 722 b 342 697 336 722 344 713 l 301 468 l 507 708 b 536 722 514 718 524 722 m 354 799 b 340 828 333 799 328 813 l 489 1011 b 519 1025 497 1021 507 1025 l 664 1025 b 676 994 685 1025 692 1010 l 492 811 b 463 799 483 801 475 799 "},"л":{"ha":769,"x_min":0,"x_max":0,"o":"m 381 542 b -18 -1 300 139 206 8 b -39 25 -35 -1 -42 10 l -15 167 b 10 190 -12 181 -4 188 b 217 700 88 206 143 308 b 243 722 219 715 229 722 l 732 722 b 754 697 749 722 757 713 l 632 22 b 607 0 631 7 622 0 l 446 0 b 425 26 431 0 422 10 l 518 542 l 381 542 "},"м":{"ha":933,"x_min":0,"x_max":0,"o":"m 39 0 b 17 26 22 0 14 11 l 135 701 b 161 722 138 715 146 722 l 340 722 b 367 701 354 722 363 715 l 410 544 b 457 343 428 476 443 410 l 461 343 b 585 544 501 410 544 481 l 686 707 b 715 722 693 718 703 722 l 896 722 b 918 697 913 722 921 713 l 799 22 b 774 0 797 8 788 0 l 617 0 b 594 26 600 0 592 11 l 625 189 b 671 404 639 258 656 335 l 668 404 b 568 236 639 351 604 294 l 500 131 b 471 115 492 119 483 115 l 375 115 b 349 136 361 115 351 122 l 319 250 b 283 404 307 301 296 353 l 279 404 b 249 186 271 335 258 240 l 219 22 b 194 0 218 7 208 0 "},"н":{"ha":750,"x_min":0,"x_max":0,"o":"m 526 701 b 553 722 529 715 538 722 l 714 722 b 735 697 729 722 738 713 l 614 22 b 588 0 611 7 603 0 l 426 0 b 406 26 411 0 403 11 l 450 278 l 269 278 l 222 22 b 197 0 221 7 211 0 l 38 0 b 15 26 21 0 13 11 l 138 701 b 163 722 139 715 147 722 l 324 722 b 344 697 339 722 347 713 l 303 458 l 483 458 "},"о":{"ha":743,"x_min":0,"x_max":0,"o":"m 669 257 b 307 -18 638 82 511 -18 b 40 297 121 -18 8 121 l 69 469 b 429 742 100 638 236 742 b 701 432 619 742 731 601 l 669 257 m 249 276 b 331 164 236 208 265 164 b 458 268 403 164 447 203 l 490 446 b 406 560 501 508 472 560 b 281 456 339 560 292 518 l 249 276 "},"п":{"ha":750,"x_min":0,"x_max":0,"o":"m 714 722 b 735 697 731 722 738 713 l 613 22 b 588 0 611 7 603 0 l 426 0 b 406 26 411 0 403 10 l 500 543 l 318 543 l 222 22 b 197 0 221 7 211 0 l 36 0 b 15 26 21 0 13 11 l 136 701 b 163 722 139 715 147 722 "},"р":{"ha":749,"x_min":0,"x_max":0,"o":"m 146 683 b 426 740 226 719 333 740 b 706 418 626 740 738 604 l 678 258 b 357 -18 650 94 522 -18 b 222 13 304 -18 257 -7 l 176 -242 b 151 -264 175 -256 165 -264 l -10 -264 b -31 -237 -26 -264 -33 -253 l 126 658 b 146 683 129 669 135 678 m 496 433 b 407 558 513 524 482 558 b 315 538 374 558 339 550 l 253 185 b 342 158 275 168 310 158 b 471 286 413 158 456 200 "},"с":{"ha":626,"x_min":0,"x_max":0,"o":"m 549 42 b 310 -18 474 0 393 -18 b 43 304 122 -18 8 107 l 74 476 b 419 742 104 651 243 742 b 631 675 507 742 575 715 b 635 642 642 667 643 654 l 553 536 b 519 532 543 525 533 524 b 413 561 489 550 451 561 b 282 454 339 561 294 522 l 253 290 b 342 163 236 206 274 163 b 472 203 381 163 428 176 b 506 194 486 211 499 208 l 560 75 b 549 42 567 61 564 50 "},"т":{"ha":619,"x_min":0,"x_max":0,"o":"m 638 722 b 658 697 653 722 661 713 l 635 564 b 610 543 633 550 624 543 l 447 543 l 353 22 b 326 0 350 7 342 0 l 165 0 b 144 26 150 0 142 11 l 238 543 l 76 543 b 56 568 61 543 53 553 l 79 701 b 104 722 81 715 90 722 "},"у":{"ha":750,"x_min":0,"x_max":0,"o":"m 524 701 b 550 722 526 715 535 722 l 710 722 b 732 697 725 722 733 713 l 621 68 b 244 -281 576 -181 472 -281 b -6 -200 133 -281 56 -253 b -8 -167 -17 -192 -17 -178 l 78 -57 b 113 -51 88 -43 99 -43 b 261 -96 150 -78 200 -96 b 410 40 349 -96 394 -57 b 292 19 372 28 333 19 b 60 333 121 19 28 146 l 126 701 b 151 722 128 715 136 722 l 311 722 b 333 697 328 722 336 713 l 264 314 b 346 197 249 232 283 197 b 439 221 383 197 418 208 "},"ў":{"ha":750,"x_min":0,"x_max":0,"o":"m 690 982 b 431 794 654 858 581 794 b 240 982 311 794 238 885 b 263 1008 240 997 250 1006 l 363 1025 b 388 1003 378 1028 385 1019 b 457 939 392 960 414 939 b 549 1007 501 939 532 961 b 578 1025 554 1022 564 1026 l 672 1008 b 690 982 688 1006 694 996 m 524 701 b 550 722 526 715 535 722 l 710 722 b 732 697 725 722 733 713 l 621 68 b 244 -281 576 -181 472 -281 b -6 -200 133 -281 56 -253 b -8 -167 -17 -192 -17 -178 l 78 -57 b 113 -51 88 -43 99 -43 b 261 -96 150 -78 200 -96 b 410 40 349 -96 394 -57 b 292 19 372 28 333 19 b 60 333 121 19 28 146 l 126 701 b 151 722 128 715 136 722 l 311 722 b 333 697 328 722 336 713 l 264 314 b 346 197 249 232 283 197 b 439 221 383 197 418 208 "},"ф":{"ha":1044,"x_min":0,"x_max":0,"o":"m 333 -265 b 313 -239 318 -265 310 -254 l 354 -1 l 290 -1 b 42 310 146 -1 10 126 l 63 424 b 411 722 101 640 254 722 l 483 722 l 528 971 b 553 993 529 985 538 993 l 710 993 b 731 967 725 993 733 982 l 688 722 l 750 722 b 1001 408 910 722 1035 604 l 981 294 b 621 -1 943 90 811 -1 l 560 -1 l 515 -243 b 490 -265 514 -257 504 -265 m 251 313 b 335 182 236 222 267 182 l 386 182 l 450 542 l 397 542 b 271 422 331 542 286 501 l 251 313 m 592 182 l 644 182 b 776 313 717 182 761 224 l 796 422 b 715 542 811 504 785 542 l 656 542 "},"х":{"ha":682,"x_min":0,"x_max":0,"o":"m 694 722 b 710 694 714 722 721 710 l 474 360 l 603 28 b 583 0 610 11 601 0 l 413 0 b 386 21 399 0 390 7 l 324 222 l 185 17 b 156 0 178 6 168 0 l -25 0 b -42 29 -46 0 -53 14 l 213 375 l 94 696 b 113 722 89 713 96 722 l 281 722 b 307 703 294 722 303 717 l 363 496 l 492 707 b 519 722 497 718 506 722 "},"ч":{"ha":715,"x_min":0,"x_max":0,"o":"m 493 701 b 519 722 496 715 504 722 l 679 722 b 700 697 694 722 703 713 l 579 22 b 554 0 576 7 568 0 l 392 0 b 371 26 376 0 368 10 l 408 236 b 300 218 372 224 335 218 b 74 526 143 218 38 328 l 106 701 b 131 722 108 715 117 722 l 293 722 b 314 697 308 722 317 713 l 282 518 b 351 396 265 413 301 396 b 440 411 383 396 417 403 "},"ц":{"ha":790,"x_min":0,"x_max":0,"o":"m 488 -182 b 467 -156 472 -182 464 -171 l 494 0 l 36 0 b 15 26 21 0 13 11 l 136 701 b 163 722 139 715 147 722 l 322 722 b 343 697 339 722 346 713 l 251 182 l 429 182 l 522 701 b 547 722 524 715 533 722 l 707 722 b 729 697 724 722 732 713 l 638 182 l 694 182 b 715 156 710 182 718 171 l 658 -160 b 633 -182 656 -175 647 -182 "},"ш":{"ha":1067,"x_min":0,"x_max":0,"o":"m 849 701 b 874 722 850 715 860 722 l 1029 722 b 1051 697 1044 722 1054 713 l 931 22 b 906 0 929 8 921 0 l 38 0 b 17 26 22 0 14 11 l 135 701 b 161 722 138 715 146 722 l 315 722 b 338 697 332 722 340 713 l 247 182 l 400 182 l 492 701 b 518 722 494 715 503 722 l 671 722 b 693 697 688 722 696 713 l 603 182 l 756 182 "},"щ":{"ha":1115,"x_min":0,"x_max":0,"o":"m 813 -182 b 792 -156 797 -182 789 -171 l 819 0 l 38 0 b 15 26 21 0 13 11 l 138 701 b 163 722 139 715 147 722 l 318 722 b 339 697 333 722 342 713 l 247 182 l 400 182 l 494 701 b 519 722 496 715 506 722 l 674 722 b 694 697 689 722 697 713 l 603 182 l 756 182 l 850 701 b 875 722 851 715 860 722 l 1031 722 b 1051 697 1046 722 1054 713 l 958 182 l 1021 182 b 1042 156 1036 182 1044 171 l 985 -160 b 960 -182 983 -175 974 -182 "},"џ":{"ha":747,"x_min":0,"x_max":0,"o":"m 208 -182 b 186 -156 192 -182 183 -172 l 215 0 l 36 0 b 15 26 21 0 13 10 l 138 701 b 163 722 139 715 149 722 l 324 722 b 344 697 339 722 347 713 l 253 182 l 431 182 l 525 701 b 550 722 526 715 535 722 l 711 722 b 732 697 726 722 735 713 l 610 22 b 585 0 608 7 599 0 l 410 0 l 379 -160 b 354 -182 376 -174 368 -182 "},"ь":{"ha":692,"x_min":0,"x_max":0,"o":"m 418 493 b 644 238 575 493 671 388 b 333 0 615 71 507 0 l 38 0 b 15 26 22 0 14 10 l 136 701 b 161 722 138 715 147 722 l 321 722 b 343 697 338 722 344 713 l 307 493 m 328 171 b 436 250 388 171 426 197 b 358 326 446 303 421 326 l 276 326 l 249 171 l 328 171 "},"ъ":{"ha":797,"x_min":0,"x_max":0,"o":"m 524 493 b 750 238 681 493 778 388 b 439 0 721 71 613 0 l 143 0 b 121 26 128 0 119 11 l 214 546 l 78 546 b 56 572 61 546 53 557 l 79 701 b 104 722 81 715 89 722 l 426 722 b 449 697 443 722 450 713 l 413 493 m 433 171 b 542 250 493 171 533 197 b 464 326 553 303 526 326 l 383 326 l 354 171 l 433 171 "},"ы":{"ha":1049,"x_min":0,"x_max":0,"o":"m 418 493 b 644 238 575 493 671 388 b 333 0 615 71 507 0 l 38 0 b 15 26 22 0 14 10 l 136 701 b 161 722 138 715 147 722 l 321 722 b 343 697 338 722 344 713 l 307 493 m 328 171 b 436 250 388 171 426 197 b 358 326 446 303 421 326 l 276 326 l 249 171 l 328 171 m 726 0 b 704 26 711 0 701 11 l 824 701 b 850 722 826 715 835 722 l 1011 722 b 1033 697 1026 722 1036 713 l 913 22 b 888 0 910 8 901 0 "},"љ":{"ha":1096,"x_min":0,"x_max":0,"o":"m 822 489 b 1049 236 979 489 1075 385 b 739 0 1019 71 911 0 l 443 0 b 422 26 428 0 419 11 l 515 542 l 381 542 b -18 -1 300 139 206 8 b -39 25 -35 -1 -42 10 l -15 167 b 10 190 -12 181 -4 188 b 217 700 88 206 143 308 b 243 722 219 715 229 722 l 729 722 b 751 697 746 722 754 713 l 714 489 m 732 169 b 840 249 792 169 831 196 b 764 324 850 301 824 324 l 685 324 l 656 169 l 732 169 "},"њ":{"ha":1079,"x_min":0,"x_max":0,"o":"m 38 0 b 15 26 21 0 13 11 l 138 701 b 163 722 139 715 149 722 l 324 722 b 344 697 339 722 347 713 l 306 475 l 482 475 l 524 701 b 549 722 525 715 535 722 l 710 722 b 731 697 726 722 733 713 l 692 478 l 804 478 b 1032 229 961 478 1058 375 b 719 0 1001 68 893 0 l 424 0 b 403 26 407 0 400 11 l 453 297 l 275 297 l 222 22 b 197 0 221 7 213 0 m 636 169 l 714 169 b 822 243 774 169 814 194 b 746 313 832 292 806 313 l 663 313 "},"ѕ":{"ha":669,"x_min":0,"x_max":0,"o":"m 607 197 b 282 -18 579 50 456 -18 b 0 75 167 -18 76 13 b -4 108 -12 85 -12 97 l 75 217 b 108 222 85 229 96 231 b 289 163 163 182 224 163 b 396 215 356 163 389 183 b 301 282 406 258 357 269 b 88 542 165 310 57 392 b 401 742 117 682 233 742 b 646 678 497 742 571 721 b 651 644 660 669 661 657 l 569 535 b 536 528 561 522 550 521 b 382 565 493 553 440 565 b 293 519 331 565 299 554 b 396 450 285 478 329 465 b 607 197 503 426 636 360 "},"є":{"ha":633,"x_min":0,"x_max":0,"o":"m 551 44 b 310 -18 474 0 388 -18 b 43 300 121 -18 10 108 l 74 476 b 417 742 103 647 247 742 b 631 675 504 742 575 715 b 635 642 643 667 644 654 l 554 536 b 521 531 546 525 533 524 b 408 561 488 550 449 561 b 278 454 335 561 290 522 l 275 435 l 456 435 b 476 408 472 435 481 424 l 460 319 b 433 299 457 306 449 299 l 250 299 l 247 283 b 336 163 233 206 269 163 b 474 204 376 163 426 176 b 506 194 488 213 500 208 l 561 78 b 551 44 567 63 564 53 "},"э":{"ha":629,"x_min":0,"x_max":0,"o":"m 97 679 b 318 742 169 722 247 742 b 585 424 507 742 618 615 l 554 247 b 211 -18 525 75 381 -18 b -14 57 118 -18 44 11 b -17 90 -25 65 -26 78 l 67 197 b 100 201 76 210 88 210 b 219 163 135 176 176 163 b 350 268 294 163 338 200 l 356 299 l 174 299 b 153 325 157 299 149 310 l 169 413 b 196 435 172 426 181 435 l 381 435 l 381 439 b 292 560 394 518 358 560 b 171 521 256 560 213 546 b 138 529 156 511 144 514 l 85 643 b 97 679 78 658 81 669 "},"і":{"ha":358,"x_min":0,"x_max":0,"o":"m 36 0 b 15 26 21 0 13 11 l 135 701 b 160 722 136 715 146 722 l 321 722 b 343 697 338 722 346 713 l 224 22 b 197 0 221 8 213 0 m 389 924 b 267 824 378 867 329 824 b 165 953 196 824 151 881 b 288 1054 176 1014 224 1054 b 389 924 358 1054 403 999 "},"ї":{"ha":358,"x_min":0,"x_max":0,"o":"m 38 0 b 15 26 22 0 13 11 l 135 701 b 161 722 138 715 146 722 l 322 722 b 344 697 338 722 347 713 l 224 22 b 199 0 221 8 213 0 m 238 901 b 126 803 226 840 185 803 b 44 908 71 803 33 843 b 158 1006 56 969 101 1006 b 238 901 215 1006 250 963 m 511 901 b 401 803 500 840 458 803 b 318 908 344 803 307 843 b 432 1006 329 969 375 1006 b 511 901 489 1006 524 963 "},"ј":{"ha":369,"x_min":0,"x_max":0,"o":"m 232 -1 b -64 -281 193 -221 75 -281 b -129 -275 -89 -281 -111 -278 b -147 -246 -144 -272 -150 -261 l -122 -104 b -99 -83 -119 -89 -111 -82 b -64 -85 -87 -85 -75 -85 b 26 24 -18 -85 14 -50 l 144 701 b 171 722 147 715 156 722 l 332 722 b 353 697 347 722 356 713 l 232 -1 m 399 924 b 276 824 388 867 339 824 b 175 953 206 824 161 881 b 297 1054 188 1014 235 1054 b 399 924 368 1054 413 999 "},"ћ":{"ha":758,"x_min":0,"x_max":0,"o":"m 338 676 b 479 707 375 696 424 707 b 696 379 640 707 733 585 l 629 22 b 604 0 626 8 618 0 l 443 0 b 422 26 428 0 419 11 l 490 403 b 406 525 506 483 479 525 b 307 499 369 525 332 514 l 224 22 b 197 0 221 8 213 0 l 38 0 b 15 26 21 0 14 11 l 151 794 l 76 794 b 54 821 60 794 51 806 l 67 882 b 92 903 69 896 78 903 l 171 903 l 182 971 b 208 993 185 985 193 993 l 367 993 b 389 967 383 993 392 982 l 378 903 l 524 903 b 546 878 540 903 547 893 l 533 817 b 508 794 532 801 522 794 l 358 794 l 338 676 "},"ю":{"ha":1067,"x_min":0,"x_max":0,"o":"m 407 458 b 757 742 442 639 564 742 b 1025 432 944 742 1056 601 l 994 257 b 632 -18 963 82 836 -18 b 375 275 458 -18 360 104 l 268 275 l 224 22 b 197 0 221 8 213 0 l 38 0 b 15 26 21 0 14 10 l 136 701 b 161 722 138 715 146 722 l 322 722 b 344 697 338 722 346 713 l 301 458 l 407 458 m 815 446 b 732 560 826 508 797 560 b 608 456 667 560 619 518 l 576 276 b 657 164 564 208 593 164 b 783 268 728 164 771 203 "},"я":{"ha":733,"x_min":0,"x_max":0,"o":"m -21 0 b -36 29 -42 0 -47 14 l 172 279 b 82 503 100 322 65 403 b 388 722 104 635 228 722 l 696 722 b 717 696 711 722 719 713 l 597 22 b 571 0 594 8 586 0 l 411 0 b 389 26 394 0 386 10 l 426 238 l 357 238 l 196 15 b 167 0 190 4 179 0 m 290 486 b 363 401 281 436 303 401 l 457 401 l 483 550 l 393 550 b 290 486 335 550 300 531 "},"ђ":{"ha":757,"x_min":0,"x_max":0,"o":"m 338 676 b 476 707 375 694 422 707 b 693 378 639 707 729 583 l 625 0 b 331 -281 586 -221 468 -281 b 264 -275 304 -281 282 -278 b 246 -246 249 -272 243 -261 l 271 -104 b 296 -83 274 -89 282 -82 b 329 -85 307 -85 319 -85 b 421 24 375 -85 407 -50 l 489 403 b 403 525 503 483 476 525 b 306 499 368 525 332 514 l 222 22 b 197 0 221 8 211 0 l 38 0 b 15 26 21 0 13 11 l 150 794 l 75 794 b 54 821 58 794 51 806 l 67 882 b 92 903 68 896 78 903 l 169 903 l 182 971 b 207 993 185 985 193 993 l 367 993 b 388 967 383 993 390 982 l 378 903 l 524 903 b 546 878 540 903 547 893 l 533 817 b 508 794 531 801 522 794 l 358 794 l 338 676 "},"Α":{"ha":875,"x_min":0,"x_max":0,"o":"m 617 0 b 592 22 603 0 593 7 l 572 185 l 260 185 l 185 18 b 157 0 181 6 169 0 l -33 0 b -50 29 -51 0 -58 11 l 413 975 b 440 993 418 988 428 993 l 643 993 b 669 971 657 993 667 986 l 813 25 b 790 0 815 10 807 0 m 507 751 b 347 382 468 660 408 515 l 550 382 b 513 751 536 519 521 663 "},"Β":{"ha":865,"x_min":0,"x_max":0,"o":"m 61 0 b 39 26 44 0 36 11 l 206 971 b 231 993 208 985 217 993 l 572 993 b 836 706 767 993 864 868 b 710 525 822 625 778 560 b 806 299 788 485 824 406 b 411 0 774 107 646 0 m 288 196 l 435 196 b 585 319 513 196 571 236 b 479 426 594 385 565 426 l 328 426 m 361 606 l 489 606 b 615 708 560 606 604 643 b 524 803 626 767 601 803 l 396 803 "},"Γ":{"ha":707,"x_min":0,"x_max":0,"o":"m 61 0 b 39 26 46 0 38 11 l 206 971 b 231 993 208 985 217 993 l 774 993 b 796 967 790 993 799 982 l 768 810 b 743 789 767 796 757 789 l 400 789 l 264 22 b 239 0 261 8 253 0 "},"Δ":{"ha":889,"x_min":0,"x_max":0,"o":"m 658 993 b 685 971 674 993 682 986 l 826 25 b 804 0 829 10 819 0 l -35 0 b -51 29 -53 0 -60 11 l 424 975 b 451 993 429 988 438 993 m 264 193 l 585 193 l 551 450 b 521 744 540 540 528 664 l 514 744 b 393 463 481 664 435 554 "},"Ε":{"ha":794,"x_min":0,"x_max":0,"o":"m 799 817 b 774 794 796 803 788 794 l 396 794 l 361 601 l 692 601 b 713 575 707 601 715 592 l 686 429 b 661 407 683 415 675 407 l 326 407 l 290 200 l 683 200 b 706 174 699 200 707 189 l 681 22 b 654 0 678 7 669 0 l 61 0 b 39 26 44 0 38 11 l 207 971 b 232 993 210 985 218 993 l 803 993 b 825 967 819 993 828 982 "},"Ζ":{"ha":824,"x_min":0,"x_max":0,"o":"m 8 0 b -14 26 -8 0 -17 11 l 8 144 b 22 172 11 157 15 163 l 546 794 l 174 794 b 153 821 158 794 150 806 l 179 971 b 204 993 182 985 190 993 l 849 993 b 871 967 865 993 874 982 l 849 853 b 836 824 846 840 843 833 l 321 199 l 722 199 b 743 172 738 199 746 189 l 717 22 b 690 0 714 8 706 0 "},"Η":{"ha":924,"x_min":0,"x_max":0,"o":"m 713 971 b 738 993 714 985 724 993 l 910 993 b 932 967 925 993 933 982 l 764 22 b 739 0 763 8 754 0 l 567 0 b 546 26 551 0 543 11 l 613 401 l 325 401 l 258 22 b 232 0 256 8 247 0 l 61 0 b 39 26 44 0 36 11 l 206 971 b 231 993 208 985 217 993 l 403 993 b 425 967 419 993 426 982 l 361 603 l 647 603 "},"Θ":{"ha":911,"x_min":0,"x_max":0,"o":"m 374 564 b 399 586 375 579 385 586 l 583 586 b 604 560 599 586 607 575 l 583 436 b 557 414 581 422 572 414 l 372 414 b 351 440 356 414 349 425 m 843 354 b 389 -18 803 117 639 -18 b 74 401 151 -18 31 154 l 117 647 b 565 1011 157 875 322 1011 b 886 600 803 1011 928 850 l 843 354 m 294 376 b 421 185 275 263 318 185 b 619 367 531 185 600 254 l 664 621 b 536 808 683 732 642 808 b 340 628 426 808 361 742 l 294 376 "},"Ι":{"ha":417,"x_min":0,"x_max":0,"o":"m 258 22 b 233 0 256 8 247 0 l 61 0 b 39 26 46 0 38 11 l 206 971 b 232 993 208 985 217 993 l 403 993 b 425 967 419 993 428 982 "},"Κ":{"ha":871,"x_min":0,"x_max":0,"o":"m 931 993 b 944 963 951 993 958 979 l 551 546 l 817 29 b 799 0 825 13 817 0 l 603 0 b 575 18 590 0 579 6 l 393 393 l 310 313 l 258 22 b 232 0 256 8 247 0 l 61 0 b 39 26 44 0 36 11 l 206 971 b 232 993 208 985 217 993 l 403 993 b 425 967 419 993 428 983 l 364 622 l 678 979 b 707 993 685 988 696 993 "},"Λ":{"ha":889,"x_min":0,"x_max":0,"o":"m -35 0 b -51 29 -53 0 -60 11 l 424 975 b 451 993 429 988 438 993 l 658 993 b 685 971 672 993 682 986 l 826 25 b 803 0 828 10 819 0 l 628 0 b 603 22 614 0 604 7 l 550 450 b 521 744 540 540 528 664 l 514 744 b 393 463 479 664 435 554 l 186 18 b 157 0 182 6 171 0 "},"Μ":{"ha":1167,"x_min":0,"x_max":0,"o":"m 61 0 b 39 26 44 0 36 11 l 204 971 b 229 993 207 985 215 993 l 425 993 b 453 972 439 993 449 988 l 522 735 b 592 450 544 649 579 508 l 596 450 b 765 738 628 507 708 649 l 921 978 b 950 993 928 989 936 993 l 1153 993 b 1175 967 1169 993 1178 982 l 1010 22 b 983 0 1007 8 999 0 l 814 0 b 792 26 799 0 790 11 l 822 203 b 910 643 840 311 879 500 l 903 644 b 739 363 869 581 794 453 l 650 224 b 622 207 643 211 635 207 l 496 207 b 468 228 482 207 472 214 l 426 369 b 360 638 404 456 372 575 l 353 638 b 289 207 335 492 308 328 l 257 22 b 231 0 256 7 246 0 "},"Ν":{"ha":950,"x_min":0,"x_max":0,"o":"m 60 0 b 39 26 44 0 36 11 l 206 971 b 231 993 207 985 217 993 l 414 993 b 442 974 428 993 439 988 l 551 644 b 638 346 583 543 621 410 l 644 347 b 700 732 658 471 679 611 l 742 971 b 767 993 744 985 753 993 l 936 993 b 958 967 953 993 961 982 l 792 22 b 765 0 789 8 781 0 l 583 0 b 556 19 571 0 561 6 l 446 314 b 350 644 407 415 367 564 l 344 642 b 292 231 332 510 315 358 l 256 22 b 231 0 253 8 244 0 "},"Ξ":{"ha":828,"x_min":0,"x_max":0,"o":"m 175 792 b 153 818 158 792 150 801 l 182 971 b 208 993 185 985 194 993 l 840 993 b 863 967 857 993 865 983 l 833 813 b 808 792 831 799 822 792 m 151 406 b 129 432 136 406 128 415 l 157 581 b 183 603 160 594 168 603 l 728 603 b 749 576 743 603 751 592 l 722 426 b 697 406 721 413 711 406 m 17 0 b -4 26 1 0 -7 10 l 22 181 b 49 201 25 194 35 201 l 721 201 b 742 175 736 201 744 192 l 714 22 b 688 0 711 8 703 0 "},"Ο":{"ha":911,"x_min":0,"x_max":0,"o":"m 843 354 b 389 -18 803 117 639 -18 b 74 401 151 -18 31 154 l 117 647 b 565 1011 157 875 322 1011 b 886 600 803 1011 928 850 l 843 354 m 294 376 b 421 185 275 263 318 185 b 619 367 531 185 600 254 l 664 621 b 536 808 683 732 642 808 b 340 628 426 808 361 742 l 294 376 "},"Π":{"ha":922,"x_min":0,"x_max":0,"o":"m 58 0 b 38 26 43 0 35 11 l 208 971 b 233 993 210 986 218 993 l 911 993 b 932 967 926 993 935 982 l 761 22 b 736 0 760 7 751 0 l 564 0 b 543 26 549 0 540 11 l 681 792 l 396 792 l 257 22 b 231 0 254 7 246 0 "},"Ρ":{"ha":850,"x_min":0,"x_max":0,"o":"m 546 993 b 861 621 779 993 901 842 b 461 296 825 424 685 296 l 307 296 l 258 22 b 232 0 256 8 247 0 l 60 0 b 39 26 44 0 36 11 l 206 971 b 231 993 207 985 217 993 m 465 494 b 639 639 564 494 624 546 b 515 793 656 740 608 793 l 394 793 l 342 494 l 465 494 "},"Σ":{"ha":807,"x_min":0,"x_max":0,"o":"m 13 0 b -10 25 -3 0 -12 10 l 7 124 b 19 151 8 135 13 143 l 322 513 l 150 861 b 144 892 144 871 143 881 l 158 971 b 185 993 161 985 169 993 l 835 993 b 856 967 851 993 858 982 l 828 815 b 803 794 825 801 817 794 l 424 794 b 556 529 438 769 464 715 b 553 496 561 517 560 506 l 313 201 l 696 201 b 717 175 711 201 719 190 l 688 22 b 663 0 686 8 678 0 "},"Τ":{"ha":781,"x_min":0,"x_max":0,"o":"m 847 993 b 869 967 864 993 872 983 l 842 814 b 817 792 840 800 832 792 l 576 792 l 440 22 b 415 0 438 8 429 0 l 242 0 b 221 26 226 0 218 11 l 357 792 l 119 792 b 97 818 103 792 96 803 l 125 971 b 150 993 128 985 136 993 "},"Υ":{"ha":808,"x_min":0,"x_max":0,"o":"m 254 0 b 232 26 238 0 229 10 l 293 357 l 108 967 b 128 993 103 982 111 993 l 308 993 b 333 972 322 993 331 986 l 435 563 l 438 563 l 674 976 b 701 993 681 988 689 993 l 893 993 b 908 964 911 993 918 981 l 515 353 l 453 22 b 428 0 450 7 442 0 "},"Φ":{"ha":1179,"x_min":0,"x_max":0,"o":"m 867 963 b 1150 589 1056 963 1190 814 l 1118 397 b 706 26 1074 150 915 26 l 639 26 l 621 -71 b 596 -93 619 -85 610 -93 l 425 -93 b 403 -67 408 -93 401 -82 l 419 26 l 357 26 b 72 404 169 26 33 175 l 107 596 b 519 963 150 840 310 963 l 586 963 l 601 1054 b 628 1075 604 1068 613 1075 l 799 1075 b 821 1050 814 1075 822 1065 l 806 963 m 293 385 b 403 238 275 281 325 238 l 457 238 l 549 751 l 497 751 b 331 601 418 751 350 708 l 293 385 m 931 606 b 822 751 949 711 899 751 l 768 751 l 676 238 l 728 238 b 893 389 806 238 875 283 "},"Χ":{"ha":840,"x_min":0,"x_max":0,"o":"m 899 993 b 914 964 918 993 925 981 l 578 494 l 765 28 b 746 0 771 11 764 0 l 560 0 b 533 19 546 0 538 7 l 421 335 l 213 17 b 183 0 206 6 196 0 l -25 0 b -40 29 -44 0 -51 14 l 306 499 l 140 965 b 160 993 135 982 143 993 l 340 993 b 368 974 354 993 364 986 l 464 658 l 669 976 b 699 993 676 988 685 993 "},"Ψ":{"ha":1153,"x_min":0,"x_max":0,"o":"m 975 971 b 1000 993 978 985 986 993 l 1169 993 b 1190 967 1185 993 1193 982 l 1119 564 b 693 204 1076 321 917 204 l 656 204 l 624 22 b 597 0 621 8 613 0 l 429 0 b 407 26 414 0 404 11 l 439 204 l 404 204 b 103 568 206 204 67 361 l 174 971 b 200 993 176 985 185 993 l 368 993 b 389 967 383 993 392 982 l 319 560 b 449 406 300 450 354 406 l 475 406 l 575 971 b 600 993 576 985 585 993 l 768 993 b 790 967 785 993 792 982 l 692 406 l 718 406 b 904 563 811 406 885 453 "},"Ω":{"ha":946,"x_min":0,"x_max":0,"o":"m 31 0 b 8 26 14 0 6 11 l 33 169 b 58 190 36 185 44 190 l 139 190 b 103 458 100 263 86 360 l 129 619 b 583 1011 175 881 356 1011 b 903 606 807 1011 944 853 l 875 446 b 744 190 860 358 811 261 l 819 190 b 842 164 835 190 844 181 l 815 22 b 790 0 814 7 804 0 l 479 0 b 457 26 463 0 454 11 l 479 158 b 501 185 481 171 489 179 b 647 418 574 211 624 286 l 679 615 b 551 808 706 757 654 807 b 351 611 450 808 378 753 l 319 417 b 374 186 294 286 317 215 b 389 156 385 178 390 169 l 367 22 b 340 0 364 7 356 0 "},"Ά":{"ha":1000,"x_min":0,"x_max":0,"o":"m 97 767 b 83 796 76 767 71 781 l 232 979 b 263 993 240 989 250 993 l 407 993 b 419 963 428 993 435 978 l 235 779 b 206 767 226 769 218 767 m 742 0 b 717 22 728 0 718 7 l 697 185 l 385 185 l 310 18 b 282 0 306 6 294 0 l 92 0 b 75 29 74 0 67 11 l 538 975 b 565 993 543 988 553 993 l 768 993 b 794 971 782 993 792 986 l 938 25 b 915 0 940 10 932 0 m 632 751 b 472 382 593 660 533 515 l 675 382 b 638 751 661 519 646 663 "},"Έ":{"ha":1088,"x_min":0,"x_max":0,"o":"m 86 767 b 72 796 65 767 60 781 l 221 979 b 251 993 229 989 239 993 l 396 993 b 408 963 417 993 424 978 l 224 779 b 194 767 215 769 207 767 m 1092 817 b 1067 794 1089 803 1081 794 l 689 794 l 654 601 l 985 601 b 1006 575 1000 601 1008 592 l 979 429 b 954 407 976 415 968 407 l 619 407 l 583 200 l 976 200 b 999 174 992 200 1000 189 l 974 22 b 947 0 971 7 963 0 l 354 0 b 332 26 338 0 331 11 l 500 971 b 525 993 503 985 511 993 l 1096 993 b 1118 967 1113 993 1121 982 "},"Ή":{"ha":1233,"x_min":0,"x_max":0,"o":"m 86 767 b 72 796 65 767 60 781 l 221 979 b 251 993 229 989 239 993 l 396 993 b 408 963 417 993 424 978 l 224 779 b 194 767 215 769 207 767 m 1022 971 b 1047 993 1024 985 1033 993 l 1219 993 b 1242 967 1235 993 1243 982 l 1074 22 b 1049 0 1072 8 1064 0 l 876 0 b 856 26 861 0 853 11 l 922 401 l 635 401 l 568 22 b 542 0 565 8 557 0 l 371 0 b 349 26 354 0 346 11 l 515 971 b 540 993 518 985 526 993 l 713 993 b 735 967 729 993 736 982 l 671 603 l 957 603 "},"Ί":{"ha":707,"x_min":0,"x_max":0,"o":"m 86 767 b 72 796 65 767 60 781 l 221 979 b 251 993 229 989 239 993 l 396 993 b 408 963 417 993 424 978 l 224 779 b 194 767 215 769 207 767 m 549 22 b 524 0 546 8 538 0 l 351 0 b 329 26 336 0 328 11 l 496 971 b 522 993 499 985 507 993 l 693 993 b 715 967 710 993 718 982 "},"Ό":{"ha":1133,"x_min":0,"x_max":0,"o":"m 88 767 b 74 796 67 767 61 781 l 222 979 b 253 993 231 989 240 993 l 397 993 b 410 963 418 993 425 978 l 225 779 b 196 767 217 769 208 767 m 1065 354 b 611 -18 1025 117 861 -18 b 296 401 374 -18 253 154 l 339 647 b 788 1011 379 875 544 1011 b 1108 600 1025 1011 1150 850 l 1065 354 m 517 376 b 643 185 497 263 540 185 b 842 367 753 185 822 254 l 886 621 b 758 808 906 732 864 808 b 563 628 649 808 583 742 l 517 376 "},"Ύ":{"ha":1218,"x_min":0,"x_max":0,"o":"m 114 767 b 100 796 93 767 88 781 l 249 979 b 279 993 257 989 267 993 l 424 993 b 436 963 444 993 451 978 l 251 779 b 222 767 243 769 235 767 m 664 0 b 642 26 647 0 639 10 l 703 357 l 518 967 b 538 993 513 982 521 993 l 718 993 b 743 972 732 993 740 986 l 844 563 l 847 563 l 1083 976 b 1111 993 1090 988 1099 993 l 1303 993 b 1318 964 1321 993 1328 981 l 925 353 l 863 22 b 838 0 860 7 851 0 "},"Ώ":{"ha":1146,"x_min":0,"x_max":0,"o":"m 231 0 b 208 26 214 0 206 11 l 233 169 b 258 190 236 185 244 190 l 339 190 b 303 458 300 263 286 360 l 329 619 b 783 1011 375 881 556 1011 b 1103 606 1007 1011 1144 853 l 1075 446 b 944 190 1060 358 1011 261 l 1019 190 b 1042 164 1035 190 1044 181 l 1015 22 b 990 0 1014 7 1004 0 l 679 0 b 657 26 663 0 654 11 l 679 158 b 701 185 681 171 689 179 b 847 418 774 211 824 286 l 879 615 b 751 808 906 757 854 807 b 551 611 650 808 578 753 l 519 417 b 574 186 494 286 517 215 b 589 156 585 178 590 169 l 567 22 b 540 0 564 7 556 0 m 89 767 b 75 796 68 767 63 781 l 224 979 b 254 993 232 989 242 993 l 399 993 b 411 963 419 993 426 978 l 226 779 b 197 767 218 769 210 767 "},"Ϊ":{"ha":417,"x_min":0,"x_max":0,"o":"m 258 22 b 233 0 256 8 247 0 l 61 0 b 39 26 46 0 38 11 l 206 971 b 232 993 208 985 217 993 l 403 993 b 425 967 419 993 428 982 m 315 1164 b 199 1063 304 1103 258 1063 b 114 1167 135 1063 106 1113 b 231 1268 124 1226 171 1268 b 315 1164 293 1268 325 1219 m 593 1164 b 476 1063 585 1103 538 1063 b 392 1167 411 1063 383 1113 b 508 1268 403 1228 449 1268 b 593 1164 572 1268 603 1221 "},"Ϋ":{"ha":808,"x_min":0,"x_max":0,"o":"m 483 1178 b 367 1076 472 1117 426 1076 b 282 1181 303 1076 274 1126 b 399 1282 292 1240 339 1282 b 483 1178 461 1282 493 1233 m 778 1178 b 661 1076 768 1117 722 1076 b 576 1181 594 1076 567 1126 b 693 1282 586 1242 632 1282 b 778 1178 756 1282 786 1235 m 254 0 b 232 26 238 0 229 10 l 293 357 l 108 967 b 128 993 103 982 111 993 l 308 993 b 333 972 322 993 331 986 l 435 563 l 438 563 l 674 976 b 701 993 681 988 689 993 l 893 993 b 908 964 911 993 918 981 l 515 353 l 453 22 b 428 0 450 7 442 0 "},"α":{"ha":746,"x_min":0,"x_max":0,"o":"m 444 67 b 243 -17 394 15 321 -17 b 39 290 96 -17 7 108 l 67 446 b 444 740 103 640 261 740 b 708 689 524 740 624 719 b 725 660 721 683 726 674 l 611 22 b 586 0 610 8 601 0 l 474 0 b 447 22 458 0 450 7 l 444 67 m 247 263 b 317 165 236 203 258 165 b 438 219 358 165 407 189 l 496 544 b 417 557 472 553 442 557 b 281 449 349 557 293 518 l 247 263 "},"β":{"ha":757,"x_min":0,"x_max":0,"o":"m -8 -265 b -31 -239 -25 -265 -33 -254 l 136 707 b 478 1011 171 906 311 1011 b 736 707 653 1011 767 882 b 597 515 721 622 663 554 b 693 260 672 472 714 381 b 365 -18 661 82 542 -17 b 221 10 315 -19 267 -8 l 176 -243 b 150 -265 174 -257 165 -265 m 253 189 b 340 172 276 178 308 172 b 488 294 422 172 472 213 b 385 411 501 372 465 411 l 363 411 b 349 433 350 411 347 421 l 372 565 b 392 585 375 578 381 585 l 417 585 b 531 714 472 585 518 636 b 457 829 544 793 511 829 b 344 707 396 829 356 781 l 253 189 "},"γ":{"ha":713,"x_min":0,"x_max":0,"o":"m 167 -265 b 146 -239 151 -265 143 -254 l 192 25 l 67 697 b 88 722 64 713 71 722 l 254 722 b 279 700 268 722 278 715 l 304 519 b 332 239 314 438 329 321 l 336 239 b 453 522 367 321 418 447 l 539 706 b 568 722 543 717 554 722 l 744 722 b 761 694 763 722 769 711 l 401 22 l 354 -243 b 328 -265 351 -257 343 -265 "},"δ":{"ha":732,"x_min":0,"x_max":0,"o":"m 665 258 b 301 -18 629 71 486 -18 b 35 282 124 -18 1 94 l 54 392 b 236 619 75 504 157 583 b 164 818 172 678 149 739 b 482 1011 185 931 293 1011 b 717 944 568 1011 644 992 b 724 911 729 936 732 925 l 639 790 b 606 785 631 778 619 776 b 457 831 553 818 501 831 b 360 779 400 831 367 811 b 531 639 351 726 439 681 b 681 346 651 582 704 488 l 665 258 m 246 276 b 328 165 231 196 274 165 b 458 281 388 165 443 197 l 472 363 b 394 496 485 436 450 485 b 260 361 333 493 275 451 l 246 276 "},"ε":{"ha":681,"x_min":0,"x_max":0,"o":"m 603 88 b 286 -18 528 22 421 -18 b 19 225 103 -18 -3 96 b 156 385 32 299 76 354 b 99 544 111 419 86 479 b 421 742 121 668 236 742 b 678 649 531 742 618 703 b 679 614 689 638 688 625 l 592 518 b 557 517 582 507 569 507 b 408 572 521 550 472 572 b 297 508 340 572 304 546 b 385 440 289 460 322 440 l 468 440 b 489 414 485 440 492 429 l 474 319 b 447 297 471 306 463 297 l 356 297 b 229 225 286 297 238 276 b 325 154 221 179 253 154 b 515 221 393 154 461 181 b 550 215 529 231 540 229 l 608 121 b 603 88 615 108 614 97 "},"ζ":{"ha":647,"x_min":0,"x_max":0,"o":"m 369 -268 b 336 -268 360 -279 347 -278 l 243 -182 b 244 -149 231 -169 232 -158 b 310 -54 275 -119 304 -81 b 39 339 335 44 -14 43 b 451 811 69 514 235 704 l 451 813 b 364 810 425 811 393 810 l 179 810 b 157 836 163 810 154 819 l 182 971 b 207 993 183 985 193 993 l 731 993 b 753 967 747 993 756 982 l 736 869 b 717 842 735 857 728 850 b 251 350 450 686 279 504 b 519 -26 213 135 551 168 b 369 -268 507 -108 442 -201 "},"η":{"ha":758,"x_min":0,"x_max":0,"o":"m 36 0 b 14 26 19 0 11 11 l 128 661 b 149 686 131 672 136 681 b 431 742 236 719 340 742 b 700 411 640 742 735 608 l 631 22 b 604 0 628 8 619 0 l 444 0 b 422 26 429 0 421 11 l 492 432 b 404 560 508 519 478 560 b 315 543 371 560 336 553 l 224 22 b 197 0 221 7 213 0 "},"θ":{"ha":794,"x_min":0,"x_max":0,"o":"m 715 297 b 329 -18 681 97 549 -18 b 60 326 143 -18 24 121 l 125 696 b 508 1011 160 892 296 1011 b 781 669 697 1011 817 874 l 715 297 m 265 299 b 360 164 251 208 288 164 b 506 303 436 164 490 213 l 526 417 l 286 417 l 265 299 m 314 588 l 554 588 l 572 692 b 478 831 589 788 546 831 b 332 688 407 831 347 781 "},"ι":{"ha":360,"x_min":0,"x_max":0,"o":"m 38 0 b 15 26 22 0 13 11 l 135 701 b 161 722 138 715 146 722 l 322 722 b 344 697 338 722 347 713 l 224 22 b 199 0 221 8 213 0 "},"κ":{"ha":697,"x_min":0,"x_max":0,"o":"m 715 722 b 728 694 735 722 740 710 l 464 403 l 639 28 b 619 0 646 11 639 0 l 444 0 b 417 19 432 0 421 6 l 314 272 l 256 213 l 221 22 b 196 0 219 8 210 0 l 36 0 b 15 26 21 0 13 11 l 133 701 b 158 722 135 715 144 722 l 318 722 b 340 697 335 722 343 713 l 300 468 l 506 708 b 535 722 513 718 522 722 "},"λ":{"ha":761,"x_min":0,"x_max":0,"o":"m 189 926 b 490 1011 269 981 374 1011 b 740 674 653 1011 782 911 l 626 22 b 600 0 624 8 615 0 l 439 0 b 418 26 424 0 415 11 l 494 464 b 406 482 469 475 439 482 b 276 361 340 482 292 449 l 217 22 b 192 0 214 8 206 0 l 31 0 b 8 26 14 0 6 11 l 69 376 b 404 667 104 569 222 667 b 528 649 453 667 493 660 l 539 713 b 451 826 553 793 522 826 b 275 775 382 826 319 807 b 242 782 261 765 250 767 l 183 894 b 189 926 176 907 178 918 "},"μ":{"ha":772,"x_min":0,"x_max":0,"o":"m -10 -265 b -32 -239 -26 -265 -35 -254 l 135 701 b 160 722 136 715 146 722 l 321 722 b 343 697 336 722 344 713 l 271 283 b 349 168 257 213 288 168 b 474 282 411 168 464 217 l 549 701 b 574 722 550 715 560 722 l 735 722 b 757 697 751 722 758 713 l 638 22 b 613 0 635 8 626 0 l 510 0 b 483 24 494 0 485 8 l 479 78 b 324 -18 440 13 386 -18 b 210 49 268 -18 229 7 b 196 -60 207 26 201 -24 l 163 -243 b 138 -265 160 -257 151 -265 "},"ν":{"ha":708,"x_min":0,"x_max":0,"o":"m 201 0 b 175 22 186 0 176 7 l 68 697 b 92 722 67 713 75 722 l 253 722 b 278 700 267 722 276 715 l 311 401 b 328 218 317 354 324 281 l 331 218 b 406 403 356 279 381 343 l 538 704 b 567 722 543 715 553 722 l 739 722 b 756 694 757 722 764 711 l 413 18 b 385 0 407 6 397 0 "},"ξ":{"ha":635,"x_min":0,"x_max":0,"o":"m 379 -265 b 346 -267 369 -276 358 -281 l 251 -182 b 251 -149 238 -169 244 -157 b 319 -57 269 -129 311 -85 b 33 315 347 31 -8 58 b 236 542 51 424 129 504 b 140 767 150 604 124 674 b 472 1011 168 919 300 1011 b 724 929 564 1011 661 985 b 728 896 733 921 739 911 l 643 788 b 606 786 632 774 618 778 b 467 831 563 817 519 831 b 335 735 401 831 346 801 b 474 615 322 664 375 615 l 540 615 b 563 589 557 615 565 604 l 539 457 b 513 435 536 443 528 435 l 422 435 b 240 310 321 435 251 376 b 524 -39 219 158 554 156 b 379 -265 514 -103 468 -175 "},"ο":{"ha":743,"x_min":0,"x_max":0,"o":"m 669 257 b 307 -18 638 82 511 -18 b 40 297 121 -18 8 121 l 69 469 b 429 742 100 638 236 742 b 701 432 619 742 731 601 l 669 257 m 249 276 b 331 164 236 208 265 164 b 458 268 403 164 447 203 l 490 446 b 406 560 501 508 472 560 b 281 456 339 560 292 518 l 249 276 "},"π":{"ha":750,"x_min":0,"x_max":0,"o":"m 714 722 b 735 697 731 722 738 713 l 613 22 b 588 0 611 7 603 0 l 426 0 b 406 26 411 0 403 10 l 500 543 l 318 543 l 222 22 b 197 0 221 7 211 0 l 36 0 b 15 26 21 0 13 11 l 136 701 b 163 722 139 715 147 722 "},"ρ":{"ha":751,"x_min":0,"x_max":0,"o":"m -17 -264 b -37 -237 -32 -264 -40 -254 l 82 440 b 442 742 119 650 246 742 b 708 421 614 742 742 619 l 682 267 b 328 -18 649 78 524 -18 b 214 8 294 -18 254 -11 l 171 -243 b 144 -264 168 -257 160 -264 m 247 197 b 335 172 271 181 304 172 b 472 286 406 172 458 210 l 499 433 b 415 551 514 518 476 551 b 288 426 351 551 303 513 l 247 197 "},"ς":{"ha":613,"x_min":0,"x_max":0,"o":"m 257 317 b 518 -31 231 160 551 165 b 369 -267 504 -108 460 -174 b 336 -268 358 -278 347 -279 l 242 -182 b 242 -149 229 -171 231 -160 b 310 -51 272 -115 307 -72 b 46 332 325 39 -6 54 l 71 475 b 415 742 103 651 247 742 b 633 678 504 742 576 718 b 638 644 646 669 647 657 l 554 538 b 521 531 544 526 535 524 b 406 560 489 549 447 560 b 279 444 342 560 292 519 "},"σ":{"ha":790,"x_min":0,"x_max":0,"o":"m 804 722 b 825 697 819 722 828 713 l 801 563 b 775 540 799 549 790 540 l 669 540 b 692 375 696 494 701 431 l 675 276 b 319 -18 642 85 499 -18 b 40 290 104 -18 14 135 l 63 425 b 433 722 97 621 221 722 m 492 429 b 404 543 506 508 471 543 b 272 425 340 543 286 508 l 246 274 b 335 163 233 196 268 163 b 465 278 403 163 453 200 "},"τ":{"ha":619,"x_min":0,"x_max":0,"o":"m 638 722 b 658 697 653 722 661 713 l 635 564 b 610 543 633 550 624 543 l 447 543 l 353 22 b 326 0 350 7 342 0 l 165 0 b 144 26 150 0 142 11 l 238 543 l 76 543 b 56 568 61 543 53 553 l 79 701 b 104 722 81 715 90 722 "},"υ":{"ha":754,"x_min":0,"x_max":0,"o":"m 668 264 b 311 -17 638 89 519 -17 b 53 286 136 -17 22 121 l 129 701 b 154 722 131 715 140 722 l 314 722 b 335 697 329 722 338 713 l 258 267 b 342 165 246 201 279 165 b 461 275 401 165 450 207 l 539 701 b 564 722 542 715 550 722 l 725 722 b 746 697 740 722 749 713 l 668 264 "},"φ":{"ha":1044,"x_min":0,"x_max":0,"o":"m 333 -265 b 313 -239 318 -265 310 -254 l 354 -1 l 290 -1 b 42 310 146 -1 10 126 l 63 424 b 411 722 101 640 254 722 l 483 722 l 528 971 b 553 993 529 985 538 993 l 710 993 b 731 967 725 993 733 982 l 688 722 l 750 722 b 1001 408 910 722 1035 604 l 981 294 b 621 -1 943 90 811 -1 l 560 -1 l 515 -243 b 490 -265 514 -257 504 -265 m 251 313 b 335 182 236 222 267 182 l 386 182 l 450 542 l 397 542 b 271 422 331 542 286 501 l 251 313 m 592 182 l 644 182 b 776 313 717 182 761 224 l 796 422 b 715 542 811 504 785 542 l 656 542 "},"χ":{"ha":682,"x_min":0,"x_max":0,"o":"m 694 722 b 710 694 714 722 721 710 l 474 360 l 603 28 b 583 0 610 11 601 0 l 413 0 b 386 21 399 0 390 7 l 324 222 l 185 17 b 156 0 178 6 168 0 l -25 0 b -42 29 -46 0 -53 14 l 213 375 l 94 696 b 113 722 89 713 96 722 l 281 722 b 307 703 294 722 303 717 l 363 496 l 492 707 b 519 722 497 718 506 722 "},"ψ":{"ha":1046,"x_min":0,"x_max":0,"o":"m 335 -265 b 313 -239 318 -265 310 -254 l 356 0 l 315 0 b 57 308 174 0 15 94 l 128 701 b 153 722 131 715 139 722 l 308 722 b 329 697 325 722 332 713 l 258 303 b 363 181 243 215 272 181 l 388 181 l 482 701 b 507 722 485 715 493 722 l 663 722 b 683 697 678 722 686 713 l 590 181 l 614 181 b 764 307 697 181 747 219 l 835 701 b 860 722 838 715 846 722 l 1015 722 b 1036 697 1032 722 1039 713 l 963 281 b 603 0 925 74 757 0 l 558 0 l 514 -243 b 489 -265 513 -258 503 -265 "},"ω":{"ha":1056,"x_min":0,"x_max":0,"o":"m 804 721 b 835 738 808 735 819 740 b 1015 447 964 708 1044 608 l 981 249 b 649 -18 949 71 813 -18 b 479 83 564 -18 507 15 b 276 -18 428 14 358 -18 b 38 271 122 -18 7 101 l 72 468 b 347 736 100 611 211 708 b 375 717 364 740 374 732 l 392 588 b 372 560 393 571 385 564 b 276 458 325 549 285 511 l 240 254 b 310 164 228 190 267 164 b 407 260 357 164 396 196 l 439 440 b 464 463 442 456 450 463 l 621 463 b 642 436 636 463 644 451 l 610 256 b 672 164 599 192 628 164 b 774 253 717 164 764 194 l 811 456 b 765 563 824 511 804 547 b 750 592 751 569 744 578 "},"ί":{"ha":360,"x_min":0,"x_max":0,"o":"m 185 806 b 171 835 164 806 158 819 l 319 1018 b 350 1032 328 1028 338 1032 l 494 1032 b 507 1001 515 1032 522 1017 l 322 818 b 293 806 314 808 306 806 m 38 0 b 15 26 22 0 13 11 l 135 701 b 161 722 138 715 146 722 l 322 722 b 344 697 338 722 347 713 l 224 22 b 199 0 221 8 213 0 "},"ϊ":{"ha":360,"x_min":0,"x_max":0,"o":"m 38 0 b 15 26 22 0 13 11 l 135 701 b 161 722 138 715 146 722 l 322 722 b 344 697 338 722 347 713 l 224 22 b 199 0 221 8 213 0 m 238 901 b 126 803 226 840 185 803 b 44 908 71 803 33 843 b 158 1006 56 969 101 1006 b 238 901 215 1006 250 963 m 511 901 b 401 803 500 840 458 803 b 318 908 344 803 307 843 b 432 1006 329 969 375 1006 b 511 901 489 1006 524 963 "},"ΐ":{"ha":360,"x_min":0,"x_max":0,"o":"m 38 0 b 15 26 21 0 13 11 l 135 701 b 160 722 138 715 146 722 l 322 722 b 343 697 338 722 346 713 l 224 22 b 197 0 221 8 213 0 m 153 928 b 50 838 144 872 103 838 b -22 928 -1 838 -32 871 b 83 1019 -12 985 31 1019 b 153 928 135 1019 163 985 m 169 822 b 153 850 150 822 143 835 l 253 1031 b 282 1047 258 1042 268 1047 l 400 1047 b 415 1018 419 1047 428 1035 l 286 836 b 257 822 279 825 269 822 m 579 928 b 476 838 569 872 528 838 b 403 928 424 838 393 872 b 510 1019 414 985 457 1019 b 579 928 560 1019 588 985 "},"ύ":{"ha":754,"x_min":0,"x_max":0,"o":"m 668 264 b 311 -17 638 89 519 -17 b 53 286 136 -17 22 121 l 129 701 b 154 722 131 715 140 722 l 314 722 b 335 697 329 722 338 713 l 258 267 b 342 165 246 201 279 165 b 461 275 401 165 450 207 l 539 701 b 564 722 542 715 550 722 l 725 722 b 746 697 740 722 749 713 l 668 264 m 371 799 b 357 828 350 799 344 813 l 506 1011 b 536 1025 514 1021 524 1025 l 681 1025 b 693 994 701 1025 708 1010 l 508 811 b 479 799 500 801 492 799 "},"ϋ":{"ha":754,"x_min":0,"x_max":0,"o":"m 668 264 b 311 -17 638 89 519 -17 b 53 286 136 -17 22 121 l 129 701 b 154 722 131 715 140 722 l 314 722 b 335 697 329 722 338 713 l 258 267 b 342 165 246 201 279 165 b 461 275 401 165 450 207 l 539 701 b 564 722 542 715 550 722 l 725 722 b 746 697 740 722 749 713 l 668 264 m 426 906 b 315 807 415 844 372 807 b 233 913 260 807 222 847 b 347 1010 244 974 290 1010 b 426 906 404 1010 439 967 m 715 906 b 606 807 704 844 663 807 b 522 913 549 807 511 847 b 636 1010 533 974 579 1010 b 715 906 693 1010 728 967 "},"ΰ":{"ha":754,"x_min":0,"x_max":0,"o":"m 668 264 b 311 -17 638 89 519 -17 b 53 286 136 -17 22 121 l 129 701 b 154 722 131 715 140 722 l 314 722 b 335 697 329 722 338 713 l 258 267 b 342 165 246 201 279 165 b 461 275 401 165 450 207 l 539 701 b 564 722 542 715 550 722 l 725 722 b 746 697 740 722 749 713 l 668 264 m 364 813 b 347 840 344 813 338 825 l 446 1022 b 475 1039 451 1033 463 1039 l 601 1039 b 617 1010 621 1039 628 1026 l 488 826 b 458 813 481 815 471 813 m 344 918 b 242 826 335 863 293 826 b 168 918 190 826 158 861 b 274 1011 179 976 221 1011 b 344 918 325 1011 353 976 m 785 918 b 682 826 775 863 735 826 b 610 918 631 826 600 863 b 717 1011 619 976 663 1011 b 785 918 767 1011 794 976 "},"ό":{"ha":743,"x_min":0,"x_max":0,"o":"m 358 819 b 344 849 338 819 332 833 l 493 1032 b 524 1046 501 1042 511 1046 l 668 1046 b 681 1015 689 1046 696 1031 l 496 832 b 467 819 488 822 479 819 m 669 257 b 307 -18 638 82 511 -18 b 40 297 121 -18 8 121 l 69 469 b 429 742 100 638 236 742 b 701 432 619 742 731 601 l 669 257 m 249 276 b 331 164 236 208 265 164 b 458 268 403 164 447 203 l 490 446 b 406 560 501 508 472 560 b 281 456 339 560 292 518 l 249 276 "},"ώ":{"ha":1056,"x_min":0,"x_max":0,"o":"m 804 721 b 835 738 808 735 819 740 b 1015 447 964 708 1044 608 l 981 249 b 649 -18 949 71 813 -18 b 479 83 564 -18 507 15 b 276 -18 428 14 358 -18 b 38 271 122 -18 7 101 l 72 468 b 347 736 100 611 211 708 b 375 717 364 740 374 732 l 392 588 b 372 560 393 571 385 564 b 276 458 325 549 285 511 l 240 254 b 310 164 228 190 267 164 b 407 260 357 164 396 196 l 439 440 b 464 463 442 456 450 463 l 621 463 b 642 436 636 463 644 451 l 610 256 b 672 164 599 192 628 164 b 774 253 717 164 764 194 l 811 456 b 765 563 824 511 804 547 b 750 592 751 569 744 578 m 517 817 b 503 846 496 817 490 831 l 651 1029 b 682 1043 660 1039 669 1043 l 826 1043 b 839 1013 847 1043 854 1028 l 654 829 b 625 817 646 819 638 817 "},"ά":{"ha":746,"x_min":0,"x_max":0,"o":"m 444 67 b 243 -17 394 15 321 -17 b 39 290 96 -17 7 108 l 67 446 b 444 740 103 640 261 740 b 708 689 524 740 624 719 b 725 660 721 683 726 674 l 611 22 b 586 0 610 8 601 0 l 474 0 b 447 22 458 0 450 7 l 444 67 m 247 263 b 317 165 236 203 258 165 b 438 219 358 165 407 189 l 496 544 b 417 557 472 553 442 557 b 281 449 349 557 293 518 l 247 263 m 376 826 b 363 856 356 826 350 840 l 511 1039 b 542 1053 519 1049 529 1053 l 686 1053 b 699 1022 707 1053 714 1038 l 514 839 b 485 826 506 829 497 826 "},"έ":{"ha":681,"x_min":0,"x_max":0,"o":"m 603 88 b 286 -18 528 22 421 -18 b 19 225 103 -18 -3 96 b 156 385 32 299 76 354 b 99 544 111 419 86 479 b 421 742 121 668 236 742 b 678 649 531 742 618 703 b 679 614 689 638 688 625 l 592 518 b 557 517 582 507 569 507 b 408 572 521 550 472 572 b 297 508 340 572 304 546 b 385 440 289 460 322 440 l 468 440 b 489 414 485 440 492 429 l 474 319 b 447 297 471 306 463 297 l 356 297 b 229 225 286 297 238 276 b 325 154 221 179 253 154 b 515 221 393 154 461 181 b 550 215 529 231 540 229 l 608 121 b 603 88 615 108 614 97 m 339 813 b 325 842 318 813 313 826 l 474 1025 b 504 1039 482 1035 492 1039 l 649 1039 b 661 1008 669 1039 676 1024 l 476 825 b 447 813 468 815 460 813 "},"ή":{"ha":758,"x_min":0,"x_max":0,"o":"m 346 828 b 332 857 325 828 319 842 l 481 1040 b 511 1054 489 1050 499 1054 l 656 1054 b 668 1024 676 1054 683 1039 l 483 840 b 454 828 475 831 467 828 m 36 0 b 14 26 19 0 11 11 l 128 661 b 149 686 131 672 136 681 b 431 742 236 719 340 742 b 700 411 640 742 735 608 l 631 22 b 604 0 628 8 619 0 l 444 0 b 422 26 429 0 421 11 l 492 432 b 404 560 508 519 478 560 b 315 543 371 560 336 553 l 224 22 b 197 0 221 7 213 0 "},"₀":{"ha":482,"x_min":0,"x_max":0,"o":"m 388 51 b 150 -146 364 -78 272 -146 b -15 58 33 -146 -39 -71 l 13 213 b 249 407 36 339 132 407 b 415 204 367 407 439 328 l 388 51 m 124 50 b 174 -12 114 6 139 -12 b 247 51 207 -12 239 8 l 275 211 b 226 274 282 253 264 274 b 153 211 190 274 161 253 l 124 50 "},"₁":{"ha":333,"x_min":0,"x_max":0,"o":"m 78 -139 b 56 -112 61 -139 53 -128 l 117 233 l 65 201 b 32 210 51 193 39 196 l -1 279 b 7 311 -8 292 -4 304 l 140 392 b 169 400 150 397 158 400 l 258 400 b 279 374 274 400 282 389 l 192 -117 b 167 -139 190 -131 182 -139 "},"₂":{"ha":444,"x_min":0,"x_max":0,"o":"m -35 -139 b -57 -112 -51 -139 -60 -128 l -44 -37 b -28 -10 -42 -25 -37 -18 l 144 126 b 242 239 201 172 236 208 b 203 281 247 267 232 281 b 100 243 168 281 131 264 b 65 250 86 232 72 233 l 33 310 b 42 343 28 324 29 335 b 228 407 92 379 156 407 b 383 238 343 407 399 328 b 256 58 374 179 336 132 b 167 -7 228 35 192 8 l 321 -7 b 343 -33 338 -7 346 -17 l 328 -117 b 301 -139 325 -131 317 -139 "},"₃":{"ha":456,"x_min":0,"x_max":0,"o":"m 368 33 b 131 -146 347 -81 257 -146 b -49 -69 39 -146 -14 -110 b -47 -36 -58 -58 -57 -47 l 11 26 b 46 25 22 38 33 38 b 142 -12 68 4 96 -12 b 232 54 192 -12 224 11 b 168 113 239 92 215 113 b 135 110 157 113 146 111 b 106 128 119 107 108 113 l 99 156 b 110 186 96 167 100 178 l 217 278 l 54 278 b 33 304 39 278 31 288 l 47 378 b 72 400 49 392 57 400 l 386 400 b 408 374 403 400 411 390 l 400 324 b 382 296 397 311 392 304 l 254 190 b 283 188 256 190 268 190 b 368 33 343 174 383 122 "},"₄":{"ha":481,"x_min":0,"x_max":0,"o":"m 388 79 b 407 53 403 79 410 68 l 392 -26 b 365 -49 390 -42 381 -49 l 336 -49 l 324 -117 b 299 -139 322 -132 313 -139 l 207 -139 b 185 -112 190 -139 183 -128 l 196 -49 l -25 -49 b -47 -22 -40 -49 -49 -37 l -35 50 b -22 79 -32 63 -29 69 l 183 385 b 214 400 192 396 201 400 l 310 400 b 325 371 329 400 336 388 l 129 79 l 221 79 l 243 161 b 269 181 246 175 256 181 l 351 181 b 372 154 367 181 375 169 l 360 79 "},"₅":{"ha":468,"x_min":0,"x_max":0,"o":"m 382 33 b 136 -146 361 -85 272 -146 b -39 -76 51 -146 -7 -118 b -36 -44 -49 -65 -47 -56 l 21 14 b 54 14 31 25 42 24 b 160 -19 78 -6 113 -19 b 244 44 204 -19 239 4 b 188 108 253 86 231 108 b 104 86 154 108 124 97 b 71 81 93 79 83 78 l 17 96 b -1 126 3 100 -4 113 l 57 379 b 83 400 60 392 69 400 l 393 400 b 415 374 410 400 418 389 l 401 297 b 375 275 399 283 390 275 l 157 275 l 140 197 b 228 213 160 207 190 213 b 382 33 339 213 401 146 "},"₆":{"ha":467,"x_min":0,"x_max":0,"o":"m 385 39 b 154 -146 364 -75 278 -146 b -17 50 35 -146 -36 -58 l 14 218 b 250 407 35 336 138 407 b 404 357 311 407 364 386 b 407 322 417 349 418 336 l 351 260 b 317 254 340 247 329 247 b 235 278 296 269 269 278 b 147 213 188 278 156 253 l 140 179 b 233 204 161 194 190 204 b 385 39 333 204 401 140 m 117 40 b 172 -14 111 6 131 -14 b 247 43 213 -14 240 4 b 194 96 254 78 235 96 b 117 40 153 96 122 76 "},"₇":{"ha":431,"x_min":0,"x_max":0,"o":"m 4 -139 b -12 -110 -15 -139 -22 -126 l 219 272 l 29 272 b 8 297 14 272 6 282 l 22 378 b 49 400 25 392 33 400 l 390 400 b 411 374 406 400 414 389 l 401 315 b 392 288 400 304 397 297 l 140 -122 b 111 -139 133 -133 125 -139 "},"₈":{"ha":475,"x_min":0,"x_max":0,"o":"m 382 21 b 149 -146 364 -86 274 -146 b -28 26 24 -146 -49 -78 b 71 149 -18 79 15 126 b 29 257 38 171 21 211 b 246 407 46 350 128 407 b 411 251 363 407 428 343 b 329 144 403 207 374 168 b 382 21 374 125 393 79 m 103 26 b 165 -29 97 -8 118 -29 b 251 29 215 -29 246 -7 b 189 82 257 63 236 82 b 103 26 140 82 110 61 m 151 244 b 207 190 146 211 164 190 b 286 246 251 190 279 211 b 228 293 290 275 271 293 b 151 244 185 293 157 274 "},"₉":{"ha":465,"x_min":0,"x_max":0,"o":"m -1 219 b 229 407 19 336 106 407 b 399 213 350 407 418 324 l 368 43 b 122 -146 347 -75 233 -146 b -31 -96 61 -146 11 -122 b -33 -61 -44 -87 -44 -75 l 22 3 b 56 7 32 14 43 15 b 136 -17 76 -7 103 -17 b 235 49 183 -17 226 8 l 242 83 b 150 58 221 67 193 58 b -1 219 49 58 -17 126 m 265 222 b 211 276 271 257 251 276 b 138 219 172 276 143 258 b 189 167 131 185 147 167 b 265 222 231 167 258 186 "},"⁰":{"ha":482,"x_min":0,"x_max":0,"o":"m 514 760 b 275 563 490 631 399 563 b 111 767 160 563 88 638 l 139 921 b 375 1115 163 1047 257 1115 b 542 913 492 1115 564 1036 l 514 760 m 250 758 b 299 696 240 714 265 696 b 372 760 333 696 365 717 l 401 919 b 353 982 408 961 389 982 b 279 919 317 982 288 961 l 250 758 "},"¹":{"ha":333,"x_min":0,"x_max":0,"o":"m 200 569 b 178 596 183 569 176 581 l 239 942 l 188 910 b 156 918 174 901 163 904 l 121 988 b 131 1019 115 1000 118 1013 l 263 1100 b 293 1108 272 1106 282 1108 l 381 1108 b 403 1082 397 1108 404 1097 l 315 592 b 289 569 313 578 304 569 "},"²":{"ha":444,"x_min":0,"x_max":0,"o":"m 90 569 b 68 596 74 569 65 581 l 81 671 b 97 699 83 683 88 690 l 269 835 b 367 947 326 881 361 917 b 328 989 372 975 357 989 b 225 951 293 989 256 972 b 190 958 211 940 199 942 l 158 1018 b 167 1051 153 1032 156 1043 b 353 1115 217 1088 282 1115 b 508 946 468 1115 524 1036 b 381 767 499 888 461 840 b 292 701 354 743 317 717 l 447 701 b 468 675 463 701 471 692 l 453 592 b 428 569 451 578 442 569 "},"³":{"ha":456,"x_min":0,"x_max":0,"o":"m 493 742 b 256 563 472 628 382 563 b 76 639 164 563 111 599 b 78 672 67 650 68 661 l 136 735 b 171 733 147 746 158 746 b 267 696 193 713 221 696 b 357 763 317 696 349 719 b 293 821 364 800 340 821 b 260 818 282 821 271 819 b 231 836 244 815 233 821 l 224 864 b 235 894 221 875 225 886 l 268 928 b 342 986 296 953 326 976 l 179 986 b 158 1013 164 986 156 996 l 172 1086 b 197 1108 174 1100 182 1108 l 511 1108 b 533 1082 528 1108 536 1099 l 525 1032 b 507 1004 522 1019 517 1013 l 379 899 b 408 896 381 899 393 899 b 493 742 468 882 508 831 "},"⁴":{"ha":481,"x_min":0,"x_max":0,"o":"m 513 788 b 532 761 528 788 535 776 l 517 682 b 490 660 514 667 506 660 l 461 660 l 449 592 b 424 569 446 576 438 569 l 332 569 b 310 596 315 569 308 581 l 321 660 l 100 660 b 78 686 83 660 76 671 l 90 758 b 103 788 93 771 96 778 l 308 1093 b 339 1108 317 1104 326 1108 l 435 1108 b 450 1079 453 1108 461 1096 l 254 788 l 346 788 l 368 869 b 394 889 371 883 381 889 l 476 889 b 497 863 492 889 500 878 l 485 788 "},"⁵":{"ha":468,"x_min":0,"x_max":0,"o":"m 507 742 b 263 563 486 624 397 563 b 86 632 176 563 121 592 b 89 664 76 643 78 653 l 146 722 b 179 722 157 732 168 732 b 285 689 203 703 238 689 b 369 753 329 689 364 713 b 313 817 378 794 357 817 b 229 794 279 817 250 806 b 197 789 218 788 208 786 l 142 804 b 125 835 128 808 121 821 l 182 1088 b 210 1108 186 1100 196 1108 l 519 1108 b 540 1082 535 1108 543 1097 l 526 1006 b 500 983 525 992 515 983 l 283 983 l 265 906 b 353 921 285 915 317 921 b 507 742 465 921 528 854 "},"⁶":{"ha":467,"x_min":0,"x_max":0,"o":"m 508 747 b 278 563 489 633 403 563 b 108 758 158 563 89 650 l 138 926 b 375 1115 160 1044 263 1115 b 528 1065 436 1115 488 1094 b 532 1031 542 1057 542 1044 l 475 968 b 442 963 465 956 454 956 b 360 986 421 978 393 986 b 272 921 313 986 279 961 l 265 888 b 357 913 285 903 315 913 b 508 747 458 913 526 849 m 242 749 b 297 694 236 714 256 694 b 372 751 338 694 365 713 b 318 804 379 786 360 804 b 242 749 276 804 247 785 "},"⁷":{"ha":431,"x_min":0,"x_max":0,"o":"m 129 569 b 113 599 110 569 103 582 l 346 981 l 154 981 b 133 1006 139 981 131 990 l 147 1086 b 174 1108 150 1100 158 1108 l 515 1108 b 536 1082 531 1108 539 1097 l 526 1024 b 517 996 525 1013 522 1006 l 265 586 b 236 569 258 575 250 569 "},"⁸":{"ha":475,"x_min":0,"x_max":0,"o":"m 507 729 b 274 563 489 622 399 563 b 97 735 149 563 76 631 b 194 857 107 788 140 835 b 154 965 163 879 146 919 b 371 1115 169 1058 253 1115 b 535 960 488 1115 553 1051 b 454 853 528 915 497 876 b 507 729 499 833 518 788 m 276 953 b 332 899 271 919 289 899 b 410 954 375 899 404 919 b 353 1001 415 983 396 1001 b 276 953 310 1001 282 982 m 228 735 b 290 679 222 700 243 679 b 376 738 340 679 371 701 b 314 790 382 771 361 790 b 228 735 264 790 235 769 "},"⁹":{"ha":465,"x_min":0,"x_max":0,"o":"m 124 928 b 354 1115 144 1044 231 1115 b 524 921 475 1115 544 1032 l 494 751 b 258 563 472 633 369 563 b 106 613 197 563 147 586 b 103 647 92 621 92 633 l 158 711 b 192 715 168 722 179 724 b 272 692 214 701 239 692 b 360 757 321 692 351 717 l 367 792 b 276 767 346 775 318 767 b 124 928 174 767 108 835 m 390 931 b 336 985 396 965 376 985 b 263 928 297 985 268 967 b 314 875 256 893 274 875 b 390 931 356 875 383 894 "},"⁄":{"ha":311,"x_min":0,"x_max":0,"o":"m -114 15 b -143 0 -122 4 -131 0 l -239 0 b -254 29 -258 0 -265 13 l 474 978 b 503 993 482 989 490 993 l 597 993 b 613 964 617 993 624 981 "}}}
